<svg xmlns="http://www.w3.org/2000/svg" aria-hidden="true" class="avatar-svg" viewBox="0 0 120 120"><defs><clipPath id="a"><circle cx="60" cy="60" r="50"/></clipPath></defs><circle cx="60" cy="60" r="50" fill="#fff"/><g clip-path="url(#a)"><svg width="84" height="108" x="18" y="8" overflow="hidden" viewBox="135 300 380 480"><defs><linearGradient id="u" x1="1182.7" x2="1170.49" y1="1718.48" y2="1866.26" gradientUnits="userSpaceOnUse"><stop class="stop0" offset="0" stop-color="#301708"/><stop class="stop1" offset="1" stop-color="#593014"/></linearGradient><linearGradient id="t" x1="849.941" x2="919.694" y1="952.628" y2="946.919" gradientUnits="userSpaceOnUse"><stop class="stop0" offset="0" stop-color="#7f431d"/><stop class="stop1" offset="1" stop-color="#aa6f2e"/></linearGradient><linearGradient id="s" x1="697.489" x2="852.545" y1="957.825" y2="987.116" gradientUnits="userSpaceOnUse"><stop class="stop0" offset="0" stop-color="#2d1507"/><stop class="stop1" offset="1" stop-color="#7a431c"/></linearGradient><linearGradient id="r" x1="1591.42" x2="1825.76" y1="986.893" y2="981.482" gradientUnits="userSpaceOnUse"><stop class="stop0" offset="0" stop-color="#6c2604"/><stop class="stop1" offset="1" stop-color="#915023"/></linearGradient><linearGradient id="q" x1="804.008" x2="803.796" y1="347.206" y2="303.006" gradientUnits="userSpaceOnUse"><stop class="stop0" offset="0" stop-color="#7e421d"/><stop class="stop1" offset="1" stop-color="#a86b2d"/></linearGradient><linearGradient id="p" x1="790.545" x2="791.639" y1="511.626" y2="346.58" gradientUnits="userSpaceOnUse"><stop class="stop0" offset="0" stop-color="#140600"/><stop class="stop1" offset="1" stop-color="#6e3c1a"/></linearGradient><linearGradient id="o" x1="1713.94" x2="1705.1" y1="397.238" y2="321.371" gradientUnits="userSpaceOnUse"><stop class="stop0" offset="0" stop-color="#fbde8d"/><stop class="stop1" offset="1" stop-color="#fffcf1"/></linearGradient><linearGradient id="n" x1="1720.5" x2="1720.53" y1="1495.03" y2="1435" gradientUnits="userSpaceOnUse"><stop class="stop0" offset="0" stop-color="#6c3918"/><stop class="stop1" offset="1" stop-color="#aa672c"/></linearGradient><linearGradient id="m" x1="1713.41" x2="1713.62" y1="1640.87" y2="1494.9" gradientUnits="userSpaceOnUse"><stop class="stop0" offset="0" stop-color="#230f02"/><stop class="stop1" offset="1" stop-color="#5e3316"/></linearGradient><linearGradient id="l" x1="1713.51" x2="1713.34" y1="1641.9" y2="1796" gradientUnits="userSpaceOnUse"><stop class="stop0" offset="0" stop-color="#580e00"/><stop class="stop1" offset="1" stop-color="#975829"/></linearGradient><linearGradient id="k" x1="328.437" x2="327.768" y1="1462.92" y2="1643.66" gradientUnits="userSpaceOnUse"><stop class="stop0" offset="0" stop-color="#413a40"/><stop class="stop1" offset="1" stop-color="#7d768c"/></linearGradient><linearGradient id="j" x1="1258.14" x2="1252.92" y1="1415.08" y2="1621.68" gradientUnits="userSpaceOnUse"><stop class="stop0" offset="0" stop-color="#301709"/><stop class="stop1" offset="1" stop-color="#552e12"/></linearGradient><linearGradient id="i" x1="267.689" x2="354.166" y1="901.527" y2="1017.36" gradientUnits="userSpaceOnUse"><stop class="stop0" offset="0" stop-color="#8b3329"/><stop class="stop1" offset="1" stop-color="#f24732"/></linearGradient><linearGradient id="h" x1="270.067" x2="266.129" y1="593.732" y2="626.361" gradientUnits="userSpaceOnUse"><stop class="stop0" offset="0" stop-color="#7a431c"/><stop class="stop1" offset="1" stop-color="#9a5728"/></linearGradient><linearGradient id="g" x1="377.06" x2="361.951" y1="638.519" y2="638.478" gradientUnits="userSpaceOnUse"><stop class="stop0" offset="0" stop-color="#623414"/><stop class="stop1" offset="1" stop-color="#8a4d21"/></linearGradient><linearGradient id="f" x1="1192.28" x2="1186.17" y1="655.871" y2="552.628" gradientUnits="userSpaceOnUse"><stop class="stop0" offset="0" stop-color="#4d2912"/><stop class="stop1" offset="1" stop-color="#8e4f21"/></linearGradient><linearGradient id="e" x1="1314.68" x2="1318.54" y1="655.639" y2="554.909" gradientUnits="userSpaceOnUse"><stop class="stop0" offset="0" stop-color="#4d2910"/><stop class="stop1" offset="1" stop-color="#8d4e21"/></linearGradient><linearGradient id="d" x1="1169.58" x2="1164.8" y1="670.421" y2="558.454" gradientUnits="userSpaceOnUse"><stop class="stop0" offset="0" stop-color="#43230e"/><stop class="stop1" offset="1" stop-color="#8b4d21"/></linearGradient><linearGradient id="c" x1="1338.32" x2="1336.89" y1="673.248" y2="559.405" gradientUnits="userSpaceOnUse"><stop class="stop0" offset="0" stop-color="#41220d"/><stop class="stop1" offset="1" stop-color="#8b4d22"/></linearGradient><linearGradient id="b" x1="1229.77" x2="1272.99" y1="888.029" y2="1235.57" gradientUnits="userSpaceOnUse"><stop class="stop0" offset="0" stop-color="#443d43"/><stop class="stop1" offset="1" stop-color="#5c5563"/></linearGradient></defs><path fill="#fbfbfa" d="M0 0h2048v2048H0V0"/><path fill="#fbfbfa" d="M0 0h2048v104.953c-75.14-1.394-153.95-.087-229.54-.088l-451.42.041 17.53-19.859-721.561-.025 17.488 19.969c-75.438-1.367-154.995-.119-230.705-.119L0 104.878z"/><path fill="#2fb0b9" d="m663.009 85.022 721.561.025-17.53 19.859-34.41 39.044 33.15 35.166 18.75 19.876-721.648.015a1226 1226 0 0 0 18.58-19.634c11.129-11.271 22.612-23.928 33.539-35.525-11.416-12.193-23.231-26.236-34.504-38.857z"/><path fill="#fbfbfa" d="M1113.29 109.371c9.07-.216 19.54-1.521 27.28 4.104 10.83 7.878 6.49 25.899-.19 34.996 2.03 8.07 8.59 22.211 4.6 28.635-3.38 1.46-3.38 1.245-6.89.774-2.58-2.546-2.07-3.672-3.09-7.927-1.72-6.235-1.48-13.658-6.29-17.763-3.17-.58-1.87-.978-4.19.386-2.49 8.998 2.6 20.298-3.59 26.527-10.74 1.822-7.66-17.92-7.64-24.377z"/><path fill="#2fb0b9" d="M1123.87 119.826c15.49-.491 12.92 7.424 11.29 19.835-4.35 1.633-6.19 2.814-10.23.214-2.17-5.011-1.17-14.016-1.06-20.049"/><path fill="#a4eff3" d="m857.345 109.323 14.195-.083c1.217 9.38 11.881 64.682 9.879 68.294-3.932.581-3.878.667-7.742.051-3.565-3.315-3.534-10.148-4.14-15.269-3.061-.791-7.525-.642-10.674.275-2.89 4.551 1.088 22.116-11.814 14.4l-1.042-2.463c3.599-20.02 7.706-45.762 11.338-65.205"/><path fill="#2fb0b9" d="M863.926 127.599c2.131 4.607 4.915 20.777 2.019 25.37l-3.893-1.312c-2.59-4.566.799-18.328 1.874-24.058"/><path fill="#fbfbfa" d="m939.686 109.341 14.277-.038c1.301 7.662 11.949 65.485 10 68.101-2.927.244-6.036.82-8.749-.044-1.98-4.101-2.245-10.402-2.781-15.133-3.451-.412-8.173-.882-11.078.827-3.199 5.763 1.065 21.063-12.615 14.061-.521-3.296 9.971-61.915 10.946-67.774"/><path fill="#2fb0b9" d="M946.47 127.779c2.16 3.306 2.927 14.328 3.479 18.798.518 4.197.049 4.19-2.025 6.609-2.991-1.003-2.102-.256-3.991-2.422-.914-7.321 1.208-15.574 2.537-22.985"/><path fill="#fbfbfa" d="m1011.58 109.365 14.15-.05c2.68 15.189 10.18 53.961 10.86 67.606-2.29 1.412-7.02.983-10 .978-.96-5.064-1.65-10.546-2.38-15.676-4.85-.396-5.87-.596-10.57.161-4.38 6.142 1.57 12.494-6.44 16.295-3.96-.252-2.2.334-5.51-1.765-.42-.767-1.18-1.953-1.04-2.82 3.62-21.419 7.45-43.311 10.93-64.729"/><path fill="#2fb0b9" d="M1018.57 127.832c2.06 5.206 4.95 20.833 1.35 25.216l-3.66-1.503c-2.31-4.682 1.18-18.163 2.31-23.713"/><path fill="#fbfbfa" d="m1079.11 109.346 14.15-.029c1.7 12.687 10.82 58.545 10.2 67.427l-1.76 1.055c-3.02.125-5.04.64-7.37-1.095-2.38-3.705-2.39-9.885-2.86-14.557-20.66-1.45-7.67 6.991-14.51 15.701-3.33.259-4.21.569-7.31-.797-1.1-1.814-2.12-3.049-1.62-5.354 4.42-20.29 6.99-42.062 11.08-62.351"/><path fill="#2fb0b9" d="M1085.48 127.809c2.49 3.703 4.64 20.78 2.77 24.993-4.4-.942-2.99.208-5.25-2.488-.83-6.963 1.29-15.289 2.48-22.505"/><path fill="#fbfbfa" d="M991.605 109.434c3.779-.205 7.347-.006 11.115.13l-2.916 14.882-9.513 53.471-14.262-.008-12.246-68.54c6.579-.165 10.264-1.886 11.519 5.244 2.785 15.827 4.836 31.737 7.767 47.546z"/><path fill="#fed05b" d="M1204.58 109.036c8.92.142 21.23-2.294 27.8 1.748 2.22 3.562 1.61 1.664 1.78 5.948l-1.72 1.817c-4.78 1.81-12.06 1.036-17.45.894l.03 18.661c6.4-.179 11.37-1.542 14.93 4.774-1.32 7.373-9.31 5.963-14.98 5.83l.02 16.368.68 1.587c4.38 1.377 10.4.111 16.23.731 3.23 2.332 2.12.87 3.57 4.458-1.59 9.11-22.93 6.065-30.78 6.008-.5-22.351-.09-46.351-.11-68.824M1177.43 108.073c8.57.727 13.04 3.155 17.49 10.804.25 3.622.76 2.082-1.42 4.826-3.31 1.372-3.44 1.648-7.13 1.662-2.85-5.355-7.16-11.384-12.96-4.384-1.24 8.955 9.35 17.977 14.6 24.504 12.31 15.29 12.65 31.92-10.85 33.161-7.98-2.483-18.68-11.803-13.22-20.01 2.46-1.038 3.93-.353 6.57.26.62.841 2.1 2.86 2.3 3.776 1.42 6.842 8.91 8.646 13.43 2.779.94-13.033-47.55-45.948-8.81-57.378"/><path fill="#a4eff3" d="m774.013 109.032 29.471-.015-.029 10.401-19.078-.003-.04 18.733c6.927-.178 10.775-1.52 15.156 4.76-.416 6.974-7.725 6.036-12.736 5.838l-1.456.412c-4.683 8.515 6.212 32.075-8.395 29.653-1.103-1.151-2.437-2.658-2.511-4.26-.929-20.232-.424-45.753-.382-65.519"/><path fill="#fbfbfa" d="M1036.26 109.384c9.86.031 26.53-3.636 32.5 3.992.56 2.826.92 2.969-.17 5.525-2.99 1.582-7.21 1.091-10.78 1.043l.03 49.306c.09 3.661.83 6.272-1.85 8.608-3.26-.009-5.13.311-7.99-1.24-1.8-5.744-.8-48.074-.73-56.669-3.52.071-6.55.49-9.76-.8-2.02-3.599-1.28-5.21-1.25-9.765"/><path fill="#fed05b" d="M1241.16 109.333c9.03.075 26.54-3.223 32.07 3.338.88 3.027 1.24 3.097.31 5.992-2.85 1.978-7.08 1.36-10.77 1.293l.04 49.294c.05 6.29-.79 10.393-8.57 8.979-3.69-5.41-2.05-49.497-2.02-58.184-3.35.014-7.11.405-9.99-1.021-1.82-3.437-1.12-5.418-1.07-9.691"/><path fill="#a4eff3" d="M881.974 109.327c8.615.043 26.66-3.078 31.845 3.315.831 3.119 1.202 3.171.097 6.081-2.743 1.835-7.146 1.222-10.694 1.147l-.016 49.008-.167 7.616-1.649 1.446c-3.856.175-3.934.846-6.618-.846-3.383-8.48-1.901-45.824-1.812-57.271-3.609.153-6.745.723-9.918-.772-1.859-3.491-1.139-5.372-1.068-9.724M810.997 109.246c3.6-.085 6.153-.496 9.444.904 1.67 7.836.797 46.757.735 57.15 5.126-.051 12.592-1.099 16.323 1.04 2.161 3.882 1.349 4.4 1.382 9.554l-27.966.009z"/><path fill="#fed05b" d="M680.497 104.991c11.273 12.621 23.088 26.664 34.504 38.857-10.927 11.597-22.41 24.254-33.539 35.525-76.235-1.064-155.248-.072-231.756-.074L0 179.332v-74.454l449.792-.006c75.71 0 155.267-1.248 230.705.119M1367.04 104.906l451.42-.041c75.59.001 154.4-1.306 229.54.088V179.2l-682.22-.084-33.15-35.166z"/><path fill="#562e12" d="M791.062 1408.79c6.587-6.35 11.272-9.71 20.77-10.52 9.132-.77 16.565 13.5 22.058 11.98 18.739-5.19 30.151 2.97 39.062 17.82 26.469-6.59 43.922 7.59 44.347 34.71 15.793 4.09 31.022 11.03 29.459 30.23-.152 1.86-2.387 13.19-.792 13.75 19.959 7.04 31.814 21.87 13.487 41.59 14.094 15.2 15.759 29.23 2.345 46.02 10.193 13.66 7.051 16.34 6.626 31.93-.025.93 14.164 13.93 11.441 24.75-3.345 13.29-11.119 17.39-22.602 20.99-6.468 14.52-8.244 8.13-19.417 14.93 6.827 22.82-5.211 37.87-28.971 34.58-1.565 6.81-4.58 16-10.302 20.04-6.063 4.27-18.852 3.43-25.797 4.57-.363.06-10.068 9.74-12.857 10.47-7.094 1.85-13.821-1.2-19.91-.94-.6.03-9.276 8.29-12.703 10.36-1.613-3.83-1.83-14.28-2.092-18.84-18.189 6.61-34.838 7.12-53.751 3.75-3.384-.6-12.249-2.92-14.494-3.18-.175 4.93-.077 13.77-2.16 17.93-5.762-3.53-7.96-5.89-12.391-10.99-24.825 9.86-23.772-6.37-32.284-8.05-22.289-4.41-28.821 3.51-36.998-25.07-39.986 5.88-26.632-31.58-29.803-35.34-14.646-3.26-10.205-3.04-19-13.64-3.047-3.68-16.613-7.26-19.14-13.86-3.604-5.92-3.012-12.41-1.799-18.83 1.261-6.66 11.819-10.07 10.909-16.51-1.829-12.95-2.782-18.17 6.418-29.15-12.971-16.4-12.485-30.91 2.24-46-15.728-16.98-7.959-38.52 15.067-40.77-12.892-43.02 25.21-40.12 25.982-45.01 4.206-26.61 16.262-41.45 46.073-34.57 12.377-24.76 22.463-16.77 39.714-17.79 6.563-.39 16.467-20.5 32.736-8.18 3.63 1.81 5.503 3.51 8.529 6.84"/><path fill="#c6855a" d="M697.278 1585.17c.27-3 .067-5.9 1.899-8.05 14.842-1.42 45.757-.38 62.368-.36l121.365.07c.284 15.62 1.475 36.73 1.051 51.72l10.972-.35c1.475-4.02 4.329-13.67 7.162-15.66 3.368 2.9 6.634 10.45 6.879 14.95 1.029 18.92-11.453 35.87-28.091 43.24-9.866 36.69-20.414 48.15-55.928 63.59l.259 12.89c-18.189 6.61-34.838 7.12-53.751 3.75-3.384-.6-12.249-2.92-14.494-3.18l.398-13.37c-35.285-16.23-45.947-25.69-55.707-63.29-15.386-7.73-26.369-20.39-28.288-38.47-.591-5.57 1.441-13.91 5.111-18.2l1.669-.05 5.74 14.19c3.627-.03 4.483.03 8.141-.81 2.559-3.25 2.165-5.57 2.858-10.11.452-10.05.269-22.28.387-32.5"/><path fill="#b96834" d="M757.367 1734.41c31.642 11.59 34.822 13.49 67.588-.09l.259 12.89c-18.189 6.61-34.838 7.12-53.751 3.75-3.384-.6-12.249-2.92-14.494-3.18z"/><path fill="#894c21" d="M685.892 1628.59c3.627-.03 4.483.03 8.141-.81 2.559-3.25 2.165-5.57 2.858-10.11.053 10.21-.732 19.93-.738 29.92a1510 1510 0 0 0-10.261-19M883.961 1628.55l10.972-.35c-4.091 7.05-7.073 12.56-10.606 19.89z"/><path fill="#c83e30" d="m755.827 1683.97 70.447.06c-2.867 6.54-5.222 9.88-9.826 15.06-23.506 18.03-47.68 10.62-60.621-15.12"/><path fill="#fbfbfa" d="M762.889 1688.26c18.772-.23 37.93-.01 56.732.02-2.762 3.75-4.594 5.57-7.875 8.95-17.496 12.9-36.582 8.17-48.857-8.97"/><path fill="#3c210f" d="M736.08 1604.83c20.541.3 22.648 31.68.854 34.24-2.101-1.07-5.78-2.97-6.881-5.01-2.152-3.98-8.945-16.84-8.366-20.81l4.85.8c3.476-4.46 4.548-6.25 9.543-9.22M837.012 1604.8c.684.03 1.368.06 2.051.11 7.371.59 7.941 4.28 12.863 9.07 1.793-.19 3.588-.36 5.385-.5-2.14 6.8-6.796 18.57-11.538 23.64-19.075 7.55-28.083-20.82-8.761-32.32"/><path fill="#e47e79" d="M847.769 1644.88c7.655-2.66 16.018 1.39 18.682 9.04 2.664 7.66-1.378 16.02-9.03 18.69-7.657 2.67-16.029-1.38-18.696-9.04-2.666-7.65 1.384-16.02 9.044-18.69M721.915 1644.35c7.884-1.43 15.456 3.74 16.991 11.6 1.534 7.87-3.539 15.51-11.384 17.14a14.64 14.64 0 0 1-13.991-4.67 14.65 14.65 0 0 1-2.824-14.48 14.66 14.66 0 0 1 11.208-9.59"/><path fill="#894c21" d="M682.833 1576.86c-1.425-2.98-3.539-7.09-2.435-10.14l.978.49c.583 3.4.649 3.97 1.877 7.35 4.23 2.33 19.857.15 25.659.07 16.951-.22 33.945.11 50.879-.37-2.507-.8-49.613.77-61.577-1.66 7.36-2.07 171.965-2 185.932-.78l-.417 1.05c-9.971 1.6-24.599 1.27-35.027 1.37 11.185.16 43.154 2.48 50.908-1.16l-.498-1.47c-12.139-5.16-60.859.37-77.439-1.86-26.672-3.6-56.429-4.71-83.164-1.96 7.109.53 31.192-.74 34.311.94l-.227.8c-7.129.75-23.323.85-30.583.21-9.813-.86-16.304-2.76-26.867-2.46 3.036.6 6.116 1.39 9.191 1.73-4.615 2.38-15.713-1.85-21.053-2.25-6.083-.45-11.437.69-17.283-1.11l.829-.74-.959.31.851.78.643-1.15c24.42-2.03 57.048-.41 81.634-.45l78.475-.02c9.079-.03 40.884-2.09 46.284 2.24 3.438.23 4.716-1.21 7.419-3.1 4.986 13.35-9.401 13.63-18.264 13.31l-121.365-.07c-16.611-.02-47.526-1.06-62.368.36-1.832 2.15-1.629 5.05-1.899 8.05.031-2.7.336-4.55-.86-6.94-3.963-2.54-8.446-1.55-13.585-1.37"/><path fill="url(#b)" d="M1141.49 1228.03c-5.38-41.78-8.8-81.91-11.13-123.95-1.06-20.18-5.5-41.5-5.44-61.65.57-47.783 3.76-97.531 44.34-129.59 53.09-41.939 139.13-35.778 181.7 18.089 26.61 34.866 28.65 90.801 24.59 132.881-5.25 54.59-8.14 108.91-15.05 163.29 1.72 2.57 9.39 4.53 12.76 5.65 36.02 11.99 46.62 40.45 50.73 75.3H1360l-213.8-.01-64.08-.01c3.6-29.38 12.07-57.6 41.47-71.58 5-2.38 15.17-4.99 17.9-8.42"/><path fill="#f8d8ba" d="M1241 951.288c-.29 18.541-.16 37.233-.68 55.722 18.89-16.471 29.06-25.156 39.63-48.094 5.52 12.554 8.11 20.033 8.45 33.993 9.94-9.067 16.44-16.602 23.11-28.363 25.47 38.604 32.5 59.284 30.26 107.554l.87-1.15c8.33-11.16 13.19-23.97 20.46-35.84.54-.09 1.08-.19 1.63-.28 3.17 2.66 6.17 10.68 6.27 14.65.42 17.56-11.44 36.18-27.98 41.92-10.11 37.19-20.18 48.58-56.08 64.24l.07 13.58c-27.73 6.26-39.86 7.84-67.95-.33-.09-4.19.18-8.93.31-13.17-36.35-16.6-46.07-26.17-56.36-64.4-21.5-7.31-39.68-41.99-18.66-58.87l2.73-.54c4.25 2.87 4.98 18.15 19.4 30.57-5.35-32-.07-66.358 20.94-91.993-2.5 16.264-1.92 25.58 1.24 41.663 7.73-34.051 31.96-36.277 52.34-60.862"/><path fill="#e6b295" d="M1219.37 1155.72c32.49 12.82 35.46 12.41 67.57-.08l.07 13.58c-27.73 6.26-39.86 7.84-67.95-.33-.09-4.19.18-8.93.31-13.17"/><path fill="#b96834" d="M1224.42 1105.03c19.14-.13 38.27-.08 57.41.14-3.13 5.59-4.01 7.33-8.46 12.24-18.48 14.71-38.94 8.24-48.95-12.38"/><path fill="#fbfbfa" d="M1230.47 1108.87c7.49-.02 38.36-.54 43.93.44-.41 2.1-2.58 3.92-4.24 5.85-14.79 10.88-28.58 7.2-39.69-6.29"/><path fill="#e6b295" d="M1313.58 1065.47c8.05-.46 14.96 5.66 15.49 13.71.53 8.04-5.52 15.01-13.57 15.61-8.14.61-15.22-5.54-15.75-13.69-.54-8.15 5.67-15.17 13.83-15.63M1185.82 1065.44c7.95-.22 14.63 5.91 15.09 13.85.45 7.94-5.49 14.8-13.41 15.48-5.33.46-10.49-2.02-13.47-6.46a14.69 14.69 0 0 1-.85-14.91c2.45-4.76 7.29-7.8 12.64-7.96"/><path fill="#3c210f" d="M1302.85 1030.09c23.29-.78 24.35 15.64 8.22 27.98-20.66 2.04-27.59-18.83-8.22-27.98M1193.89 1030.15c21.26-1 29.11 17.79 10.15 28.06-17.8 1.54-29.02-20.87-10.15-28.06"/><path fill="#e47e79" d="M1219.06 1168.89c28.09 8.17 40.22 6.59 67.95.33.41 10.8-.78 28.15 6.62 35.94 5.23 5.5 34.72 13.9 41.33 14.43 4.15-1.09 12.91 2.57 15.95 5.66 2.35.85 7.56 3.31 9.59 1.85 1.72 2.57 9.39 4.53 12.76 5.65 36.02 11.99 46.62 40.45 50.73 75.3H1360l-213.8-.01-64.08-.01c3.6-29.38 12.07-57.6 41.47-71.58 5-2.38 15.17-4.99 17.9-8.42l.87.63c3.75.09 9.05-2.12 12.78-3.39 3.15-3.22 11.74-6.76 16.01-5.66 6.75-.62 36.12-9.16 41.26-14.41 7.31-7.5 6.23-25.49 6.65-36.31"/><path fill="#f8d8ba" d="M1219.06 1168.89c28.09 8.17 40.22 6.59 67.95.33.41 10.8-.78 28.15 6.62 35.94 5.23 5.5 34.72 13.9 41.33 14.43.49 14.36.09 31.11.11 45.67a8059 8059 0 0 0-82.08 23.15c-26.24-8.02-55.48-15.89-81.95-23.2l.11-45.6c6.75-.62 36.12-9.16 41.26-14.41 7.31-7.5 6.23-25.49 6.65-36.31M1360 1308.05c-1.56-9.35-10.77-79.15-9.09-82.8 2.35.85 7.56 3.31 9.59 1.85 1.72 2.57 9.39 4.53 12.76 5.65 36.02 11.99 46.62 40.45 50.73 75.3zM1155.14 1225.27c1.96 5.05-7.7 72.75-8.94 82.77l-64.08-.01c3.6-29.38 12.07-57.6 41.47-71.58 5-2.38 15.17-4.99 17.9-8.42l.87.63c3.75.09 9.05-2.12 12.78-3.39"/><path fill="#e6b295" d="M1134.56 558.763c-2.59-15.566-2.93-31.304-4.68-46.756-5.2-45.907-4.4-94.564 23.32-133.884 37.73-53.528 120.91-61.074 172.42-23.806 28.59 20.695 42.28 53.203 47.4 87.16 4.32 28.522 1.31 59.301.31 88.153-.28 8.087-.91 27.798-2.23 34.811-.66 32.427-5.98 78.665-10.71 110.716 2.12 2.901 10.05 5.181 13.85 6.475 35.65 12.131 45.43 40.318 49.73 74.862l-124.29.163c-5.36.003-41.47.39-44.77-.577l-3.99.309c-17.54.711-39.21.093-57.05.092l-111.48.115c1.84-30.319 14.33-60.663 44.18-73.304 6.47-2.742 21.15-5.479 24.23-10.031-6.66-30.372-13.69-82.532-16.24-114.498"/><path fill="#894c21" d="M1134.56 558.763c-2.59-15.566-2.93-31.304-4.68-46.756-5.2-45.907-4.4-94.564 23.32-133.884 37.73-53.528 120.91-61.074 172.42-23.806 28.59 20.695 42.28 53.203 47.4 87.16 4.32 28.522 1.31 59.301.31 88.153-.28 8.087-.91 27.798-2.23 34.811l-.29-5.278-.89-.441.28-.816.55 1.707-.29-3.815c-2.81 6.026-10.94 6.129-16.61 4.269-.3-2.171-.45-2.851-1.54-4.75-.24-4.367.35-14.844.4-19.849 11.85-11.831 23.5-29.185 16.22-46.591-3.5-8.364-8.5-6.394-12.87-10.488-3.13-6.052-5.91-13.522-9.33-19.148-29.36-48.22-111.11-49.839-156.3-26.421-19.14 9.916-31.19 24.034-37.99 44.032-.48 1.341-.29.899-1.08 2.16-30.14 7.231-13.1 42.829 2.53 57.039.02 3.496.28 12.344.02 15.468-2.37 10.827-4.86 10.204-15.58 9.996-2.9-1.906-1.67-.59-2.8-4.969z"/><path fill="#fef68f" d="M1151.36 479.012c-5.25-13.346-3.83-27.675-.08-41.208a102.77 102.77 0 0 1 49.1-62.644 109.88 109.88 0 0 1 83.92-9.323 105.52 105.52 0 0 1 63.38 51.087c9.85 18.509 14.69 41.053 8.38 61.465-3.13-6.052-5.91-13.522-9.33-19.148-29.36-48.22-111.11-49.839-156.3-26.421-19.14 9.916-31.19 24.034-37.99 44.032-.48 1.341-.29.899-1.08 2.16"/><path fill="#bec1f5" d="M1203.07 658.688c14.51 13.662 44.67 39.775 47.35 60.771.14 1.13.03 7.919 0 9.413.04 8.583-.19 19.119.5 27.517-17.54.711-39.21.093-57.05.092l-111.48.115c1.84-30.319 14.33-60.663 44.18-73.304 6.47-2.742 21.15-5.479 24.23-10.031l.59 1.001c4.51.084 44.94-13.27 51.68-15.574M1303.39 658.931c7.11 2.28 51.37 16.728 56.24 16.94l.76-.714c2.12 2.901 10.05 5.181 13.85 6.475 35.65 12.131 45.43 40.318 49.73 74.862l-124.29.163c-5.36.003-41.47.39-44.77-.577l.42-3.574c.69-7.588.46-20.029.27-27.973-.53-22.836 30.87-49.889 47.79-65.602"/><path fill="#bec1f5" d="M1219.06 617.274c26.53 7.214 41.22 7.36 67.99.131.26 6.884.6 13.766 1 20.644l1.01 7.617c2.2 7.16 3.79 9.818 11.02 12.638-16.84 15.62-31.65 30.063-44.2 49.696-1.09 3.328-.47 3.401-2.79 5.007-2.34-2.226-1.75-2.303-2.82-5.928-14.43-20.983-25.55-31.966-43.9-48.844 7.08-3.243 8.47-5.248 10.68-12.624l.99-7.689c.15-6.886.61-13.77 1.02-20.648"/><path fill="#bec1f5" d="M1217.05 645.611c11.15.405 22.31.605 33.47.6.01 18.941.67 42.273-.25 60.868-14.43-20.983-25.55-31.966-43.9-48.844 7.08-3.243 8.47-5.248 10.68-12.624"/><path fill="#e6b295" d="M1219.06 617.274c26.53 7.214 41.22 7.36 67.99.131.26 6.884.6 13.766 1 20.644a571 571 0 0 1-70.01-.127c.15-6.886.61-13.77 1.02-20.648"/><path fill="#fef68f" d="M1218.04 637.922a571 571 0 0 0 70.01.127l1.01 7.617c-11.12.378-22.25.537-33.37.478-.01 20.281-.37 41.66.19 61.856-1.09 3.328-.47 3.401-2.79 5.007-2.34-2.226-1.75-2.303-2.82-5.928.92-18.595.26-41.927.25-60.868-11.16.005-22.32-.195-33.47-.6z"/><path fill="url(#c)" d="M1352.31 555.317c1.09 1.899 1.24 2.579 1.54 4.75 5.67 1.86 13.8 1.757 16.61-4.269l.29 3.815-.55-1.707-.28.816.89.441.29 5.278c-.66 32.427-5.98 78.665-10.71 110.716l-.76.714c-4.87-.212-49.13-14.66-56.24-16.94 30.83-30.922 42.91-61.186 48.92-103.614"/><path fill="url(#d)" d="m1134.56 558.763.97-2.217c1.13 4.379-.1 3.063 2.8 4.969 10.72.208 13.21.831 15.58-9.996 5.33 42.583 17.52 76.451 49.16 107.169-6.74 2.304-47.17 15.658-51.68 15.574l-.59-1.001c-6.66-30.372-13.69-82.532-16.24-114.498"/><path fill="url(#e)" d="M1338.69 555.217c4.48.585 5.3 1.515 8.55-.151.3-4.707-.08-6.633 2.64-10.481-.62 40.848-17.78 82.468-47.03 111.144-.9.882-1.82 1.74-2.77 2.575-7.23-2.82-8.82-5.478-11.02-12.638l-1.01-7.617c-.4-6.878-.74-13.76-1-20.644l-.13-13.36a176 176 0 0 0 11.33-5.418c20.27-10.564 33.4-21.269 40.44-43.41"/><path fill="url(#f)" d="M1166.67 552.39c7.5 28.672 27.32 39.976 52.72 51.872-.15 4.074-.47 9.011-.33 13.012-.41 6.878-.87 13.762-1.02 20.648l-.99 7.689c-2.21 7.376-3.6 9.381-10.68 12.624-28.44-28.365-44.51-60.361-48.89-100.542l1.87-2.461c3.49-.555 4.75-.413 7.32-2.842"/><path fill="#fbfbfa" d="M1348.92 518.805c-4.58-4.315-9.11-11.745-5.67-17.861 6.39-4.169 14.38-1.955 18.16 4.545.6 6.474-4.95 10.155-10.41 12.476.96 6.359 1.31 11.079 1.71 17.503-.05 5.005-.64 15.482-.4 19.849-6.01 42.428-18.09 72.692-48.92 103.614-16.92 15.713-48.32 42.766-47.79 65.602.19 7.944.42 20.385-.27 27.973l-.42 3.574-3.99.309c-.69-8.398-.46-18.934-.5-27.517.03-1.494.14-8.283 0-9.413-2.68-20.996-32.84-47.109-47.35-60.771-31.64-30.718-43.83-64.586-49.16-107.169.26-3.124 0-11.972-.02-15.468.19-6.198.41-11.431 1.96-17.485-22.56-11.479-3.48-25.035 6.43-17.079 3.33 5.865-.03 11.885-4.08 16.407-1.08 10.039-3.29 23.739-1.29 33.246.08.992.41 5.896.57 6.553 4.38 40.181 20.45 72.177 48.89 100.542 18.35 16.878 29.47 27.861 43.9 48.844 1.07 3.625.48 3.702 2.82 5.928 2.32-1.606 1.7-1.679 2.79-5.007 12.55-19.633 27.36-34.076 44.2-49.696a70 70 0 0 0 2.77-2.575c29.25-28.676 46.41-70.296 47.03-111.144l.2-7.331c-.51-6.299-.98-12.122-1.16-18.449"/><path fill="#fef68f" d="M1250.42 728.872c.44-3.74-.37-2.393 1.54-5.04 4.13 2.614 3.35 23.747 3.37 28.674l-.42 3.574-3.99.309c-.69-8.398-.46-18.934-.5-27.517"/><path fill="#d7a78a" d="M1219.39 604.262c32.59 11.775 34.22 12.917 67.53-.217l.13 13.36c-26.77 7.229-41.46 7.083-67.99-.131-.14-4.001.18-8.938.33-13.012"/><path fill="#894c21" d="M1338.69 555.217c2.6-10.081 1.27-14.013 11.39-17.963l-.2 7.331c-2.72 3.848-2.34 5.774-2.64 10.481-3.25 1.666-4.07.736-8.55.151M1156.91 551.14c-.15-4.315-.83-7.973 1.18-11.595l1.79-.809c4.82 3.236 5.34 8.12 6.79 13.654-2.57 2.429-3.83 2.287-7.32 2.842l-1.87 2.461c-.16-.657-.49-5.561-.57-6.553"/><path fill="#b96834" d="M1213.52 552.181c25.9-.479 53.2-.037 79.21-.034-3.65 7.944-6.24 11.838-12.24 17.876-2.59 1.936-6.21 4.466-9.14 5.892a42.5 42.5 0 0 1-33.4 1.417c-12.56-4.755-19.37-13.248-24.43-25.151"/><path fill="#fbfbfa" d="M1221.83 557.257c19.29-.728 43.29-.134 62.92-.122-3.22 4.493-4.64 5.984-8.59 9.885-1.46 1.014-2.58 1.756-4.12 2.667a37.14 37.14 0 0 1-28.93 4.093c-9.56-2.598-16.29-8.112-21.28-16.523"/><path fill="#d7a78a" d="M1310.07 514.483c7.74-2.421 15.97 1.88 18.4 9.611s-1.86 15.968-9.59 18.405c-7.74 2.441-15.99-1.86-18.43-9.602-2.43-7.743 1.88-15.99 9.62-18.414M1181.76 514.519a14.685 14.685 0 0 1 18.85 17.216 14.68 14.68 0 0 1-10.08 10.8c-7.7 2.324-15.84-1.987-18.24-9.666-2.41-7.679 1.81-15.863 9.47-18.35"/><path fill="#3c210f" d="M1298.18 475.958c8.13-.029 8.93 1.852 14.89 7.342 1.94.262 3.59.021 5.51-.252l.38.918c-2.9 6.309-6.06 16.241-9.93 20.75-19.35 9.596-29.78-16.841-10.85-28.758M1198.1 475.84c8.81.495 14.79 4.521 15.84 13.882.55 4.717-.94 9.444-4.09 12.998-3.56 3.949-6.32 4.29-11.36 4.659-7.99-3.824-13.35-14.942-15.24-23.291l.77-1.039 4.54.833c3.83-4.225 4.62-5.298 9.54-8.042M227.311 580.23c-20.042-25.884-28.817-78.886-23.358-110.436 6.32-36.518 15.73-69.037 46.744-92.311 32.696-24.536 60.109-26.871 99.368-23.223 27.198 2.527 56.906 22.872 72.551 44.51 24.971 34.536 33.389 78.705 27.005 120.515a155.6 155.6 0 0 1-27.9 68.945c16.656 28.741-10.862 32.415-3.535 44.136 10.005 16.004 10.75 22.554 1.908 40.369 3.477.96 6.419 1.912 10.022 2.305 4.693 1.111 6.492 1.323 10.681 3.511 39.718 15.814 51.52 35.692 56.129 77.889l-209.239.67c-9.77.008-63.571.79-69.614-.508-20.947-.549-42.093.242-63.167-.175 2.711-19.429 6.082-36.362 18.269-52.414a67.93 67.93 0 0 1 44.969-26.419c3.566-.919 6.539-2.054 10.004-3.309 8.944-4.122 20.741-6.581 30.25-9.7 19.98-6.552 33.961-6.245 32.522-31.659-25.064-10.302-50.226-28.723-63.609-52.696"/><path fill="#f8d8ba" d="M325.945 390.457c25.33 28.172 44.756 53.197 76.454 74.807a572 572 0 0 0 6.17 13.389c4.127 4.818 5.181 10.647 7.317 16.837 4.345.177 7.08.835 10.548-1.417 4.162-4.724 1.412-10.816 6.681-14.119 23.478 15.37 5.399 49.389-14.222 59.068l-1.556.782-.942.451c-5.001 19.998-10.472 41.882-31.126 51.65l-1.265.781-2.047 1.494-5.539 3.699-2.033 1.711-5.091 2.743-9.303 4.253.023 11.368c-2.988.211-13.729 2.578-17.588 3.203-19.512 3.156-31.814 1.18-50.483-3.898l.088-10.767c-13.596-5.995-19.641-9.739-31.763-18.418-17.356-15.72-19.117-26.562-24.989-48.432-20.861-7.43-39.989-42.907-16.582-59.819 5.668 4.482 1.381 12.19 9.558 15.042-.001.001 8.517-1.916 7.943-1.563 3.056-1.878 1.825-10.62 5.812-13.395l1.393-1.283c1.571-3.411 3.115-6.73 4.561-10.197 37.246-21.002 51.55-47.066 77.981-77.97"/><path fill="#e6b295" d="M292.031 606.492c28.989 11.528 38.339 13.531 67.96.094l.023 11.368c-2.988.211-13.729 2.578-17.588 3.203-19.512 3.156-31.814 1.18-50.483-3.898z"/><path fill="#894c21" d="M218.697 479.823c5.668 4.482 1.381 12.19 9.558 15.042-.001.001 8.517-1.916 7.943-1.563 3.056-1.878 1.825-10.62 5.812-13.395l1.393-1.283c-7.703 25.385-9.926 34.816.652 60.014-9.448-12.69-24.194-44.156-25.358-58.815M408.569 478.653c4.127 4.818 5.181 10.647 7.317 16.837 4.345.177 7.08.835 10.548-1.417 4.162-4.724 1.412-10.816 6.681-14.119-.497 13.027-15.347 45.43-24.075 56.976 9.209-24.245 6.958-34.106-.471-58.277"/><path fill="#e6b295" d="M254.962 513.978c7.473-.387 13.87 1.141 17.541 8.409a13.6 13.6 0 0 1 .518 11.174c-1.93 4.988-5.345 7.251-9.885 9.465-21.471.408-25.598-18.665-8.174-29.048M383.171 514.457c7.692-2.317 15.816 1.987 18.219 9.652s-1.81 15.836-9.448 18.325a14.66 14.66 0 1 1-8.771-27.977"/><path fill="#3c210f" d="M271.023 475.833c8.475.598 14.324 4.029 15.798 13.094a16.71 16.71 0 0 1-3.344 13.069c-3.419 4.298-6.632 4.965-11.752 5.38-6.794-2.857-14.694-14.771-15.542-21.566 2.28-.71 2.317-.394 4.733-.123 4.27-5.262 3.876-6.448 10.107-9.854M371.245 475.967c4.654.142 5.478-.121 9.403 2.019 2.653 3.666 3.284 4.435 6.55 7.524 1.746.022 3.329.003 5.075-.047-3.097 6.017-6.641 15.258-10.836 19.712-20.292 7.978-28.345-18.054-10.192-29.208"/><path fill="#c6855a" d="M304.365 560.659c3.94 1.18 9.106 6.342 16.307 8.242 13.909 3.67 19.796-6.838 26.22-7.156l.985 2.136c-5.151 4.88-8.008 6.761-15.196 8.099-9.445 1.757-26.852 1.085-28.316-11.321"/><path fill="#92b84e" d="M291.943 617.259c18.669 5.078 30.971 7.054 50.483 3.898 3.859-.625 14.6-2.992 17.588-3.203-.039 16.352-1.651 39.436 15.352 48.29-2.823 9.064-3.182 13.094 1.124 21.806-7.94 12.662-7.475 16.594-3.997 31.84l.276 1.191c-.723 11.759-2.46 17.149-11.018 25.991 9.836 2.233 13.156 2.636 23.686 1.748 23.552-7.884 33.77-24.566 30.367-49.023 7.643-7.329 10.827-15.113 14.312-24.757 4.693 1.111 6.492 1.323 10.681 3.511 39.718 15.814 51.52 35.692 56.129 77.889l-209.239.67c-9.77.008-63.571.79-69.614-.508-20.947-.549-42.093.242-63.167-.175 2.711-19.429 6.082-36.362 18.269-52.414a67.93 67.93 0 0 1 44.969-26.419c3.566-.919 6.539-2.054 10.004-3.309 8.944-4.122 20.741-6.581 30.25-9.7 19.98-6.552 33.961-6.245 32.522-31.659.976-4.903.887-10.602 1.023-15.667"/><path fill="#f8d8ba" d="M291.943 617.259c18.669 5.078 30.971 7.054 50.483 3.898 3.859-.625 14.6-2.992 17.588-3.203-.039 16.352-1.651 39.436 15.352 48.29-2.823 9.064-3.182 13.094 1.124 21.806-7.94 12.662-7.475 16.594-3.997 31.84l.276 1.191c-28.827 11.234-81.325 5.597-109.184-7.109-18.456-8.417-28.775-20.84-35.437-39.687 8.944-4.122 20.741-6.581 30.25-9.7 19.98-6.552 33.961-6.245 32.522-31.659.976-4.903.887-10.602 1.023-15.667M154.906 756.427c2.711-19.429 6.082-36.362 18.269-52.414a67.93 67.93 0 0 1 44.969-26.419 5268 5268 0 0 0-.071 79.008c-20.947-.549-42.093.242-63.167-.175"/><path fill="#f8d8ba" d="M440.797 678.551c39.718 15.814 51.52 35.692 56.129 77.889l-209.239.67c-9.77.008-63.571.79-69.614-.508 14.827-1.462 55.575-.31 72.276-.309l150.465-.035z"/><path fill="#894c21" d="m384.004 592.686 1.265-.781c.352 9.611-.805 54.894 1.698 59.821l1.677.559 1.477-.897c2.09-1.252 1.234-.781 3.39-1.811-.065 5.344 1.249 27.926-1.125 31.7-1.407 2.236-11.493 1.725-11.34 7.568.244 9.358-1.112 52.791.284 58.796l4.107 1.179c-10.53.888-13.85.485-23.686-1.748 8.558-8.842 10.295-14.232 11.018-25.991l-.276-1.191c-3.478-15.246-3.943-19.178 3.997-31.84-4.306-8.712-3.947-12.742-1.124-21.806-17.003-8.854-15.391-31.938-15.352-48.29l-.023-11.368 9.303-4.253 5.091-2.743 2.033-1.711 5.539-3.699z"/><path fill="url(#g)" d="m376.418 597.879 5.539-3.699-2.725 4.988c2.222 2.105 1.605 4.576 1.553 7.309.242 13.099.044 30.21 1.25 42.866.65 11.386-.325 8.278-6.669 16.901-17.003-8.854-15.391-31.938-15.352-48.29l-.023-11.368 9.303-4.253 5.091-2.743z"/><path fill="#562e12" d="m376.418 597.879 5.539-3.699-2.725 4.988c2.222 2.105 1.605 4.576 1.553 7.309l-.146 1.318c-1.432 14.065.449 31.176-1.744 43.99l-.564.142c-1.381-8.547-.283-19.504-1.486-25.236.142-8.189.779-21.09-.427-28.812"/><path fill="#894c21" d="m374.385 599.59 2.033-1.711c1.206 7.722.569 20.623.427 28.812-1.812 8.192-.309 19.239-1.508 28.783-2.722-15.916-2.159-39.563-.952-55.884M359.991 606.586l9.303-4.253c-1.739 5.833-3.357 10.396-7.125 15.239l-2.155.382z"/><path fill="#3c210f" d="m381.957 594.18 2.047-1.494c.014 8.171-.023 50.409-1.969 56.657-1.206-12.656-1.008-29.767-1.25-42.866.052-2.733.669-5.204-1.553-7.309z"/><path fill="url(#h)" d="M227.311 580.23c7.197 3.405 12.498 17.196 19.685 20.469l1.636-.506-.5-.69c-6.415-9.027-2.292-8.865-12.802-15.152l.586-.743c7.419-.023 16.927 7.563 25.603 9.02l.515-1.237-1.766-3.317c12.122 8.679 18.167 12.423 31.763 18.418l-.088 10.767c-.136 5.065-.047 10.764-1.023 15.667-25.064-10.302-50.226-28.723-63.609-52.696"/><path fill="#f8d8ba" d="M406.154 686.23c6.347-4.482 9.178-7.693 13.94-13.495 3.477.96 6.419 1.912 10.022 2.305-3.485 9.644-6.669 17.428-14.312 24.757-2.845-6.939-3.975-8.641-9.65-13.567M294.847 905.193c33.845-40.531 92.938-21.384 125.385 10.991 11.584 11.558 17.539 25.079 21.218 40.816 3.797 30.45 4.765 44.45-8.956 73.54 32.488 8.7 12.18 53.08-13.424 61.53-10.021 37.67-20.247 47.35-56.102 63.73l.304 13.11c.305 7.63.6 32.63 5.528 35.94 10.736 7.21 50.63 18.88 62.754 21.81 14.449 5.43 25.911 6.64 39.127 17.15 21.586 17.16 26.397 38.5 29.558 64.24H158.634c1.837-22.4 7.327-42.38 23.379-58.82 13.613-13.95 30.078-17.89 48.02-23.72 11.193-2.61 52.553-13.95 59.066-20.9 9.316-9.93 5.966-35.74 5.947-49.02-36.521-17.77-45.042-25.19-55.768-64.15-17.751-8.79-35.955-36.64-21.288-55.37 3.051-3.9 9.405-3.39 11.872-7.91-6.029-19.43-17.206-47.518-11.194-66.974 10.22-33.071 37.603-67.695 76.179-55.993"/><path fill="url(#i)" d="M294.847 905.193c33.845-40.531 92.938-21.384 125.385 10.991 11.584 11.558 17.539 25.079 21.218 40.816l-2.649-1.068c-9.574 5.138-44.161 27.647-48.917 35.372-.389 2.756-.419 2.183-.231 4.948-9.137-5.94-18.943-11.997-27.425-18.757 3.64 9.188 6.431 14.611 12.018 22.935-37.123-1.099-64.824-13.997-83.101-47.447-10.691 8.979-17.244 11.01-28.745 17.819-27.408 16.226-25.566 61.758-20.176 88.068a217 217 0 0 1-12.362-30.71c-6.029-19.43-17.206-47.518-11.194-66.974 10.22-33.071 37.603-67.695 76.179-55.993"/><path fill="#588192" d="M230.033 1225.51c13.914 45.61 51.985 38.2 84.494 61.47 6.317 4.52 11.389 9.71 16.361 15.64 36.039-44.1 82.171-22.92 100.666-75.96 14.449 5.43 25.911 6.64 39.127 17.15 21.586 17.16 26.397 38.5 29.558 64.24H158.634c1.837-22.4 7.327-42.38 23.379-58.82 13.613-13.95 30.078-17.89 48.02-23.72"/><path fill="#f84833" d="M389.653 996.252c-.188-2.765-.158-2.192.231-4.948 4.756-7.725 39.343-30.234 48.917-35.372L441.45 957c3.797 30.45 4.765 44.45-8.956 73.54-4.956 10.02-10.316 19.8-16.832 28.89 4.062-18.99 6.397-34.58 3.939-53.9-2.243 10.88-3.145 15.26-6.816 25.97q-.117-1.065-.265-2.13c-2.292-16.12-10.769-23.94-22.867-33.118"/><path fill="#e6b295" d="M296.027 1155.93c33.079 13.13 35.008 11.7 66.941-.13l.304 13.11c-23.021 7.78-44.275 6.61-67.248.21z"/><path fill="#e47e79" d="m302.253 1107.56 57.278.09c-2.863 5.77-3.85 7.1-7.665 12.05-19.229 14.44-39.379 9.8-49.613-12.14"/><path fill="#fbfbfa" d="m308.035 1111.13 45.77.04-6.399 7.3c-14.811 10.16-28.932 6.54-39.371-7.34"/><path fill="#d7a78a" d="M389.375 1066.52c7.52-3.08 16.107.54 19.169 8.06 3.062 7.53-.564 16.11-8.093 19.16-7.513 3.04-16.071-.58-19.126-8.08-3.055-7.51.547-16.07 8.05-19.14M265.303 1065.5c8.004-.79 15.153 5.01 16.029 13.01.876 7.99-4.846 15.2-12.832 16.17a14.678 14.678 0 1 1-3.197-29.18"/><path fill="#3c210f" d="M378.021 1027.01c13.115-.22 11.62 9.22 20.826 9.61-2.905 5.96-6.275 14.87-10.406 19.43-3.118 1.24-5.423 2.29-8.829 1.83a12.55 12.55 0 0 1-8.963-5.62c-6.223-9.58-1.68-19.68 7.372-25.25M277.081 1027.06c3.678-.01 6.274-.13 9.47 1.85a15.32 15.32 0 0 1 6.858 9.66c2.476 10.79-3.951 17.85-13.999 20.18-7.033-2.94-17.351-16.02-16.32-22.55 2.962.64 2.856.85 5.641-.18 3.028-4.92 3.48-5.98 8.35-8.96"/><path fill="url(#j)" d="M1201.46 1466.59c7.78-49.84 62.27-74.63 92.94-28.02a69.1 69.1 0 0 1 10.31 26.29c57.14 28.93 87.46 91.49 63.75 152.95 7.17 21.45-4.61 44.14-25.36 52.09-8.15 29.87-12.02 39.31-40.32 56.85-3.68 2.28-13.55 6.1-15.91 8.12l.13 12.41c-10.12 4.2-22.07 5.02-32.92 5.63-3.42.19-12.09-.94-13.38 1.87-.48-1.98-.74-10.83-.87-13.38-10.25-3.44-22.51-8-32.21-12.77-5.45-2.68-12.13-8.21-17.67-11.05l-1.56-.78c-17.57-16.5-18.86-23.16-25.03-45.91-1.21-.54-2.4-1.1-3.58-1.69-20.78-10.46-30.45-34.71-19.46-55.98-8.86-14.83-7.1-50.78-2.83-67.72a120.84 120.84 0 0 1 56.1-74.5c2.58-1.55 5.2-3.02 7.87-4.41"/><path fill="#d7a78a" d="M1160.01 1581.71c53.37 13.39 132.52 14.3 185.91-.02.09 11.44-.1 24.07.92 35.37-.03 3.51 0 7.02.1 10.54l11.24-.16c1.89-5.04 3.61-10.47 5.33-15.59l4.95 5.96c7.17 21.45-4.61 44.14-25.36 52.09-8.15 29.87-12.02 39.31-40.32 56.85-3.68 2.28-13.55 6.1-15.91 8.12l.13 12.41c-10.12 4.2-22.07 5.02-32.92 5.63-3.42.19-12.09-.94-13.38 1.87-.48-1.98-.74-10.83-.87-13.38-10.25-3.44-22.51-8-32.21-12.77-5.45-2.68-12.13-8.21-17.67-11.05l-1.56-.78c-17.57-16.5-18.86-23.16-25.03-45.91-1.21-.54-2.4-1.1-3.58-1.69-20.78-10.46-30.45-34.71-19.46-55.98l2.15.33c3.07 5.5 3.6 10.09 6.16 14.87l10.58-.56c.59-15.38.85-30.76.8-46.15"/><path fill="#c6855a" d="M1239.83 1741.4c19.96 7.74 28.63-2.75 45.57-6.24l1.47-.29.13 12.41c-10.12 4.2-22.07 5.02-32.92 5.63-3.42.19-12.09-.94-13.38 1.87-.48-1.98-.74-10.83-.87-13.38"/><path fill="#894c21" d="m1346.94 1627.6 11.24-.16c-4.17 7.06-7.33 13.07-11.02 20.42a913 913 0 0 1-.22-20.26M1148.63 1628.42l10.58-.56-.15 20.13c-3.4-6.57-6.88-13.09-10.43-19.57"/><path fill="#b96834" d="M1214.2 1682.5c25.81-.05 53-.49 78.7.15-3.98 7.85-6.12 11.17-12.06 17.24-16.22 13.13-36.97 13.7-54.15 1.61-5.17-3.64-11.54-12.63-12.49-19"/><path fill="#fbfbfa" d="M1222.51 1687.48c20.53-.22 41.58.01 62.14.03-2.87 4.13-4.88 6.08-8.38 9.63-12.93 9.65-29.73 10.54-43.93 2.37-3.61-2.08-8.93-7.95-9.83-12.03"/><path fill="#e47e79" d="M1311.14 1644.44c7.75-1.8 15.53 2.91 17.52 10.62 2 7.71-2.52 15.61-10.18 17.79a14.64 14.64 0 0 1-14.41-3.74 14.672 14.672 0 0 1 7.07-24.67M1183.14 1644.4c7.69-1.68 15.34 3.03 17.31 10.65 1.97 7.63-2.44 15.45-9.98 17.71-5.15 1.55-10.73.15-14.54-3.63a14.68 14.68 0 0 1-3.75-14.51c1.5-5.16 5.71-9.08 10.96-10.22"/><path fill="#3c210f" d="M1299.16 1605.98c1.52.13 3.02.37 4.51.69 13.91 3.15 15.12 22.83.58 30.81-19.86-1.09-21.79-22.61-5.09-31.5M1199.27 1605.9c17.99 2.47 19.89 22.53 4.34 31.68-19.63-.92-22.26-23.61-4.34-31.68"/><path fill="#894c21" d="M1160.01 1581.71c.84-.45 1.67-.91 2.5-1.36 15.89 3.45 32.15 6.91 48.51 6.18 3.2-.14 3.98-3.43 9.3-2.97-1.08 1.92-.36 1.01-2.29 2.6 4.05.4 32.6-2.29 36.81-3.09-2.64-2.03-8.55-2.4-12.15-2.93 4.09-2.28 12.32-.78 15.53 3.49l-.55 1.36c-5.46 1.27-10.2 1.07-15.8 1.16 7.1 1.52 54.07-.21 65.09.45 2.95.17 14.36-2.44 17.83-2.74 4.9-.42 17.98-4.83 21.13-2.17-53.39 14.32-132.54 13.41-185.91.02"/><path fill="#3c210f" d="M1346.84 1617.06c.79-5.31-.02-14.26.49-20.82.33.53 1.2 14.53 2.11 18.93 4.97-.42 4.31-.54 8.71 1.9 3.04-.49.92-1.57 4.38-5.9l2.57.21-1.59.47c-1.72 5.12-3.44 10.55-5.33 15.59l-11.24.16c-.1-3.52-.13-7.03-.1-10.54"/><path fill="#f8d8ba" d="M216.091 1608.65c-3.383-19.4-2.811-44.04 2.935-62.95a116.73 116.73 0 0 1 57.357-68.9c38.319-20.44 100.231-27.68 124.048 17.65q3.573 1.845 7.062 3.84c23.384 13.57 32.431 44.81 34.521 69.9.59 7.08 1.554 31.7-1.546 36.87 6.969 12.57 8.472 18.42 5.116 33.16-1.89 8.3-13.065 23.9-14.109 28.07-5.229 26.59-9.037 52.31 13.088 72.73-18.956.45-26.859-1.21-42.456-12.82l1.963 26.31c-6.604-2.69-21.979-10.46-27.893-9.26-1.735 2.34-1.596 2.25-2.379 5.09-.252 1.67-.739 4.22-.751 5.82-27.634 19.63-60.384 19.23-87.988.18l-.525-1.05-4.02-11.89c-8.94 3.78-18.621 7.4-27.693 10.98.61-8.65 1.121-17.31 1.533-25.97-15.132 11.4-23.621 13.12-41.949 12.57 23.056-22 17.833-49.22 12.089-77.27-10.867-18.68-18.605-31.85-8.403-53.06"/><path fill="url(#k)" d="M216.091 1608.65c-3.383-19.4-2.811-44.04 2.935-62.95a116.73 116.73 0 0 1 57.357-68.9c38.319-20.44 100.231-27.68 124.048 17.65q3.573 1.845 7.062 3.84c23.384 13.57 32.431 44.81 34.521 69.9.59 7.08 1.554 31.7-1.546 36.87l-2.355.57c-2.588 4.77-4.144 11.24-6.201 16.54a149.5 149.5 0 0 1-14.122 27.95c.028-45.25-8.454-68.62-34.708-105.09-22.044 19.1-49.104 34.38-75.738 46.28 7.771-21.08 8.926-31.54 19.767-52.04-8.249 8.52-15.294 15.95-24.95 23.03-10.851 7.96-22.739 14.53-33.054 23.06 1.637-18.18 3.134-26.62 10.253-43.44-27.061 31.7-35.6 67.45-32.865 108.93-7.22-12.93-12.392-25.2-16.424-39.47-1.06-3.75-1.019-6.99-4.402-8.07-4.415.92-6.067 2.33-9.578 5.34"/><path fill="#443e44" d="M224.494 1661.71c5.125 4.44 8.01 7.03 13.758 10.65 11.423 39.15 13.671 38.99 47.467 64.47-.069 5.87.077 10.67-1.185 16.46l-4.02-11.89c-8.94 3.78-18.621 7.4-27.693 10.98.61-8.65 1.121-17.31 1.533-25.97-15.132 11.4-23.621 13.12-41.949 12.57 23.056-22 17.833-49.22 12.089-77.27M418.502 1672.1c4.348-1.73 7.508-3.81 11.499-6.21l1.474.4c-5.229 26.59-9.037 52.31 13.088 72.73-18.956.45-26.859-1.21-42.456-12.82l1.963 26.31c-6.604-2.69-21.979-10.46-27.893-9.26-1.735 2.34-1.596 2.25-2.379 5.09-1.022-4.5-.83-8.43-.886-13.05 29.65-19.99 36.841-29.69 45.59-63.19"/><path fill="#e6b295" d="M372.912 1735.29c.056 4.62-.136 8.55.886 13.05-.252 1.67-.739 4.22-.751 5.82-27.634 19.63-60.384 19.23-87.988.18l-.525-1.05c1.262-5.79 1.116-10.59 1.185-16.46 36.68 23.47 51.039 24.09 87.193-1.54"/><path fill="#3c210f" d="M374.763 1602.22c1.386-.1 2.775-.17 4.164-.2 19.257-.33 17.86 16.57 4.111 26.33-2.394.11-4.421.26-6.792-.21a14.44 14.44 0 0 1-9.444-6.59c-5.064-8.4.977-15.16 7.961-19.33M273.752 1602.13c19.707-.89 27.544 14.99 10.287 26.07-18.039 1.12-27.232-19.31-10.287-26.07"/><path fill="#c6855a" d="M301.314 1684.49c1.599.76 2.772 1.28 4.243 2.58 9.738 8.61 21.392 10.81 33.735 7.68 3.868-.98 11.433-8.91 16.026-8.66l1.26 2.78c-.554.56-1.118 1.12-1.691 1.66-13.996 13.21-55.473 13.87-53.573-6.04"/><path fill="#f8d8ba" d="M1647.07 1497.58c4.18-2.86 9.07-6.09 12.78-9.51 22.39-20.65 59.96-18.97 66.6-54.51l.28-1.56c22.64 12.53 61.11 42.43 64.14 70.16 1.37 5.87 8.91 10.25 12.38 15.95 14.56 23.95 14.02 49.93 13.59 76.62-1.52 13.19-3.63 29.42-6.33 42.29-1.2 11.54-2.4 22.15-4.12 33.64a901 901 0 0 1-7.95 39.22c10.42 13.79 5.92 14.74-.14 27.14-2.19 4.48 4.49 23.31-6.23 26.24-15.36 4.21-7.32 8.06-16.46 16.79l-.76.74c-3.67 1.19-13.17 2.07-13.09 2.03-3.94 1.7-3.98 11.21-11.36 13.74-7.81 2.66-9.93-.46-17.18-2.94-2.41-.82-4.79 1.49-7 2.79-3.01 1.77-4.85 3.4-8.7 3.3-6.11-.14-10.59-5.08-14.71-9.2-4.85-.09-7.81 6.72-14.92 7.21-14.42.99-14.93-13.63-19.31-17.24-5.27.29-6.34.32-11.49-.73-.85-.52-1.69-1.05-2.53-1.59-3.87-2.55-5.92-4.35-6.37-9.13-1.17-12.65-10.52-7.41-16.58-14.49-8.61-10.06.57-15.81.59-23.17-11.17-14.29-.7-10.92-2.72-21.69-2.41-12.85-5.58-26.34-7.92-39.42-1.78-11.58-2.97-22.46-4.21-34.1-2.8-12.79-4.49-27.36-5.98-40.36-3.72-32.81 2.49-81.47 35.7-98.22"/><path fill="url(#l)" d="M1621.48 1634.88c2.8 10.76 17.78 66.28 29.21 64.68 9.2-7.08 12.11-18.95 24.42-24.02 14.34-5.91 26.5-2.81 39.83 3.84-8.84.78-19.94 1.38-26.04 8.95-8.75 11.27-7.86 23.02 2.8 31.1 11.83 8.96 44.93 8.07 50.98-6.38 10.35-24.71-13.6-32.38-29.73-33.8 49.89-23.07 53.31 18.79 66.89 20.67 9.47-5.12 22.29-49.6 25.83-61.54q.63-2.19 1.2-4.41c.26 2.28.19 5.28 1.3 6.85l1.46-3.53.88-.27c-1.2 11.54-2.4 22.15-4.12 33.64a901 901 0 0 1-7.95 39.22c10.42 13.79 5.92 14.74-.14 27.14-2.19 4.48 4.49 23.31-6.23 26.24-15.36 4.21-7.32 8.06-16.46 16.79l-.76.74c-3.67 1.19-13.17 2.07-13.09 2.03-3.94 1.7-3.98 11.21-11.36 13.74-7.81 2.66-9.93-.46-17.18-2.94-2.41-.82-4.79 1.49-7 2.79-3.01 1.77-4.85 3.4-8.7 3.3-6.11-.14-10.59-5.08-14.71-9.2-4.85-.09-7.81 6.72-14.92 7.21-14.42.99-14.93-13.63-19.31-17.24-5.27.29-6.34.32-11.49-.73-.85-.52-1.69-1.05-2.53-1.59-3.87-2.55-5.92-4.35-6.37-9.13-1.17-12.65-10.52-7.41-16.58-14.49-8.61-10.06.57-15.81.59-23.17-11.17-14.29-.7-10.92-2.72-21.69-2.41-12.85-5.58-26.34-7.92-39.42-1.78-11.58-2.97-22.46-4.21-34.1z"/><path fill="url(#m)" d="M1647.07 1497.58c4.18-2.86 9.07-6.09 12.78-9.51 22.39-20.65 59.96-18.97 66.6-54.51l.28-1.56c22.64 12.53 61.11 42.43 64.14 70.16 1.37 5.87 8.91 10.25 12.38 15.95 14.56 23.95 14.02 49.93 13.59 76.62-1.52 13.19-3.63 29.42-6.33 42.29l-.88.27-1.46 3.53c-1.11-1.57-1.04-4.57-1.3-6.85-1.07-2.8-1.92-29.66-2.14-34.47-1.04-22.65-5.23-38.18-14.39-58.82-30.23-21.72-118.36-26.18-149.5-2.04-17.33 13.44-18.3 73.32-19.36 96.24l-4.13 1.28c-2.8-12.79-4.49-27.36-5.98-40.36-3.72-32.81 2.49-81.47 35.7-98.22"/><path fill="url(#n)" d="M1647.07 1497.58c4.18-2.86 9.07-6.09 12.78-9.51 22.39-20.65 59.96-18.97 66.6-54.51l.28-1.56c22.64 12.53 61.11 42.43 64.14 70.16-1.88-1.64-2.43-3.91-3.56-6.24-19.83.5-40.63-1.28-60.45-.46-24.94 1.03-55.78-2.27-79.79 2.12"/><path fill="#3c210f" d="M1661.33 1598.79c17.68 3.54 18.72 23.33 3.46 31.88-19.3-2.86-19.8-24.21-3.46-31.88M1761.26 1598.8c17.91 2.56 19.55 22.49 5.11 31.56-19.72-.81-20.86-22.58-5.11-31.56"/><path fill="#c6855a" d="M1693.12 1689.72c8.54 6.83 20.8 13.15 31.55 6.83 2.99-1.77 5.97-3.57 8.94-5.39l1.49.48.46 2.24c-11.43 11.49-44.75 11.4-42.44-4.16"/><path fill="#f8d8ba" d="M1733.76 315.617c18.8 8.123 30.77 17.852 41.37 35.603 3.16 5.29 5.42 10.781 9.06 15.758 18.14 13.49 27.31 26.373 30.84 49.395 2.07 13.568 1.13 40.168-.46 53.983l.93 2.051c33.77 7.806 13.89 56.546-10.37 69.526l-1.27.669c-10.64 38.801-14.96 38.902-45.29 62.741.87 19.06-4.35 38.864 16.95 46.435q2.925 1.064 5.85 2.084c-47.59 16.431-85.98 15.968-133.4-.109 20.64-6.564 20.89-8.433 23-29.872l.15-17.182c-31.21-27.268-35.71-20.713-47.24-65.483-24.4-12.707-43.04-63.993-8.46-68.707-2.57-18.09-2.16-49.356 2.08-67.114l2.09-5.883 4.05-9.053c2.35-4.296 3.92-6.387 7.39-9.736 1.63-1.93 3.13-3.317 4.93-5.077 20.69-22.138 47.07-22.863 73.49-29.012 11.06-2.572 19.94-20.434 24.31-31.017"/><path fill="url(#o)" d="M1733.76 315.617c18.8 8.123 30.77 17.852 41.37 35.603 3.16 5.29 5.42 10.781 9.06 15.758l.29 7.185a52.4 52.4 0 0 1-4.46 23.969l-.67-.047-.58-.987c.72-2.104 1.35-4.003 1.98-6.142-19.57-2.943-107.09 10.338-116.78 6.814l-.83-2.71c1.74-4.575 3.36-8.24 5.37-12.668-8.66 1.481-39.07 8.617-44.87 8.067 2.35-4.296 3.92-6.387 7.39-9.736 1.63-1.93 3.13-3.317 4.93-5.077 20.69-22.138 47.07-22.863 73.49-29.012 11.06-2.572 19.94-20.434 24.31-31.017"/><path fill="#fef68f" d="m1635.96 375.646 1.04-.051c6.43-.36 13.58-1.917 20.81-2.492-2.88 2.489-7.62 2.242-11.89 4.358 7.94 3.357 16.74-4.622 23.91-.383.93 3.59 1.16 2.002-.03 4.967l-1.29.347c-8.66 1.481-39.07 8.617-44.87 8.067 2.35-4.296 3.92-6.387 7.39-9.736 1.63-1.93 3.13-3.317 4.93-5.077"/><path fill="#e3da53" d="M1623.64 390.459c5.8.55 36.21-6.586 44.87-8.067-2.01 4.428-3.63 8.093-5.37 12.668l.83 2.71c9.69 3.524 97.21-9.757 116.78-6.814-.63 2.139-1.26 4.038-1.98 6.142l.58.987.67.047c-2.41 7.229-7.15 10.013-8.55 16.853l-.74.092.3 1.402c-34.06 13.225-69.68 12.181-104.19 2.233-1.55-2.781-3.94-6.006-5.79-8.674l-.18-13.133c-10.75 2.289-22.04 3.983-32.93 6.664-4.57 1.126-3.67-.407-10.44 1.826l2.09-5.883z"/><path fill="#fed05b" d="M1784.19 366.978c18.14 13.49 27.31 26.373 30.84 49.395 2.07 13.568 1.13 40.168-.46 53.983.49-.934-4.83 23.228-5.21 24.746-2.48-13.026-2.64-25.558-4.17-38.634-1.88-16.134-7.04-31.504-13.11-46.477-7.99 2.906-12.83 4.54-21.05 6.488l-.3-1.402.74-.092c1.4-6.84 6.14-9.624 8.55-16.853a52.4 52.4 0 0 0 4.46-23.969zM1617.5 405.395c6.77-2.233 5.87-.7 10.44-1.826 10.89-2.681 22.18-4.375 32.93-6.664l.18 13.133c1.85 2.668 4.24 5.893 5.79 8.674-10.58-2.727-18.51-5.144-28.81-8.584-15.46 38.688-11.85 45.766-16.72 84.609-2.93-8.254-3.57-14.921-5.89-22.228-2.57-18.09-2.16-49.356 2.08-67.114"/><path fill="#e6b295" d="m1757.75 605.664.63 18.468c-18.39 11.057-39.5 18.5-60.73 12.51-9.08-2.561-19.53-6.504-26.68-12.761l.15-17.182c36.15 22.118 50.27 24.828 86.63-1.035"/><path fill="#fbfbfa" d="m1688.47 558.059 52.95-.033c-3.2 4.889-4.53 6.437-8.55 10.714-17.27 12.982-33.52 5.666-44.4-10.681"/><path fill="#3c210f" d="M1658.93 470.878c18.33-.512 22.2 18.395 7.17 28.271-18.27.346-21.82-18.346-7.17-28.271M1758.97 471.004c18.6-1.098 22.66 17.286 8.61 27.858-18.7 1.593-22.5-16.94-8.61-27.858"/><path fill="#c6855a" d="M803.989 299.816c24.21 13.426 43.626 28.833 57.493 53.385 4.761 7.399 5.887 11.054 7.344 19.75 23.474 23.959 25.308 45.667 25.317 78.536.002 6.655-.252 14.518-1.418 21.081 31.456 6.186 13.534 58.723-11.462 68.388l-.754.28c-1.253 4.303-5.433 17.803-5.941 21.835-7.766 20.498-22.071 29.917-39.699 42.696-37.545 26.13-51.135 23.055-87.81-.178-16.663-10.81-31.828-22.9-39.428-41.397-3.467-6.628-5.568-15.399-7.539-22.659-22.781-12.456-42.796-59.082-10.493-69.374-5.206-34.487-1.753-81.704 29.284-103.291 5.911-4.111 11.744-7.765 17.476-12.173 20.976-23.028 59.63-16.113 67.63-56.879"/><path fill="url(#p)" d="M803.989 299.816c24.21 13.426 43.626 28.833 57.493 53.385 4.761 7.399 5.887 11.054 7.344 19.75 23.474 23.959 25.308 45.667 25.317 78.536.002 6.655-.252 14.518-1.418 21.081-1.349 10.549-3.826 32.474-8.131 41.345-.683-11.08-1.166-24.115-2.222-35.016 5.303-4.423 7.548-10.638 5.941-17.345-2.571-2.592-2.608-1.829-7.05-2.634-24.571-4.822-55.742-8.039-77.394 6.295-1.325 2.865-2.423 5.958-3.552 8.922l-17.712-.001c-10.349-27.542-58.84-18.633-81.748-15.233-4.864 1.093-4.54.184-7.141 3.201-1.65 7.917 5.704 13.749 6.289 18.403l-2.564 34.83c-4.049-15.287-5.838-27.548-7.842-43.176-5.206-34.487-1.753-81.704 29.284-103.291 5.911-4.111 11.744-7.765 17.476-12.173 20.976-23.028 59.63-16.113 67.63-56.879"/><path fill="#c6855a" d="M717.185 406.51c34.997-22.349 113.206-21.521 148.112.414 6.739 14.745 14.746 35.646 15.966 51.994-24.571-4.822-55.742-8.039-77.394 6.295-1.325 2.865-2.423 5.958-3.552 8.922l-17.712-.001c-10.349-27.542-58.84-18.633-81.748-15.233 3.316-19.345 7.908-34.494 16.328-52.391"/><path fill="url(#q)" d="M803.989 299.816c24.21 13.426 43.626 28.833 57.493 53.385-2.706-1.73-3.397-2.077-5.184-4.904-7.156-2.046-90.884-.929-104.238-.768-3.677 2.53-11.907 9.109-15.701 9.166 20.976-23.028 59.63-16.113 67.63-56.879"/><path fill="#88b6b8" d="M700.857 458.901c22.908-3.4 71.399-12.309 81.748 15.233l17.712.001c1.129-2.964 2.227-6.057 3.552-8.922 21.652-14.334 52.823-11.117 77.394-6.295 4.442.805 4.479.042 7.05 2.634 1.607 6.707-.638 12.922-5.941 17.345-2.012 14.375-3.103 29.71-15.842 39.091-10.003 7.367-24.224 9.5-36.289 7.501-8.638-1.431-18.002-5.667-23.294-12.919-4.954-6.787-6.104-30.015-13.483-31.641-2.452-.54-5.178-.285-7.225 1.319-8.486 6.651 2.64 43.808-42.733 43.981-11.692.044-23.476-3.823-31.703-12.351-10.121-10.491-7.14-21.34-11.798-33.373-.585-4.654-7.939-10.486-6.289-18.403 2.601-3.017 2.277-2.108 7.141-3.201"/><path fill="#c6855a" d="M727.551 463.348c24.904-1.428 58.738-.48 47.193 36.355-3.234 10.318-8.655 15.253-18.243 19.768a58 58 0 0 1-4.071.919c-24.802 4.468-42.581-7.673-45.313-33.125-1.699-15.824 5.605-22.813 20.434-23.917"/><path fill="#3c210f" d="M734.91 470.93c18.989-.622 22.418 18.955 7.342 28.256-18.076.232-21.541-18.055-7.342-28.256"/><path fill="#c6855a" d="M837.397 463.418c14.9-1.629 28.707-2.33 37.624 11.004.912 22.442-3.258 41.292-27.961 46.626-11.338.275-20.298.459-29.918-7.182-11.632-9.238-16.157-29.654-5.946-41.529 6.761-7.863 16.582-8.228 26.201-8.919"/><path fill="#3c210f" d="M835.143 471.08c18.811-1.345 22.69 17.177 8.746 27.848-18.772 1.201-22.668-17.128-8.746-27.848M707.631 564.192l.264-.204c3.883.361 58.654 68.397 82.921 18.179 2.089 3.477 4.336 6.968 7.199 9.871a26.52 26.52 0 0 0 18.85 7.903c22.92.007 43.017-22.143 57.703-36.87-7.766 20.498-22.071 29.917-39.699 42.696-37.545 26.13-51.135 23.055-87.81-.178-16.663-10.81-31.828-22.9-39.428-41.397"/><path fill="#fbfbfa" d="M758.825 552.167q32.384-.223 64.767.119c-3.617 6.634-4.793 8.556-9.695 14.264-21.735 17.752-42.996 8.826-55.072-14.383"/><path fill="#d7a78a" d="M1590.8 1018.16c.89-35.687 18.14-72.504 43.02-97.818 20.74-21.105 63.96-32.651 92.72-32.09 27.53.538 47.95 14.32 58.06 39.963 39.55 4.604 46.93 64.333 43.06 95.485-.18 1.49-.39 2.97-.61 4.46 13.01 21.38.33 57.11-22.88 64.32-7.42 27.57-10.4 36.97-34.44 55.5-2.72 2.1-10.01 7.05-11.5 9.67-7.12 2.62-14.46 8.48-21.28 12.15-12.38 6.66-28.71 7.32-41.63 1.85-5.81-2.43-19.8-12.52-24.1-12.77-1.87-4.65-27.94-19.66-34.98-32.73-7.59-14.1-8.07-17.46-12.39-33.43-20.9-11.71-39.53-49.75-17.03-67.41-.63-8.72-1.04-16.15-1.12-24.87-6.06 6.53-9.66 10.58-14.9 17.72"/><path fill="url(#r)" d="M1590.8 1018.16c.89-35.687 18.14-72.504 43.02-97.818 20.74-21.105 63.96-32.651 92.72-32.09 27.53.538 47.95 14.32 58.06 39.963 39.55 4.604 46.93 64.333 43.06 95.485-.18 1.49-.39 2.97-.61 4.46-3.76 21.38-9.41 35.63-21.21 53.67-.02-32.09-4.59-57.37-22-85.21-8.01-12.807-14.47-20.552-20.87-34.441-11.05 29.307-34.79 48.781-62.68 61.521 6.91-16.02 8.08-28.936 16.9-46.473-7.9 8.36-15.14 15.792-24.46 22.633-9.73 7.14-21.7 13.63-30.73 21.4-6.51 3.68-8.31 6.38-12.32 12.74-3.82 3.71-9.98 13.51-12.93 18.08-1.88-6.63-3.18-15.6-4.4-22.59-4.54 18.77-6.88 34.5-5.55 53.85-11.9-21.78-15.99-33.68-19.98-58.03-.63-8.72-1.04-16.15-1.12-24.87-6.06 6.53-9.66 10.58-14.9 17.72"/><path fill="#3c210f" d="M1662 1021.26c35.47 10.3-8.84 51.94-12.32 12.74 4.01-6.36 5.81-9.06 12.32-12.74"/><path fill="#fbfbfa" d="M1683.57 1104.49c20.94-.15 41.87-.15 62.81 0-4.11 6.78-5.1 7.98-10.58 13.39-2.27 1.61-4.68 3-7.21 4.15-16.83 7.83-38.35.78-45.96-16.37z"/><path fill="#3c210f" d="M1760.14 1021.87c17.54-.17 21.45 18.53 7.05 28.36-18.69 1.03-22.5-18.93-7.05-28.36"/><path fill="#e6b295" d="M692.852 1000.54c.224-47.36 8.575-74.757 57.933-91.979 4.669-1.63 20.598-4.532 23.377-7.212 13.603-13.125 41.972-9.926 56.634-.006l.892.455c26.184 13.667 64.05 50.37 86.897 6.837l.619-1.202c.189 28.642-5.924 42.365-25.362 63.334 2.01 12.61 1.054 39.773-.373 53.243 30.971 9.48 11.082 59.93-11.405 68.47-3.467 12.47-7.09 27.68-14.027 38.99-6.848 11.15-25.17 20.16-32.93 30.67-.398.54-.238 4.8-.215 5.58-.559-2.79-.641-2.96-1.804-5.58-39.772 24.67-45.123 22.38-85.222-.17-1.117-1.18-14.496-11.68-16.187-12.9-22.753-16.33-24.994-29.71-31.863-55.86-.78-.46-1.555-.92-2.323-1.4-20.634-12.85-40.198-61.17-6.504-67.82.05-9.35.384-14.28 1.863-23.45"/><path fill="url(#s)" d="M692.852 1000.54c.224-47.36 8.575-74.757 57.933-91.979 4.669-1.63 20.598-4.532 23.377-7.212 13.603-13.125 41.972-9.926 56.634-.006l.892.455c26.184 13.667 64.05 50.37 86.897 6.837l.619-1.202c.189 28.642-5.924 42.365-25.362 63.334-5.65 4.683-9.571 8.069-15.82 11.929-9.202 5.07-14.598 7.553-24.878 10.153-34.16 6.544-56.313-4.329-80.288-28.435-17.054-.645-32.974-.364-49.987.983-23.641 1.871-19.657 23.694-20.279 41.963a817 817 0 0 1-2.069 41.12c-6.569-15.9-6.756-31-7.669-47.94"/><path fill="url(#t)" d="m830.796 901.343.892.455c26.184 13.667 64.05 50.37 86.897 6.837l.619-1.202c.189 28.642-5.924 42.365-25.362 63.334-5.65 4.683-9.571 8.069-15.82 11.929-9.202 5.07-14.598 7.553-24.878 10.153-2.051-18.224-1.959-37.75-4.301-56.093-.918-7.197-1.442-15.28-1.337-22.501-4.79-3.074-13.757-8.391-16.71-12.912"/><path fill="#3c210f" d="M878.022 982.696c6.249-3.86 10.17-7.246 15.82-11.929 2.01 12.61 1.054 39.773-.373 53.243-1.33 9.3-2.925 15.96-5.805 24.83-3.355-27.01-2.046-38.21-9.642-66.144M765.363 1112.15c-10.328-1.42-14.192-1.69-23.52-6.82l-.655-1.12 1.281-.59c19.979-9.41 21.71-22.07 42.6-14.69 2.026.72 4.037 1.47 6.034 2.26 17.452-7.06 21.652-7.26 36.938 5.74 5.824 4.96 7.985 5.75 15.551 6.79-11.198 5.79-13.831 6.87-26.337 8.35-14.794 21.57-37.286 22.17-51.892.08"/><path fill="#fbfbfa" d="m809.268 1111 7.987 1.07c-14.794 21.57-37.286 22.17-51.892.08l7.441-1.27q18.231.375 36.464.12"/><path fill="#e6b295" d="M772.804 1110.88c8.055-2.27 12.279-4.19 18.145-10.42 6.973 6.27 9.056 7.57 18.319 10.54q-18.233.255-36.464-.12"/><path fill="#3c210f" d="M738.856 1022.08c18.126 1.68 20.217 22.45 3.134 29.22-1.279-.19-2.487-.34-3.729-.73a14.2 14.2 0 0 1-8.449-7.01 14.56 14.56 0 0 1-.971-11.07c1.856-5.98 4.773-7.8 10.015-10.41M839.972 1022c17.874 2.64 19.317 22.67 2.939 29.19-17.351-2-19.355-22.21-2.939-29.19"/><path fill="#2fb0b9" d="M1671.22 1158.88c4.3.25 18.29 10.34 24.1 12.77 12.92 5.47 29.25 4.81 41.63-1.85 6.82-3.67 14.16-9.53 21.28-12.15l-.07 1 .32 2c3.51 23.7-6.85 36.31 23.25 44.08 15.38 5.16 30.78 10.22 46.21 15.19 6.02 1.95 18.69 6.42 24.54 7.63 41.37 12.24 61.46 36.71 64.96 80.23l-65.02.05-275.07-.01-64.99-.05c4.44-43.27 22.93-68.03 64.87-80.15 16.66-3.93 53.17-16.87 70.79-22.85 20.55-5.8 20.82-8.49 22.99-29.46z"/><path fill="#d7a78a" d="M1671.22 1158.88c4.3.25 18.29 10.34 24.1 12.77 12.92 5.47 29.25 4.81 41.63-1.85 6.82-3.67 14.16-9.53 21.28-12.15l-.07 1 .32 2c3.51 23.7-6.85 36.31 23.25 44.08-3.42 3.84-7.05 7.49-10.87 10.93-44.78 40.47-84.35 32.13-122.84-10.89 20.55-5.8 20.82-8.49 22.99-29.46z"/><path fill="#c6855a" d="M1671.22 1158.88c4.3.25 18.29 10.34 24.1 12.77 12.92 5.47 29.25 4.81 41.63-1.85 6.82-3.67 14.16-9.53 21.28-12.15l-.07 1c-.44 6.36-.46 10.6-.32 16.96-29.42 17.66-58.03 20.3-86.83-.3z"/><path fill="#d7a78a" d="M1852.48 1227.55c41.37 12.24 61.46 36.71 64.96 80.23l-65.02.05c.33-26.56.06-53.67.06-80.28M1512.36 1307.77c4.44-43.27 22.93-68.03 64.87-80.15l.12 80.2z"/><path fill="#e3da53" d="M747.059 605.589c36.675 23.233 50.265 26.308 87.81.178l.105 18.175c2.185 20.305 2.037 23.39 22.357 29.531 13.911 4.143 28.561 9.787 42.381 13.678 54.953 15.474 86.793 26.045 94.086 89.435l-405.277-.097c2.732-23.875 8.565-42.723 26.213-59.832 16.166-15.672 36.517-19.504 57.208-26.13l52.944-16.972c29.728-9.153 18.816-19.367 23.043-44.325z"/><path fill="#c6855a" d="M747.059 605.589c36.675 23.233 50.265 26.308 87.81.178l.105 18.175c2.185 20.305 2.037 23.39 22.357 29.531-31.63 17.31-100.09 15.057-132.445.082 29.728-9.153 18.816-19.367 23.043-44.325z"/><path fill="#b96834" d="M747.059 605.589c36.675 23.233 50.265 26.308 87.81.178l.105 18.175c-30.916 18.739-56.098 20.307-87.007.904.245-5.948.355-9.636-.038-15.616z"/><path fill="#aaebc0" d="M747.866 1161.97c40.099 22.55 45.45 24.84 85.222.17 1.163 2.62 1.245 2.79 1.804 5.58l.07 7.7c2.06 18.96 1.471 23.02 20.314 29.09 16.414 4.69 34.844 11.33 51.357 16.48 9.939 3.1 30.03 8.93 38.711 12.67a81.7 81.7 0 0 1 18.026 10.71c21.043 16.62 27.445 38.16 30.389 63.68l-405.137.01c.901-12.7 4.622-28.36 10.721-39.5 18.376-33.56 41.85-36.32 73.979-46.71a3845 3845 0 0 1 53.451-17.28c26.713-8.26 17.339-19.17 21.094-41.77z"/><path fill="#e6b295" d="M747.866 1161.97c40.099 22.55 45.45 24.84 85.222.17 1.163 2.62 1.245 2.79 1.804 5.58l.07 7.7c2.06 18.96 1.471 23.02 20.314 29.09-39.534 34.16-88.481 31.4-128.503.06 26.713-8.26 17.339-19.17 21.094-41.77z"/><path fill="#d7a78a" d="M747.866 1161.97c40.099 22.55 45.45 24.84 85.222.17 1.163 2.62 1.245 2.79 1.804 5.58l.07 7.7c-29.527 18.59-57.596 20.47-87.157.89.333-5.28.353-8.23.062-13.51z"/><path fill="#c0d2d9" d="M285.059 1754.34c27.604 19.05 60.354 19.45 87.988-.18.553 3.21 1.056 7.04 1.986 10.1 5.122 1.23 14.335 6.53 15.496 12.06-.985 1.89-1.514 2.92-2.663 4.72 18.3 5.18 36.411 11.66 54.574 17.51 32.172 10.37 59.326 13.83 77.652 45.9 8.051 14.08 9.842 26.54 12.025 42.26l-171.98.09-63.348.02c-55.448-1.06-114.436-.02-170.181-.01 1.32-13.09 4.258-27.59 10.413-39.18 18.293-34.45 43.233-37.51 76.113-48.16l57.012-18.42c-1.237-2.35-2.108-3.77-2.843-6.36 3.385-3.55 11.735-8.96 16.503-10.3 1.493-2.81 1.188-6.72 1.253-10.05"/><path fill="#c0d2d9" d="M387.866 1781.04c18.3 5.18 36.411 11.66 54.574 17.51 32.172 10.37 59.326 13.83 77.652 45.9 8.051 14.08 9.842 26.54 12.025 42.26l-171.98.09c-4.001-14.13-12.736-47.45-19.764-58.25 4.106-5.61 5.418-7.77 8.561-13.98l8.954 11.2c9.956-13.88 20.399-30.37 29.978-44.73"/><path fill="#eaeae9" d="M285.059 1754.34c27.604 19.05 60.354 19.45 87.988-.18.553 3.21 1.056 7.04 1.986 10.1 5.122 1.23 14.335 6.53 15.496 12.06-.985 1.89-1.514 2.92-2.663 4.72-9.579 14.36-20.022 30.85-29.978 44.73l-8.954-11.2-19.496-23.99-19.554 23.92-9.212 11.39c-4.656-7.15-26.173-40.89-30.526-44.84-1.237-2.35-2.108-3.77-2.843-6.36 3.385-3.55 11.735-8.96 16.503-10.3 1.493-2.81 1.188-6.72 1.253-10.05"/><path fill="#f8d8ba" d="M285.059 1754.34c27.604 19.05 60.354 19.45 87.988-.18.553 3.21 1.056 7.04 1.986 10.1-3.348 9.86-35.791 19.08-45.847 21.83-10.547-3.32-41.28-11.47-45.38-21.7 1.493-2.81 1.188-6.72 1.253-10.05"/><path fill="#c83e30" d="m329.438 1790.58 19.496 23.99c-3.143 6.21-4.455 8.37-8.561 13.98 7.028 10.8 15.763 44.12 19.764 58.25l-63.348.02c2.298-9.81 12.851-49.34 17.912-55.19 1.099-1.27 1.868-2.6 2.737-4.03-3.441-4.85-4.589-6.44-7.042-11.93l-.512-1.17z"/><path fill="#d7a78a" d="m1188.39 1716.8 1.56.78c5.54 2.84 12.22 8.37 17.67 11.05 9.7 4.77 21.96 9.33 32.21 12.77.13 2.55.39 11.4.87 13.38 1.29-2.81 9.96-1.68 13.38-1.87 10.85-.61 22.8-1.43 32.92-5.63 1.31 40.4 1 38.45 41.32 49.84 12.85 3.63 27.31 9.36 40.41 12.43 39.14 13.11 50.6 38.04 55.29 77.26l-341.91-.01c1.21-9.14 2.34-16.14 4.27-25.15 4.07-10.7 4.3-11.7 10.04-21.41 5.86-9.92 15.48-15.94 17.63-24.59-.05-5.36 2.01-13.57 3.77-18.66 11.67-33.83 46.04-39.02 64.39-65.57 2.46-3.56 4.68-10.29 6.18-14.62"/><path fill="#fe507d" d="M1368.73 1809.55c39.14 13.11 50.6 38.04 55.29 77.26l-341.91-.01c1.21-9.14 2.34-16.14 4.27-25.15 13.7 1.14 29.62 2.78 43.19 3.11l3.64 3.81 1.41-.05.24-2.53c4.02-1.2 43.01-.59 52.07-1 61.24-2.75 130.03-21.65 181.8-55.44"/><path fill="url(#u)" d="m1188.39 1716.8 1.56.78c5.54 2.84 12.22 8.37 17.67 11.05 9.7 4.77 21.96 9.33 32.21 12.77.13 2.55.39 11.4.87 13.38.2 22.43-2.46 36.13-18.87 52.83a80.4 80.4 0 0 1-28.45 18.61c-20.25 7.89-57.48 9.92-58.52 39.77l-.24 2.53-1.41.05-3.64-3.81c-13.57-.33-29.49-1.97-43.19-3.11 4.07-10.7 4.3-11.7 10.04-21.41 5.86-9.92 15.48-15.94 17.63-24.59-.05-5.36 2.01-13.57 3.77-18.66 11.67-33.83 46.04-39.02 64.39-65.57 2.46-3.56 4.68-10.29 6.18-14.62"/><path fill="#d7a78a" d="M1086.38 1861.65c4.07-10.7 4.3-11.7 10.04-21.41 5.86-9.92 15.48-15.94 17.63-24.59-.63 19.84 3.02 33.19 15.52 49.11-13.57-.33-29.49-1.97-43.19-3.11"/><path fill="#88b6b8" d="M1657.09 1779.75c5.15 1.05 6.22 1.02 11.49.73 4.38 3.61 4.89 18.23 19.31 17.24 7.11-.49 10.07-7.3 14.92-7.21 4.12 4.12 8.6 9.06 14.71 9.2 3.85.1 5.69-1.53 8.7-3.3 2.21-1.3 4.59-3.61 7-2.79 7.25 2.48 9.37 5.6 17.18 2.94 7.38-2.53 7.42-12.04 11.36-13.74-.08.04 9.42-.84 13.09-2.03l3.6 1.68 49.17 15.86c30.4 9.72 58.59 14.28 76.46 43.54 9.01 14.76 11.61 27.53 13.37 44.47l-404.99.07c.85-12.59 3.83-26.55 9.6-37.73 17.87-34.61 42.66-38.44 75.83-49 17.8-5.64 35.57-11.41 53.3-17.29 2.35-.6 3.73-1.52 5.9-2.64"/><path fill="#f8d8ba" d="M1657.09 1779.75c5.15 1.05 6.22 1.02 11.49.73 4.38 3.61 4.89 18.23 19.31 17.24 7.11-.49 10.07-7.3 14.92-7.21 4.12 4.12 8.6 9.06 14.71 9.2 3.85.1 5.69-1.53 8.7-3.3 2.21-1.3 4.59-3.61 7-2.79 7.25 2.48 9.37 5.6 17.18 2.94 7.38-2.53 7.42-12.04 11.36-13.74-.08.04 9.42-.84 13.09-2.03l3.6 1.68c-20.17 27.35-42.78 55.24-63.5 82.53l-63.76-82.61c2.35-.6 3.73-1.52 5.9-2.64"/><path fill="#313094" d="M1647.97 653.753c47.42 16.077 85.81 16.54 133.4.109 4.74.616 33.68 10.6 39.48 12.613 14.17 4.918 34.8 9.867 47.78 15.388a79.5 79.5 0 0 1 18.01 10.635c21.37 16.827 27.85 38.018 30.87 63.9l-405.17.061c2.3-23.814 9.14-44.076 26.97-60.654 16.48-15.317 36.1-18.634 56.82-25.281z"/><path fill="#fef68f" d="M756.969 1747.78c2.245.26 11.11 2.58 14.494 3.18 18.913 3.37 35.562 2.86 53.751-3.75.262 4.56.479 15.01 2.092 18.84-4.213 7.05 2.678 18.92 10.425 21.96 11.653 4.57 23.63 7.13 35.413 11.02 57.062 17.63 80.301 22.05 89.228 87.91l-341.997-.05c1.251-15.2 4.107-28.41 11.033-42.04 15.874-31.24 46.471-36.14 77.617-45.66 12.448-4.12 27.593-6.96 39.086-13.19 6.073-3.29 9.911-14.09 6.698-20.29 2.083-4.16 1.985-13 2.16-17.93"/><path fill="#c6855a" d="M756.969 1747.78c2.245.26 11.11 2.58 14.494 3.18 18.913 3.37 35.562 2.86 53.751-3.75.262 4.56.479 15.01 2.092 18.84-4.213 7.05 2.678 18.92 10.425 21.96 11.653 4.57 23.63 7.13 35.413 11.02l-.008 44.72-82.015 23.22-82.042-23.28-.054-44.5c12.448-4.12 27.593-6.96 39.086-13.19 6.073-3.29 9.911-14.09 6.698-20.29 2.083-4.16 1.985-13 2.16-17.93"/><path fill="#c0d2d9" d="M1012.01 1948.65c-.09-2.98-.44-1.65.96-4.17 2.5-.65 2.98-.51 4.91-2.12-.93-2.69-1.32-2.87-.79-5.57l2.38-.79c2.61.97 1.59.19 2.92 2.63l-.91 3.01.88 1.26c2.92-.19 1.87-.38 4.6.65l.26 3.19c6.82 2.35 9.03 3.27 16.37 4.92 2.28-2.19 1.52-1.37 2.97-4.4l1.83.27.79 1.38c-1.44 1.71-4.25 4.32-3.78 6.41 1 4.54-1.08 6.47-.77 10.73l-.41.74c2.11 2.67 1.84 1.25 1.58 4.18-7.62 23.65-44.71 22.74-46.281 4.15l.158-1.57c-2.201-3-1.639-4.32-2.186-8.63-1.162 1.37-.95 1.04-2.521 2.04-1.466-1.53-.947-4.9-1.596-8.31-2.607-.8-1.747-.35-3.958-2.04l-.077-1.88 1.64-.51 2.434 2.88 1.445-.01c1.235-1.37 2.286-2.63 3.452-4.06l1.593.7.082 2.86 2.045-.65c3.69-4.16 4.77-5.6 9.98-7.29"/><path fill="#c0d2d9" d="M1044.22 1966.79c2.11 2.67 1.84 1.25 1.58 4.18-7.62 23.65-44.71 22.74-46.281 4.15l.158-1.57c19.343 1.34 26.753 1.53 44.543-6.76"/><path fill="#eaeae9" d="M1044.22 1966.79c2.11 2.67 1.84 1.25 1.58 4.18l-1.78-1.81c-16.01 7.73-26.88 9-44.501 5.96l.158-1.57c19.343 1.34 26.753 1.53 44.543-6.76"/><path fill="#fbfbfa" d="M1009.71 1954.5c3.61-1.29 7.59.58 8.9 4.19 1.31 3.62-.54 7.6-4.15 8.93a6.97 6.97 0 0 1-8.97-4.17 6.97 6.97 0 0 1 4.22-8.95M1031.83 1954.51c2.21-.71 4.58.5 5.3 2.71a4.22 4.22 0 0 1-2.67 5.33c-2.22.75-4.63-.46-5.37-2.69-.73-2.24.5-4.64 2.74-5.35"/><path fill="#f8d8ba" d="M1816.84 1594.73c.15 2.75-.51 6.71 2.07 8.09 6.54 3.51 9.95 3.86 12.33 11.64 5.96 19.47-6.22 47.7-24.85 56.2 1.72-11.49 2.92-22.1 4.12-33.64 2.7-12.87 4.81-29.1 6.33-42.29M1611.37 1595.8c1.49 13 3.18 27.57 5.98 40.36 1.24 11.64 2.43 22.52 4.21 34.1-16.1-10.64-27.16-31.81-24.05-51.19 1.29-8.03 4.33-11.45 10.86-15.42 3.38-2.05 2.73-4.17 3-7.85"/><path fill="#c0d2d9" d="M810.774 1958.96c5.725-.65 7.249-.01 12.7 1.89 1.323-.72 2.473-1.5 3.677-2.4l1.954.84c7.925 10.53.532 53.9-24.342 30.78 1.031-2.5.471-1.72 2.537-3.57 6.275.37 9.746 7 14.905 3.06 1.61-3.28 1.761-3.15 1.425-6.96-2.724.05-5.624 2.51-7.754 2.39-14.956-.84-13.454-18.13-5.102-26.03"/><path fill="#fbfbfa" d="M814.901 1963.65c11.347.44 11.091 8.72 5.747 16.23-3.604.05-3.439.25-6.522-1.51-4.249-5.25-2.689-9.69.775-14.72"/><path fill="#c0d2d9" d="M1104.4 1958.1c7.12.86 14.97 4.49 14.4 12.87-4.54 4.55-11.22 1.72-18.38 3.5l-.37 1.62c1.64 3.27 1.39 3.18 4.52 4.99 6.18.47 6.82-5.13 12.33-3.88l.81 1.8c-3.71 9.44-18.57 8.9-24.74-1.52-.39-4.95-.73-7.06.77-11.74l-.66-.96c-3.08-.94-3.61-1.48-6.61-.42-5.52 4.6-3.63 12.91-6.49 20.78l-1.58.66-2.05-1.48c-1.83-4.29-1.19-16.83-1.3-22.53l1.45-1.34c7.41.01 9.76-3.21 15.1-1.42 1.28 2.55.68 1.78 2.66 3.79 2.82-.5 4.92-3.45 10.14-4.72"/><path fill="#fbfbfa" d="M1103.93 1962.44c3.35.93 5.41 2.11 7.2 4.99l-.38 1.48-1.83 1c-4.41-.15-5.46.58-8.5-1.46.13-2.79 1.6-3.87 3.51-6.01"/><path fill="#c0d2d9" d="M1148.68 1958.22c3.39.19 4.25 1.06 7.31 2.49 3.86-1.29 8.64-3.46 12.21-1.12 11.44 7.52 7.5 22.63-4.88 26.65-2.94-.93-6.33-3.17-8.09-2.5-.22 5.06.95 9.96-4.15 11.8l-1.97-1.06c-2.02-3.28-1.17-31.22-.43-36.26"/><path fill="#fbfbfa" d="M1158.76 1963.42c11.37 1.26 10.73 10.5 4.39 17.39-10.67-1.99-9.54-10.39-4.39-17.39"/><path fill="#c0d2d9" d="M909.416 1948.18c2.894.44 1.903.05 4.418 1.53 2.081 5.48 2.626 32.28-.771 36-6.201.89.763-.97-6.397-2.38-4.92 2.26-5.208 2.6-10.428 2.27-7.851-4.96-9.627-14.88-5.206-23.58 2.526-4.97 11.535-1.43 17.091-2.02q.434-5.925 1.293-11.82"/><path fill="#fbfbfa" d="M899 1963.66c2.851.12 2.9.22 5.652 1.11 5.475 5.54 4.172 9.34.331 15.61-11.601-.44-10.823-9.13-5.983-16.72"/><path fill="#c0d2d9" d="M930.355 1948.39c3.715.36 4.142.51 5.702 3.54-.503 3.07-1.7 6.94.994 9.03 17.928-9.71 23.164 11.32 14.043 22.97-.63.27-1.266.53-1.906.77-5.114 1.91-6.162 1.11-11.114-1.18l-1.221-.58c-1.707 1.08-1 .57-2.696 1.9l-1.233.98-2.001-.57c-2.558-6.03-2.2-30.55-.568-36.86"/><path fill="#fbfbfa" d="M939.934 1963.57c1.62.1 3.087.13 4.614.8a7.17 7.17 0 0 1 4.102 5.2c.838 4.44-1.283 7.63-3.664 11.02-11.514-1.18-10.212-9.72-5.052-17.02"/><path fill="#c0d2d9" d="M732.509 1948.25c2.202.25 2.195.29 4.262 1.14 2.39 4.56 2.579 31.82.3 35.92-5.858 2.03.273-.7-6.917-2.16-4.791 2.41-5.527 2.9-10.808 2.41-13.157-10.08-7.525-34.31 11.215-24.83l1.166-.55c.164-3.99.424-7.96.782-11.93"/><path fill="#fbfbfa" d="M722.729 1963.51c1.745.12 3.16.11 4.769.92a7.47 7.47 0 0 1 3.948 5.19c.817 4.26-1.058 7.47-3.22 10.84-11.758-.75-10.597-9.45-5.497-16.95"/><path fill="#c0d2d9" d="m1286.55 1957.58 4.02 2.29c5.17-.28 10.72.68 15.81-.29 17.46-3.33 18.34 8.69 16.21 23.68-2.09 2.65-.81 1.68-4.04 2.92l-1.4-.87c-2.74-6.8.23-17.96-4.5-21.51-2.76.39-3.43 1.57-5.32 3.45-.4 7.68 1.51 13.67-3.22 18.67-5.86-.78-1.5-16.05-7.01-21.78-3.11-.2-1.73-.63-4.2 1.51-2.52 6.67.74 16.33-4.01 19.99l-2.35-.36c-3.71-4.45-3.11-22.98.01-27.7M1267.06 1958.41c7.45-.82 14.19 4.49 15.13 11.93.94 7.45-4.27 14.27-11.7 15.32-4.91.7-9.81-1.31-12.83-5.24a13.77 13.77 0 0 1-1.73-13.75c1.95-4.56 6.2-7.72 11.13-8.26"/><path fill="#fbfbfa" d="M1264.94 1963.8c12.13-.57 11.64 8.48 7.11 16.48-12.29.67-11.27-8.56-7.11-16.48"/><path fill="#c0d2d9" d="M1130.96 1958.12c7.79.43 13.71 3.01 15.79 11.26-2.45 7.44-14.72 2.45-19.13 6.16l.19 2.4c6.09 4.99 9.6 2.2 14.82-2.26.47.35 1.87 1.87 2.33 2.35l-.09 2.28c-1.8 2.36-3.47 3.72-6.2 4.94a11.83 11.83 0 0 1-9.61.03 15.27 15.27 0 0 1-8.09-8.45c-3.68-9.21 1.52-15.63 9.99-18.71"/><path fill="#fbfbfa" d="M1131.27 1962.59c4.05.96 5.8 1.64 7.38 5.45l-.96 1.81c-3.49.07-6.5.59-9.4-1.09.1-3.45.45-2.77 2.98-6.17"/><path fill="#c0d2d9" d="M753.311 1958.12c7.172.76 14.409 4.1 14.358 12.48-4.859 6.05-12.817 1.17-18.951 4.44l.206 1.59c1.993 2.72 1.911 3.04 5.074 4.39 4.878-.28 5.657-2.4 9.762-4.46l1.547-.77c1.367 2.96 1.158 1.47.769 4.62-4.26 4.68-9.621 7.85-16.017 4.8a15.6 15.6 0 0 1-8.192-9.73c-2.756-9.27 2.824-15.22 11.444-17.36"/><path fill="#fbfbfa" d="M752.933 1962.39c3.548 1.36 6.727 2.24 6.744 6.44l-1.792 1.09c-4.419-.19-5.386.51-8.502-1.53.578-3.52.811-2.8 3.55-6"/><path fill="#c0d2d9" d="M873.257 1958.08c7.196.91 15.413 4.17 14.726 12.89-3.594 3.75-11.446 2.6-17.874 3.47l-.993 1.44.552 2.35c5.971 4.92 10.298 1.1 15.388-2.83 2.012 3.31 1.753 1.63 1.251 5.12-16.731 19.05-38.766-14.63-13.05-22.44"/><path fill="#fbfbfa" d="M872.915 1962.39c3.479.86 5.419 2.09 7.34 5l-.42 1.64-1.862.9c-3.165-.01-5.88.46-8.327-1.29.148-3.22.926-3.11 3.269-6.25"/><path fill="#c0d2d9" d="M1190.38 1948.19c3.75.59 2.29-.21 4.87 1.86 1.91 5.47 1.06 12.33.92 18.41 4.81-5.26 5.91-7.72 12.81-8.98l1.11 1.25c-.6 3.84-2.71 5.19-5.56 7.97 3.51 5.31 6.61 9.53 8.9 15.48l-3.48 1.41c-4.89-1.44-5.64-6.95-11.68-10.6l-1.31.9c-.55 4.29-.67 7.23-3.52 10.14-2.77-.9-1.52-.17-3.39-2.82-.96-7.11-.92-28 .33-35.02M968.002 1977.42c1.61-4.61 4.754-17.02 10.219-17.49 2.071 6.15-2.28 14.32-4.77 20.32-2.695 8.2-4.585 15.09-14.55 15.23-3.516-1.64-2.504-.37-3.712-3.41 3.233-4.4 2.938.74 8.082-4.34 3.319-10.53-11.871-19.78-5.342-30.07 5.905 2.52 8.169 13.75 10.073 19.76M836.925 1957.77c2.581 1.34 4.06 2.89 6.76 1.94 17.778-6.25 20.162 16.37 11.164 25.9l-1.58-.35c-1.601-5.01-1.237-9.23-1.25-14.51-.212-4.39-.601-5.17-4.318-7.01-11.472 2.71-1.144 13.84-8.623 21.95l-1.803-.26c-3.177-4.87-3.9-23.14-.35-27.66M773.409 1959.09c5.686-.72 16.455-1.43 17.151 6.16-1.231.68-10.931-.83-14.103-.86l-.785.95c4.185 3.9 9.989 4.5 15.61 9.57 2.541 6.48-1.356 8.15-6.8 10.82-6.405.2-15.221.09-15.664-7.93 3.234-2.04 10.23 3.73 15.822 2.32l.141-1.83c-4.307-7.29-14.6-3.08-16.12-12.14 1.386-3.92 1.703-4.05 4.748-7.06M1240.17 1958.16c6.15.8 12.91 1.93 12.34 9.69-4.78 1.47-8.67-4.54-14.89-3.15-3.73 3.63-3.33 9.33-1.08 13.72 5.98 4.01 9.14.39 12.54-4.39 1.34.29 1.93.78 3.19 1.46 1.11 3.29 1.05 1.65.04 5.09-8.15 8.87-21.47 6.61-24.26-5.59-.87-3.81-.13-7.81 2.04-11.05 2.76-4.09 5.51-4.77 10.08-5.78M1064.59 1949.06c3.93-.39 9.36-1.21 12.28 1.76-3.26 3.7-4.38 2.28-8.24 5.66 1.23 4.69 2.57.11 5.64 5l-.55 1.71-4.53 1.53c-1.31 3.21-.72 12.96-.65 17.03-.58 2.64-.43 2.51-2.28 4.44-7.2-2.91-2.05-18.23-8.59-23.61l-.23-2.58c1.37-.82 2.41-1.33 3.88-1.89.74-4.74.62-5.25 3.27-9.05M796.938 1957.89c2.469 1.07 4.108 1.12 4.68 4.1 1.25 6.51 1.23 18.81-1.403 24.58-1.009-.36-2.6-1.16-3.619-1.64-3.105-4.73-2.985-22.51.342-27.04M1178.27 1958.2c2.38.2 2.26.23 4.46 1.21 3.2 5.45 1.76 20.72.54 26.85l-3.79-1.04c-3.66-5.09-1.98-20.59-1.21-27.02"/></svg><rect width="17" height="11" x="40" y="46" fill="#111827" rx="5"/><rect width="17" height="11" x="63" y="46" fill="#111827" rx="5"/><rect width="6" height="4" x="57" y="49" fill="#111827" rx="2"/></g></svg>