<?xml version="1.0" encoding="UTF-8" standalone="no"?>
<svg
   aria-hidden="true"
   class="avatar-svg"
   viewBox="0 0 120 120"
   version="1.1"
   id="svg205"
   sodipodi:docname="av13.svg"
   inkscape:version="1.4.2 (f4327f4, 2025-05-13)"
   xmlns:inkscape="http://www.inkscape.org/namespaces/inkscape"
   xmlns:sodipodi="http://sodipodi.sourceforge.net/DTD/sodipodi-0.dtd"
   xmlns="http://www.w3.org/2000/svg"
   xmlns:svg="http://www.w3.org/2000/svg">
  <sodipodi:namedview
     id="namedview205"
     pagecolor="#ffffff"
     bordercolor="#000000"
     borderopacity="0.25"
     inkscape:showpageshadow="2"
     inkscape:pageopacity="0.0"
     inkscape:pagecheckerboard="0"
     inkscape:deskcolor="#d1d1d1"
     inkscape:zoom="6.725"
     inkscape:cx="59.925651"
     inkscape:cy="60"
     inkscape:window-width="1920"
     inkscape:window-height="1009"
     inkscape:window-x="-8"
     inkscape:window-y="-8"
     inkscape:window-maximized="1"
     inkscape:current-layer="g205" />
  <defs
     id="defs1">
    <clipPath
       id="a">
      <circle
         cx="60"
         cy="60"
         r="50"
         id="circle1" />
    </clipPath>
  </defs>
  <circle
     cx="60"
     cy="60"
     r="50"
     fill="#fff"
     id="circle2" />
  <g
     clip-path="url(#a)"
     id="g205">
    <svg
       width="84"
       height="104"
       x="17"
       y="10"
       overflow="hidden"
       viewBox="135 290 380 480"
       version="1.1"
       id="svg203">
      <defs
         id="defs25">
        <linearGradient
           id="m"
           x1="1730.58"
           x2="1812.58"
           y1="1536.02"
           y2="1536.94"
           gradientUnits="userSpaceOnUse">
          <stop
             class="stop0"
             offset="0"
             stop-color="#e98946"
             id="stop2" />
          <stop
             class="stop1"
             offset="1"
             stop-color="#ffb982"
             id="stop3" />
        </linearGradient>
        <linearGradient
           id="l"
           x1="1630.63"
           x2="1815.73"
           y1="373.676"
           y2="378.455"
           gradientUnits="userSpaceOnUse">
          <stop
             class="stop0"
             offset="0"
             stop-color="#b2753a"
             id="stop4" />
          <stop
             class="stop1"
             offset="1"
             stop-color="#eeb561"
             id="stop5" />
        </linearGradient>
        <linearGradient
           id="k"
           x1="1624.59"
           x2="1797.17"
           y1="1049.66"
           y2="931.82"
           gradientUnits="userSpaceOnUse">
          <stop
             class="stop0"
             offset="0"
             stop-color="#591000"
             id="stop6" />
          <stop
             class="stop1"
             offset="1"
             stop-color="#995b2b"
             id="stop7" />
        </linearGradient>
        <linearGradient
           id="j"
           x1="327.157"
           x2="326.696"
           y1="1637.75"
           y2="1469.95"
           gradientUnits="userSpaceOnUse">
          <stop
             class="stop0"
             offset="0"
             stop-color="#222820"
             id="stop8" />
          <stop
             class="stop1"
             offset="1"
             stop-color="#655b6c"
             id="stop9" />
        </linearGradient>
        <linearGradient
           id="i"
           x1="798.98"
           x2="940.232"
           y1="1489.72"
           y2="1594.15"
           gradientUnits="userSpaceOnUse">
          <stop
             class="stop0"
             offset="0"
             stop-color="#48260f"
             id="stop10" />
          <stop
             class="stop1"
             offset="1"
             stop-color="#a05927"
             id="stop11" />
        </linearGradient>
        <linearGradient
           id="h"
           x1="1294.57"
           x2="1379.51"
           y1="1509.88"
           y2="1608.47"
           gradientUnits="userSpaceOnUse">
          <stop
             class="stop0"
             offset="0"
             stop-color="#641c00"
             id="stop12" />
          <stop
             class="stop1"
             offset="1"
             stop-color="#995b2b"
             id="stop13" />
        </linearGradient>
        <linearGradient
           id="g"
           x1="1097.74"
           x2="1337.64"
           y1="1660.62"
           y2="1589.18"
           gradientUnits="userSpaceOnUse">
          <stop
             class="stop0"
             offset="0"
             stop-color="#651e00"
             id="stop14" />
          <stop
             class="stop1"
             offset="1"
             stop-color="#8e4d21"
             id="stop15" />
        </linearGradient>
        <linearGradient
           id="f"
           x1="1280.35"
           x2="1133.5"
           y1="465.989"
           y2="466.923"
           gradientUnits="userSpaceOnUse">
          <stop
             class="stop0"
             offset="0"
             stop-color="#a75328"
             id="stop16" />
          <stop
             class="stop1"
             offset="1"
             stop-color="#ba7a5a"
             id="stop17" />
        </linearGradient>
        <linearGradient
           id="e"
           x1="1248.18"
           x2="1267.71"
           y1="648.442"
           y2="333.168"
           gradientUnits="userSpaceOnUse">
          <stop
             class="stop0"
             offset="0"
             stop-color="#7c320d"
             id="stop18" />
          <stop
             class="stop1"
             offset="1"
             stop-color="#ae5928"
             id="stop19" />
        </linearGradient>
        <linearGradient
           id="d"
           x1="791.373"
           x2="789.475"
           y1="496.203"
           y2="346.829"
           gradientUnits="userSpaceOnUse">
          <stop
             class="stop0"
             offset="0"
             stop-color="#160700"
             id="stop20" />
          <stop
             class="stop1"
             offset="1"
             stop-color="#633617"
             id="stop21" />
        </linearGradient>
        <linearGradient
           id="c"
           x1="236.081"
           x2="454.968"
           y1="933.108"
           y2="1012.22"
           gradientUnits="userSpaceOnUse">
          <stop
             class="stop0"
             offset="0"
             stop-color="#bf8344"
             id="stop22" />
          <stop
             class="stop1"
             offset="1"
             stop-color="#e9b15c"
             id="stop23" />
        </linearGradient>
        <linearGradient
           id="b"
           x1="406.57"
           x2="448.998"
           y1="455.513"
           y2="506.561"
           gradientUnits="userSpaceOnUse">
          <stop
             class="stop0"
             offset="0"
             stop-color="#f29d5f"
             id="stop24" />
          <stop
             class="stop1"
             offset="1"
             stop-color="#ffc794"
             id="stop25" />
        </linearGradient>
      </defs>
      <path
         fill="#fbfbfa"
         d="M0 0h2048v2048H0V0"
         id="path25" />
      <path
         fill="#fbfbfa"
         d="M0 0h2048v104.957c-75.56-.879-152.93-.034-228.62-.032l-452.38.012 17.57-19.887-721.564-.028a2074 2074 0 0 1 17.527 19.996c-74.673-1.681-155.656-.151-230.743-.152H0z"
         id="path26" />
      <path
         fill="#48b2bc"
         d="m663.006 85.022 721.564.028-17.57 19.887-34.36 38.978 33.11 35.207 18.79 19.869-721.643.02a1421 1421 0 0 0 18.572-19.621c11.237-11.664 22.405-23.756 33.517-35.568-11.419-12.194-23.173-26.181-34.453-38.804a2074 2074 0 0 0-17.527-19.996"
         id="path27" />
      <path
         fill="#fbfbfa"
         d="M1112.95 110.704c8.73-.222 17.7-1.394 25.6 3.142 12.05 6.928 8.17 25.865 1.23 35.066 1.68 7.646 7.37 21.929 5.49 28.357-3.06 1.581-3.37.885-7.45.621-2.79-2.056-2.01-1.969-3.28-6.131-1.33-6.548-1.82-17.621-8.58-19.784-7.98 3.562 2.82 23.966-6.85 27.268-9.16-1.828-6.21-14.887-6.18-22.15z"
         id="path28" />
      <path
         fill="#48b2bc"
         d="M1123.18 120.253c14.81-.253 14.89 10.471 10.12 21.676-7.07 1.197-11.02 1.351-10.62-7.749.21-4.617.39-9.298.5-13.927"
         id="path29" />
      <path
         fill="#a4eff3"
         d="m857.543 110.687 14.469-.067c2.742 18.023 9.474 49.073 10.5 65.87l-1.07 1.046c-3.087.305-5.608.992-8.234-.405-2.297-3.639-2.477-9.386-3.044-13.897-1.992-1.743-5.24-2.363-7.792-1.696-3.95 3.569-2.746 7.873-5.295 12.73-1.898 3.619-6.836 5.991-10.043 2.95-.176-6.156 9.067-56.026 10.509-66.531"
         id="path30" />
      <path
         fill="#48b2bc"
         d="M864.561 128.837c2.496 4.949 4.677 19.949 1.421 24.877l-3.017-1.251c-3.05-5.231.339-17.219 1.596-23.626"
         id="path31" />
      <path
         fill="#fbfbfa"
         d="m1011.45 110.705 14.1-.111c1.4 9.474 10.91 60.614 10.44 66.454-3.04 1.203-5.63.831-8.93.762-2.27-2.673-2.86-10.494-3.46-14.491-1.84-1.733-1.68-1.15-4.96-1.417-9.56-.779-4.8 11.555-10.1 16.406-3.17 1.047-4.37.315-7.58-.657-1.893-2.818 9.01-58.566 10.49-66.946"
         id="path32" />
      <path
         fill="#48b2bc"
         d="M1018.15 128.679c1.85 6.022 5.08 19.588 1.86 24.87-1.29-.442-2.62-1.028-3.89-1.546-2.4-5.274.86-17.487 2.03-23.324"
         id="path33" />
      <path
         fill="#fbfbfa"
         d="m940.024 110.684 14.463-.058c2.174 19.726 9.489 47.76 10.273 66.321l-1.486 1.087c-4.75-.007-4.557.735-8.023-1.332-2.222-3.727-2.311-9.685-2.794-14.25-2.763-.567-7.377-.604-10.157.217-3.002 4.814.323 22.642-12.459 14.268-1.72-5.046 8.613-56.849 10.183-66.253"
         id="path34" />
      <path
         fill="#48b2bc"
         d="m946.539 128.855.887.996c1.474 6.092 3.289 17.229 2.822 23.342-1.471-.327-4.914-.636-5.357-1.849-2.089-5.73.817-16.316 1.648-22.489"
         id="path35" />
      <path
         fill="#fbfbfa"
         d="m1078.77 110.661 14.51-.042c1.95 15.434 10.26 53.639 10.12 66.188l-1.72 1.168c-2.9.142-4.98.645-7.33-.882-2.4-3.569-2.47-9.327-2.99-13.872-2.16-1.514-4.05-1.482-6.85-2.016-7.34 3.547-2.92 9.339-7.36 16.546-4.08 1.402-5.42 1.199-8.61-1.402-.92-3.216 9.03-58.094 10.23-65.688"
         id="path36" />
      <path
         fill="#48b2bc"
         d="M1085.49 128.814c2.81 4.001 4.68 20.352 1.59 24.939-2.35-.934-2.31-.787-4.07-2.55-.75-7.02 1.25-15.237 2.48-22.389"
         id="path37" />
      <path
         fill="#fbfbfa"
         d="M963.123 110.669c4.008-.193 4.987-.212 8.929.326 4.143 3.498 8.6 43.264 9.815 52.162 2.456-9.57 6.523-48.623 10.654-51.904 2.733-.235 5.501-.799 7.989.123.77 3.983-1.31 12.003-2.172 16.367a2976 2976 0 0 0-8.967 50.304l-14.17.017c-4.481-21.481-8.327-45.667-12.078-67.395"
         id="path38" />
      <path
         fill="#fed05b"
         d="M1205.02 110.754c8.59-.088 20.24-2.211 27.17 1.429 2.33 3.191 1.65 1.43 1.9 5.557l-1.65 1.7c-4.77 1.801-12 1.087-17.38.979l.04 19.602c6.02-.143 10.32-1.549 14.06 3.764.01 7.934-8.38 6.305-14.07 6.165v15.3c.12 1.358.29 1.336.87 2.648 7.01 2.221 11.22-3.075 17.23 2.307 1.06 3.483 1.16 3.326.58 7.14-2.89 1.241-23.82.715-28.72.715zM1172.91 111.157c6.92-.66 10.05-.823 16.3 2.482 4.59 2.423 7.78 8.656 4.01 12.819-7.11.173-13.52-9.092-18.8-3.956-3.32 16.618 16.75 20.398 21.04 36.268 3.32 12.243-4.35 17.016-14.65 19.732-9.63-1.044-22.33-8.835-17.69-19.508 5.42-1.109 10.26 5.438 16.1 9.111 27.66-6.627-40.67-35.006-6.31-56.948"
         id="path39" />
      <path
         fill="#a4eff3"
         d="M773.891 110.727c8.655-.094 20.348-2.185 27.308 1.534 2.263 3.125 1.579 1.395 1.833 5.48l-1.588 1.667c-4.778 1.85-12.062 1.099-17.472.978l-.003 19.655c5.94-.194 13.562-1.505 15.202 5.969-2.966 4.946-6.184 4.122-11.418 4.034l-2.672.271c-4.5 8.009 3.142 18.58-3.356 26.977-3.725 1.827-1.863 1.593-5.738 1.03-3.636-3.968-2.111-57.492-2.096-67.595"
         id="path40" />
      <path
         fill="#fed05b"
         d="M1240.73 110.639c8.76.073 25.75-2.86 31.48 3.087.93 2.695 1.18 2.615.39 5.28-2.89 2.07-7.08 1.523-10.85 1.521l.03 45.973c.06 3.9.7 8.069-.87 11.234-3.73.465-4.51.147-8.09-.563-2.56-4.979-1.22-48.193-1.15-56.707-3.54.029-6.45.408-9.67-.942-1.89-2.595-1.32-5.491-1.27-8.883"
         id="path41" />
      <path
         fill="#a4eff3"
         d="M881.93 110.717c9.111-.103 24.781-2.58 31.155 2.471 1.539 3.862 1.347 1.949.774 5.934-2.746 1.942-7.282 1.354-10.875 1.338l.029 46.04c.037 3.672-.061 6.846-.224 10.516l-1.284.976c-2.909-.049-5.428.267-7.885-1.123-1.826-7.676-.775-46.272-.676-56.496-3.594.105-6.727.618-9.899-.86-1.776-2.613-1.202-5.466-1.115-8.796"
         id="path42" />
      <path
         fill="#fbfbfa"
         d="M1036.79 110.688c8.76.01 25.63-2.904 31.56 3.039.97 2.85 1.13 2.689.25 5.514-2.97 1.751-7.17 1.241-10.8 1.207l.05 47.802c.08 4.282.73 6.676-1.43 9.593-3.34.069-4.98.395-8.02-1.007-1.63-7.078-.75-46.522-.68-56.383-3.56.041-6.5.44-9.72-.931-1.85-2.599-1.28-5.461-1.21-8.834"
         id="path43" />
      <path
         fill="#a4eff3"
         d="M810.747 110.674c3.623-.108 6.385-.625 9.526 1.014 1.489 5.876.683 48.086.628 56.632 4.703-.044 12.423-1.108 15.918.735 2.414 3.561 1.542 3.792 1.639 9.014l-27.674.023z"
         id="path44" />
      <path
         fill="#fed05b"
         d="M680.533 105.018c11.28 12.623 23.034 26.61 34.453 38.804-11.112 11.812-22.28 23.904-33.517 35.568-75.811-1.231-155.359-.089-231.526-.091L0 179.336v-74.47h449.79c75.087.001 156.07-1.529 230.743.152M1367 104.937l452.38-.012c75.69-.002 153.06-.847 228.62.032v74.242c-29.7.332-59.88.345-89.59.079-197.33-1.765-395.41 2.407-592.66-.156l-33.11-35.207z"
         id="path45" />
      <path
         fill="#e17e38"
         d="M155.271 615.543c19.642 11.256 30.797 2.623 40.969-16.771 16.612-31.671 4.31-69.939 3.943-103.696-2.756-66.72 11.361-133.597 81.832-157.117a132.88 132.88 0 0 1 100.571 6.74c54.419 27.189 66.993 84.952 65.744 141.079a449 449 0 0 1-2.18 35.442c-1.349 14.308-2.574 27.002-2.813 41.471-.525 31.786 23.199 73.105 60.069 53.1-1.445 36.652-3.573 55.727-38.619 74.135 23.871 18.545 28.392 38.373 32.422 66.565-40.039 1.138-85.801.097-126.238.101l-216.12-.123q.435-3.287.917-6.567c3.956-26.762 11.607-45.102 33.672-61.469-31.881-21.805-31.947-36.814-34.169-72.89"
         id="path46" />
      <path
         fill="#48b2bc"
         d="M291.674 617.236c28.204 7.443 39.901 7.349 68.257.106.451 8.044.716 33.587 6.656 36.648 17.024 8.774 53.124 18.468 71.118 23.966 11.926 3.787 16.736 5.276 27.082 11.97 23.871 18.545 28.392 38.373 32.422 66.565-40.039 1.138-85.801.097-126.238.101l-216.12-.123q.435-3.287.917-6.567c3.956-26.762 11.607-45.102 33.672-61.469 8.678-5.532 15.283-7.391 25.012-10.51 17.404-5.408 56.678-15.829 71.548-24.621 5.584-3.302 5.449-27.977 5.674-36.066"
         id="path47" />
      <path
         fill="#f9d8ba"
         d="M291.674 617.236c28.204 7.443 39.901 7.349 68.257.106.451 8.044.716 33.587 6.656 36.648 17.024 8.774 53.124 18.468 71.118 23.966-70.571 24.559-152.904 25.994-223.253-.033 17.404-5.408 56.678-15.829 71.548-24.621 5.584-3.302 5.449-27.977 5.674-36.066"
         id="path48" />
      <path
         fill="#f9d8ba"
         d="m382.728 416.995.173-2.021 1.073-.33c9.892 7.399 21.879 26.892 27.154 37.938 8.975-5.903 16.844-10.911 26.151-16.342 1.259-6.406-4.393-14.71-2.98-20.123 6.184 7.37 6.04 41.294 5.149 51.601a392 392 0 0 1-1.639 15.058c15.808 21.421-.819 47.384-21.745 57.563-9.866 34.781-20.863 49.852-56.094 63.507l-.039 13.496c-28.356 7.243-40.053 7.337-68.257-.106l.022-13.456c-29.113-13.404-44.192-23.192-53.206-54.857-5.513-22.072 5.293-48.069 15.847-67.051 14.033-23.121 38.041-39.952 64.077-46.363 21.207-5.221 46.27-4.886 64.314-18.514"
         id="path49" />
      <path
         fill="url(#b)"
         d="m382.728 416.995.173-2.021 1.073-.33c9.892 7.399 21.879 26.892 27.154 37.938 8.975-5.903 16.844-10.911 26.151-16.342 1.259-6.406-4.393-14.71-2.98-20.123 6.184 7.37 6.04 41.294 5.149 51.601a392 392 0 0 1-1.639 15.058c-6.133 21.925-6.872 30.944-17.954 52.086 2.898-34.969 4.494-57.68-14.783-89.806-3.497-5.827-16.632-26.48-22.344-28.061"
         id="path50" />
      <path
         fill="#e0ad90"
         d="M291.696 603.78c29.255 11.776 38.168 13.78 68.274.066l-.039 13.496c-28.356 7.243-40.053 7.337-68.257-.106z"
         id="path51" />
      <path
         fill="#e17e38"
         d="M286.582 552.181c26.148-.294 52.876-.002 79.072.001-3.859 8.191-5.821 11.189-11.812 17.52-2.648 1.967-6.119 4.461-9.076 5.948a42.12 42.12 0 0 1-33.424 1.846c-12.763-4.761-19.58-13.317-24.76-25.315"
         id="path52" />
      <path
         fill="#fbfbfa"
         d="m294.321 557.142 63.427-.023c-2.763 3.867-4.41 5.644-7.708 9.097-20.363 14.922-41.035 11.116-55.719-9.074"
         id="path53" />
      <path
         fill="#e0ad90"
         d="M254.744 514.528c7.746-2.487 16.037 1.801 18.483 9.56s-1.886 16.028-9.658 18.433c-7.714 2.387-15.907-1.906-18.335-9.607-2.428-7.702 1.822-15.917 9.51-18.386M383.05 514.488c7.741-2.412 15.971 1.918 18.367 9.665s-1.951 15.967-9.702 18.348c-7.729 2.374-15.922-1.958-18.311-9.683-2.39-7.724 1.926-15.925 9.646-18.33"
         id="path54" />
      <path
         fill="#392111"
         d="M371.262 475.966c19.086.366 21.935 21.077 6.725 31.086-20.146.135-22.56-21.278-6.725-31.086M271.06 475.83c18.695 1.105 21.475 21.299 6.114 31.309-19.271.224-23.003-21.371-6.114-31.309"
         id="path55" />
      <path
         fill="#e0ad90"
         d="M216.632 480.986c1.849-2.346 1.849-6.729 2.164-9.777.223 6.06.598 12.768.576 18.765l.769.302c6.437 2.588 17.354 9.684 23.359 8.526 1.61-6.011 4.94-14.039 10.837-16.93-10.554 18.982-21.36 44.979-15.847 67.051-1.311 8.559.853 17.04 2.486 25.504-3.045-7.538-11.476-34.332-14.333-38.713.905-2.436-.304-7.131-1.251-9.663-5.175-13.828-5.085-31.815-8.76-45.065"
         id="path56" />
      <path
         fill="#f9d8ba"
         d="M216.632 480.986c3.675 13.25 3.585 31.237 8.76 45.065.947 2.532 2.156 7.227 1.251 9.663a163 163 0 0 1-3.532-3.474c-13.436-13.681-22.91-35.859-6.479-51.254M263.636 923.004c-2.485-20.418-.577-37.315 12.713-54.043a64.18 64.18 0 0 1 43.842-23.894 64.4 64.4 0 0 1 48.151 14.5c15.124 12.632 21.622 28.362 23.218 47.654l.218 2.804c49.15 28.827 60.691 69.447 50.829 124.455 15.988 20.71-1.664 49.95-23.591 57.84-10.833 37.76-19.179 46.76-55.544 63.19.294 24.96-5.799 51.22 22.608 57.26 14.517 3.08 30.157 9.48 44.713 13.46 3.133 1.06 6.928 2.56 10.109 3.07 39.919 13.49 56.523 36.21 59.406 78.79q-29.709.345-59.418.06l-222.837-.03q-29.783.3-59.565-.06c2.569-42.11 19.922-65.87 59.538-78.77 2.444-.44 7.558-2.25 10.105-3.06 12.824-3.92 54.005-14.95 61.976-21.94 5.223-10.6 4.638-24.08 4.941-35.86l.041-12.65c-36.694-20.77-43.771-21.09-55.856-64.35-21.043-12.02-40.38-44.2-13.851-60.65-13.873-40.607-6.343-91.045 38.254-107.776"
         id="path57" />
      <path
         fill="url(#c)"
         d="M263.636 923.004c-2.485-20.418-.577-37.315 12.713-54.043a64.18 64.18 0 0 1 43.842-23.894 64.4 64.4 0 0 1 48.151 14.5c15.124 12.632 21.622 28.362 23.218 47.654l.218 2.804c49.15 28.827 60.691 69.447 50.829 124.455-1.619 12.63-6.289 29.02-9.607 41.5-10.445-40.39-28.065-65.79-68.203-81.184-33.96-13.022-62.166-5.181-90.287-32.362-30.309 30.366-44.306 59.916-34.276 102.546-6.679-12.55-10.421-20.74-14.852-34.2-13.873-40.607-6.343-91.045 38.254-107.776"
         id="path58" />
      <path
         fill="#f57ea8"
         d="M228.131 1226.23c14.262 37.75 36.355 38.58 69.314 52.31 12.134 5.06 23.256 15 32.097 24.7 28.262-36.56 60.829-24.8 88.923-54.59 6.678-7.08 8.274-15.42 12.328-22.42 3.133 1.06 6.928 2.56 10.109 3.07 39.919 13.49 56.523 36.21 59.406 78.79q-29.709.345-59.418.06l-222.837-.03q-29.783.3-59.565-.06c2.569-42.11 19.922-65.87 59.538-78.77 2.444-.44 7.558-2.25 10.105-3.06"
         id="path59" />
      <path
         fill="#f9d8ba"
         d="M158.488 1308.06c2.569-42.11 19.922-65.87 59.538-78.77l.027 78.83q-29.783.3-59.565-.06M440.902 1229.3c39.919 13.49 56.523 36.21 59.406 78.79q-29.709.345-59.418.06z"
         id="path60" />
      <path
         fill="#e0ad90"
         d="M295.089 1155.78c36.922 11.07 28.827 14.87 67.715.07l.06 13.34c-20.565 5.22-47.807 8.48-67.816-.76zM257.05 1066.5a14.69 14.69 0 0 1 14.655 2.19 14.69 14.69 0 0 1 5.265 13.86 14.68 14.68 0 0 1-9.496 11.37c-7.53 2.71-15.845-1.11-18.688-8.59-2.844-7.48.833-15.86 8.264-18.83M385.3 1066.49a14.65 14.65 0 0 1 14.677 2.28 14.66 14.66 0 0 1 5.166 13.92 14.66 14.66 0 0 1-9.642 11.3c-7.536 2.61-15.775-1.28-18.549-8.76s.934-15.8 8.348-18.74"
         id="path61" />
      <path
         fill="#392111"
         d="M273 1027.88c8.455-.25 14.69 2.16 16.891 11.26 1.048 4.5.255 9.23-2.202 13.14-3.098 4.85-6.162 5.68-11.439 6.93-6.597-2.35-7.881-3.52-11.034-10.07-1.881-3.91-6.28-10.24-5.084-14.13 6.256 1.08 7.934-3.02 12.868-7.13M373.271 1028.07c14.249-1.42 9.699 6.73 21.27 6.9l.512.82c-2.877 6.3-5.671 15.07-9.026 19.99-3.004 1.64-5.423 3.04-8.958 2.88a12.15 12.15 0 0 1-9.184-4.8c-6.872-8.91-2.892-19.52 5.386-25.79"
         id="path62" />
      <path
         fill="#f57ea8"
         d="M312.675 1112.99c3.984-5.66 28.029-5.25 32.781-.02l-.058 4.29c-12.252 12.86-22.139 11.52-34.138-.68z"
         id="path63" />
      <path
         fill="#e17e38"
         d="M345.456 1112.97c4.096-2.02 6.188-3.79 10.317-3.26-.869 3.89-7.008 6.16-10.375 7.55zM311.26 1116.58c-3.332-1.59-6.991-3.01-8.17-6.7l1.993-.61c3.372 1.23 4.56 1.97 7.592 3.72z"
         id="path64" />
      <path
         fill="#c6855a"
         d="M701.305 375.033c5.692-8.976 15.555-17.989 24.236-24.012a116.7 116.7 0 0 1 87.392-18.163c22.08 4.057 50.396 17.424 63.39 36.328 16.135 17.302 22.899 40.005 22.667 63.404-.174 17.531-7.236 27.062-8.258 40.17l-2.159 24.215-4.57 1.495c-4.85 7.75-3.875 13.506 3.035 19.418l1.875.182c1.54 6.278.97 13.68 2.249 17.626-1.995 8.442-.68 18.763-2.184 28.222-2.982 18.753-7.962 34.567-16.129 51.605-6.751 14.083-14.161 22.449-22.88 34.527 2.569 2.292 3.693 2.038 7.336 2.961 27.626 9.993 56.253 17.401 83.854 27.136 36.56 12.896 47.614 41.712 52.957 76.402-64.844.716-134.049-1.57-198.181.355l-2.173-1.62c-3.67-5.837 1.758-33.989-2.611-41.284l-.008-.654-2.416.497-.578-1.064-.982-1.762c-8.138-14.926-39.056-50.976-53.846-57.986l-1.737 1.475-6.884-1.444c2.701-.702 5.939-1.912 8.639-2.837-29.226-34.511-40.296-68.793-41.298-113.531.365-6.298.541-12.486 1.749-18.677l2.688-1.179c6.244-5.467 5.762-11.222 2.247-18.077l-4.625-1.867c-1.129-7.483-1.812-16.549-2.654-24.25-.775-9.36-6.219-22.053-7.362-33.38-2.334-23.115 2.61-45.884 17.221-64.231"
         id="path65" />
      <path
         fill="#bd2c1a"
         d="m887.038 517.888 1.875.182c1.54 6.278.97 13.68 2.249 17.626-1.995 8.442-.68 18.763-2.184 28.222-2.982 18.753-7.962 34.567-16.129 51.605-6.751 14.083-14.161 22.449-22.88 34.527 2.569 2.292 3.693 2.038 7.336 2.961 27.626 9.993 56.253 17.401 83.854 27.136 36.56 12.896 47.614 41.712 52.957 76.402-64.844.716-134.049-1.57-198.181.355l-2.173-1.62c-3.67-5.837 1.758-33.989-2.611-41.284 2.29-3.548 3.498-6.868 5.83-10.377 10.801-16.249 22.601-28.333 36.742-41.359 4.328-3.719 8.132-7.861 12.066-11.988a72 72 0 0 1-2.462-1.862c-7.663-6.161-7.372-15.042-8.284-24.448.058-2.561-.114-5.951-.176-8.579-.039-1.954-.273-7.874.727-9.267 7.553-10.526 24.086-17.565 30.987-28.273 6.367-9.88 9.568-24.252 14.054-35.114 1.244-3.011 4.043-2.909 7.522-3.802.099-5.853-.732-14.947-1.119-21.043"
         id="path66" />
      <path
         fill="#fbfbfa"
         d="M888.157 538.931c4.447 31.839-18.59 89.752-42.368 111.345a72 72 0 0 1-2.462-1.862c-7.663-6.161-7.372-15.042-8.284-24.448.058-2.561-.114-5.951-.176-8.579-.039-1.954-.273-7.874.727-9.267 7.553-10.526 24.086-17.565 30.987-28.273 6.367-9.88 9.568-24.252 14.054-35.114 1.244-3.011 4.043-2.909 7.522-3.802"
         id="path67" />
      <path
         fill="#e9e7e7"
         d="m887.038 517.888 1.875.182c1.54 6.278.97 13.68 2.249 17.626-1.995 8.442-.68 18.763-2.184 28.222-2.982 18.753-7.962 34.567-16.129 51.605-6.751 14.083-14.161 22.449-22.88 34.527 2.569 2.292 3.693 2.038 7.336 2.961-22.557 4.632-43.427 32.329-56.927 49.988-10.325 13.506-5.621 34.473-6.616 52.285-3.67-5.837 1.758-33.989-2.611-41.284 2.29-3.548 3.498-6.868 5.83-10.377 10.801-16.249 22.601-28.333 36.742-41.359 4.328-3.719 8.132-7.861 12.066-11.988 23.778-21.593 46.815-79.506 42.368-111.345.099-5.853-.732-14.947-1.119-21.043"
         id="path68" />
      <path
         fill="url(#d)"
         d="M701.305 375.033c5.692-8.976 15.555-17.989 24.236-24.012a116.7 116.7 0 0 1 87.392-18.163c22.08 4.057 50.396 17.424 63.39 36.328 16.135 17.302 22.899 40.005 22.667 63.404-.174 17.531-7.236 27.062-8.258 40.17l-2.159 24.215-4.57 1.495c-1.247-3.921-1.619-26.853-2.064-32.815-1.597-21.355-7.068-36.263-15.048-55.677a229.2 229.2 0 0 1-151.362-.041c-15.638 35.744-14.895 51.457-16.804 88.824l-4.625-1.867c-1.129-7.483-1.812-16.549-2.654-24.25-.775-9.36-6.219-22.053-7.362-33.38-2.334-23.115 2.61-45.884 17.221-64.231"
         id="path69" />
      <path
         fill="#7d360f"
         d="M701.305 375.033c5.692-8.976 15.555-17.989 24.236-24.012a116.7 116.7 0 0 1 87.392-18.163c22.08 4.057 50.396 17.424 63.39 36.328-3.845-.344-10.137-7.98-13.484-11.357-44.19-9.95-74.496-15.28-120.914-5.172-6.407 1.395-18.991 4.673-24.412 8.012-6.403 3.944-8.466 10.411-16.208 14.364"
         id="path70" />
      <path
         fill="#c6855a"
         d="m693.79 518.017 2.688-1.179c-.79 5.862-1.311 17.367-2.082 21.514l4.264 2.147c5.261 9.373 7.94 25.721 13.655 34.686 7.371 11.562 24.12 22.94 35.053 31.116l-.276 17.584c30.369 22.556 57.001 16.865 87.951.081.912 9.406.621 18.287 8.284 24.448a72 72 0 0 0 2.462 1.862c-3.934 4.127-7.738 8.269-12.066 11.988-14.141 13.026-25.941 25.11-36.742 41.359-2.332 3.509-3.54 6.829-5.83 10.377l-.008-.654-2.416.497-.578-1.064-.982-1.762c-8.138-14.926-39.056-50.976-53.846-57.986l-1.737 1.475-6.884-1.444c2.701-.702 5.939-1.912 8.639-2.837-29.226-34.511-40.296-68.793-41.298-113.531.365-6.298.541-12.486 1.749-18.677"
         id="path71" />
      <path
         fill="#fbfbfa"
         d="m693.79 518.017 2.688-1.179c-.79 5.862-1.311 17.367-2.082 21.514l4.264 2.147c5.261 9.373 7.94 25.721 13.655 34.686 7.371 11.562 24.12 22.94 35.053 31.116l-.276 17.584c-.699 9.646-.212 17.691-7.76 24.305a64 64 0 0 1-1.879 1.569c.993 2.869 9.157 10.606 11.645 12.409 15.252 14.059 33.49 32.103 42.045 51.178l-2.416.497-.578-1.064-.982-1.762c-8.138-14.926-39.056-50.976-53.846-57.986l-1.737 1.475-6.884-1.444c2.701-.702 5.939-1.912 8.639-2.837-29.226-34.511-40.296-68.793-41.298-113.531.365-6.298.541-12.486 1.749-18.677"
         id="path72" />
      <path
         fill="#e9e7e7"
         d="m693.79 518.017 2.688-1.179c-.79 5.862-1.311 17.367-2.082 21.514-.441 37.948 14 80.549 40.217 109.446.748.825 1.879 1.416 2.84 1.961.993 2.869 9.157 10.606 11.645 12.409 15.252 14.059 33.49 32.103 42.045 51.178l-2.416.497-.578-1.064-.982-1.762c-8.138-14.926-39.056-50.976-53.846-57.986l-1.737 1.475-6.884-1.444c2.701-.702 5.939-1.912 8.639-2.837-29.226-34.511-40.296-68.793-41.298-113.531.365-6.298.541-12.486 1.749-18.677"
         id="path73" />
      <path
         fill="#bd2c1a"
         d="M749.098 662.168c14.814-.122 29.604 3.829 44.69 3.662 5.134-.057 38.628-4.021 39.935-3.566-14.141 13.026-25.941 25.11-36.742 41.359-2.332 3.509-3.54 6.829-5.83 10.377l-.008-.654c-8.555-19.075-26.793-37.119-42.045-51.178"
         id="path74" />
      <path
         fill="#392111"
         d="M747.368 606.301c-.687-4.702-1.648-5.359.076-8.742 6.261-1.823 15.067 3.457 23.404 1.803 10.854-2.153 13.743-8.436 19.429-16.757.936 1.603 1.967 3.352 2.99 4.779 15.368 21.428 30.733 8.206 39.566 9.905 1.98 3.073 1.177 3.507 1.043 8.029.256 3.211.442 6.957.991 10.069.062 2.628.234 6.018.176 8.579-30.95 16.784-57.582 22.475-87.951-.081z"
         id="path75" />
      <path
         fill="#9c6737"
         d="M747.368 606.301c34.718 22.413 51.401 25.321 86.508-.983.256 3.211.442 6.957.991 10.069.062 2.628.234 6.018.176 8.579-30.95 16.784-57.582 22.475-87.951-.081z"
         id="path76" />
      <path
         fill="#392111"
         d="M834.96 469.927c19.719-1.755 22.784 19.962 8.431 30.314-17.414 2.685-21.952-18.369-8.431-30.314M737.048 469.92c19.849-1.694 22.657 20.238 8.252 30.376-17.812 2.174-21.527-18.881-8.252-30.376"
         id="path77" />
      <path
         fill="#9c6737"
         d="M763.14 550.537c5.079 2.033 9.74 7.605 19.664 10.246 18.763 4.991 27.833-9.514 34.091-8.628l.822 2.669c-13.596 14.702-53.999 15.641-54.577-4.287"
         id="path78" />
      <path
         fill="url(#e)"
         d="M1127.08 644.372c-2.73-33.177-1.94-69.767-1.73-103.048.22-37.127-.54-76.107 6.38-112.532 10.64-56.083 52.63-93.382 109.64-97.327 32.75-2.266 66.24 6.906 91.53 28.667 37.19 32.956 40.74 77.33 43.69 123.026a2446 2446 0 0 1 6.45 161.535 616.4 616.4 0 0 0-95.3-11.761c-.57-5.042-.52-10.438-.61-15.538-27.01 7.138-41.31 7.251-68.14-.187-.2 5.197-.28 10.695-.87 15.835-27.83 1.744-63.73 4.944-91.04 11.33"
         id="path79" />
      <path
         fill="#e0ad90"
         d="M1287.77 409.605c4.84-2.092 9.7-4.156 14.57-6.193 17.09 17.97 31.9 36.759 42.13 59.587 2.11 4.703 6.28 15.913 10.55 17.987 1.86-.03 3.57-.014 5.43-.196 25.23 9.565 3.93 50.398-17.5 59.853-10.19 36.756-19.9 47.315-55.8 63.298l-.02 13.453c-27.01 7.138-41.31 7.251-68.14-.187-.15-4.02.04-9.195.07-13.315-33.55-13.207-48.95-30.533-55.78-62.544-.47-2.215-6.32-3.525-8.61-4.302.53-6.941 7.26-19.497 9.78-26.23 20.07-53.706 74.23-77.09 122.1-100.384.4-.276.81-.552 1.22-.827"
         id="path80" />
      <path
         fill="#c6855a"
         d="M1219.06 603.892c32.42 12.852 35.17 12.975 68.09.049l-.02 13.453c-27.01 7.138-41.31 7.251-68.14-.187-.15-4.02.04-9.195.07-13.315"
         id="path81" />
      <path
         fill="#c14f07"
         d="M1224.38 555.898c19.18-.095 38.37-.044 57.55.151-3.09 5.576-4.01 7.429-8.42 12.32-18.53 14.991-39.21 8.335-49.13-12.471"
         id="path82" />
      <path
         fill="#fbfbfa"
         d="M1230.4 559.788c10.46-.068 34.94-.788 43.84.491-.65 2.848-2 3.604-4.19 6.018-14.5 10.899-28.96 7.051-39.65-6.509"
         id="path83" />
      <path
         fill="#c6855a"
         d="M1181.84 514.502c7.75-2.448 16.02 1.876 18.43 9.642 2.42 7.766-1.94 16.013-9.72 18.392-7.73 2.364-15.91-1.963-18.31-9.68-2.4-7.718 1.89-15.922 9.6-18.354M1309.83 514.532c7.72-2.554 16.04 1.654 18.56 9.382 2.52 7.729-1.73 16.031-9.47 18.514-7.69 2.466-15.93-1.746-18.43-9.424s1.67-15.934 9.34-18.472"
         id="path84" />
      <path
         fill="#392111"
         d="M1199.8 473.029c21.83 1.105 21.71 28.843 1.12 31.488-2.63-1.116-6.21-2.758-7.48-5.331-2.17-4.385-8.7-14.257-7.75-18.962l4.87.634c3.68-3.971 4.59-5.192 9.24-7.829M1298.94 474c6.78-.857 14.73 3.906 22.4 6.686-2.77 4.134-3.35 5.571-5.37 10.204l-1.14.44-4.36-5.651c-13.2-6.273-11.65 2.322-20 5.156-.51-8.47 2.16-11.579 8.47-16.835"
         id="path85" />
      <path
         fill="url(#f)"
         d="M1140.18 594.528c-9.88-43.19-10.03-82.179-4.55-125.891 4.67-37.311 14.5-75.018 45.85-98.753 21.57-16.338 46.04-24.296 72.72-27.046 3.19-.33 14.55-1.736 16.48-.967 13.72 5.468-.07 53.241 7.48 65.76 3.47 5.758 4.38.462 9.61 1.974-.41.275-.82.551-1.22.827-47.87 23.294-102.03 46.678-122.1 100.384-2.52 6.733-9.25 19.289-9.78 26.23-6.69 13.279-11.87 42.315-14.49 57.482"
         id="path86" />
      <path
         fill="#7d360f"
         d="M1311.01 368.5c28.02 24.215 47.45 67.762 51.47 104.566.37 3.38-.14 4.927-2.03 7.724-1.86.182-3.57.166-5.43.196-4.27-2.074-8.44-13.284-10.55-17.987-10.23-22.828-25.04-41.617-42.13-59.587 12.35-8.951 9.58-21.255 8.67-34.912"
         id="path87" />
      <path
         fill="#e0ad90"
         d="M1134.05 1637.43c-13.11-35.3-3.57-94.14 19.67-123.95 20.31-26.05 61.77-40.13 93.38-43.4 25.58-2.64 50.9-4.07 64.78 21.67.3.14.61.29.91.44 42.99 18.72 65 78.52 53.99 122.68 4.12 8.24 4.2 12.2 4.17 21.16l.97 1.21c10.71 4.78 18.72 9.79 23.07 21.71a31.65 31.65 0 0 1-1.26 24.84c-4.76 9.62-12.61 14.7-22.27 18.44 31.21 15.35 17.35 49.43-10.93 57.63-12 3.48-22.95 2.49-35.11.36-12.91 10.89-17.89 12.18-33.71 16.55l-1.85-.97c-2.57-5.77-2.33-21.53-2.44-28.49-23.04 7.25-45.56 8.2-68.52-.18-.22 7.29-.26 22.3-2.63 28.51l-1.28 1.06c-15.75-3.19-22.06-6.45-34.49-16.46-26.08 4.1-59.73 1.18-63.14-32.44-1.72-16.91 15.22-22.31 15.95-26.3-32.57-10.59-32.55-50.05.74-64.07"
         id="path88" />
      <path
         fill="url(#g)"
         d="M1134.05 1637.43c-13.11-35.3-3.57-94.14 19.67-123.95 20.31-26.05 61.77-40.13 93.38-43.4 25.58-2.64 50.9-4.07 64.78 21.67.3.14.61.29.91.44-6.91 8.58 9.58 41.5-11.72 41.08-5.56-4.29-17.16-8.13-24.04-6.7-14.54 3.04-21.22 23.93-32.19 33.37-19.13 16.47-44.56 17.61-61.57 36.45-6.03 6.83-7.98 11.88-11.97 20.06-4.88 10.02-8.16 32.21-20 35.11-4.52 1.11-10.13-4.55-13.28-7.46l-.68-.64c7.54 14.18 11 20.47 26.04 27.5 9.5 36.19 20.61 47.98 55.59 63.22l-.07 12.95c-.22 7.29-.26 22.3-2.63 28.51l-1.28 1.06c-15.75-3.19-22.06-6.45-34.49-16.46-26.08 4.1-59.73 1.18-63.14-32.44-1.72-16.91 15.22-22.31 15.95-26.3-32.57-10.59-32.55-50.05.74-64.07"
         id="path89" />
      <path
         fill="#7d360f"
         d="M1343.08 1669.93c22-6.64 22.6-27.9 28.84-32.69 10.71 4.78 18.72 9.79 23.07 21.71a31.65 31.65 0 0 1-1.26 24.84c-4.76 9.62-12.61 14.7-22.27 18.44 31.21 15.35 17.35 49.43-10.93 57.63-12 3.48-22.95 2.49-35.11.36-12.91 10.89-17.89 12.18-33.71 16.55l-1.85-.97c-2.57-5.77-2.33-21.53-2.44-28.49l-.08-13.27c35.36-14.05 46.29-29 55.74-64.11"
         id="path90" />
      <path
         fill="url(#h)"
         d="M1312.79 1492.19c42.99 18.72 65 78.52 53.99 122.68-1.25 5.77-3.25 13.77-9.86 15.32-.91-.25-1.82-.49-2.73-.74-2.02-4.96-1.17-17.42-2.31-22.14-5.39-22.3-25.91-27.09-37.85-41.53-6.44-7.79-2.64-17.54-12.09-31.28l-.87-1.23c21.3.42 4.81-32.5 11.72-41.08"
         id="path91" />
      <path
         fill="#c6855a"
         d="M1218.97 1734.18c33.63 12.92 35.11 13.19 68.37-.14l.08 13.27c-23.04 7.25-45.56 8.2-68.52-.18z"
         id="path92" />
      <path
         fill="#c14f07"
         d="M1214.14 1682.48c25.73-.06 53.19-.55 78.76.17-3.96 7.9-6.24 11.24-12.2 17.33-6.46 5.25-11.65 7.94-19.97 9.47a44.24 44.24 0 0 1-33.15-7.36c-5.85-4.09-12.24-12.58-13.44-19.61"
         id="path93" />
      <path
         fill="#fbfbfa"
         d="m1222.54 1687.49 62.1.02c-2.86 4.12-4.85 6.05-8.33 9.59-12.97 9.68-29.67 10.53-43.96 2.42-3.61-2.05-8.96-7.94-9.81-12.03"
         id="path94" />
      <path
         fill="#d67c6a"
         d="M1311.25 1644.43c7.73-1.72 15.42 3.02 17.37 10.69 1.95 7.68-2.55 15.51-10.16 17.7a14.65 14.65 0 0 1-14.43-3.76 14.65 14.65 0 0 1-3.67-14.45c1.5-5.12 5.67-9.03 10.89-10.18M1183.36 1644.38c7.67-1.56 15.22 3.2 17.12 10.79 1.91 7.6-2.5 15.35-10 17.6-5.17 1.55-10.77.13-14.58-3.68a14.68 14.68 0 0 1-3.66-14.59c1.56-5.16 5.83-9.05 11.12-10.12"
         id="path95" />
      <path
         fill="#392111"
         d="M1199.24 1605.91c20.37 2.82 20.47 31.71-2.45 31.33-5.2-3.49-14.76-19.41-13.03-23.96l4.6 1.14c3.92-4.27 5.35-6.36 10.88-8.51M1299.17 1605.97c12.42 1.19 5.67 4.88 19.1 7.65l1.34.27c-.51.89-4.71 7.67-4.73 7.75-2.43 7.8-.79 7.65-6.47 13.81-3.54 1.44-6.52 2.39-10.36 1.32-3.22-.87-5.95-3.01-7.59-5.92-5.81-10.13-.86-19.73 8.71-24.88"
         id="path96" />
      <path
         fill="#514b54"
         d="M1125.73 1147.91c3-14.12 2.58-29.59 2.63-44.09.05-52.12-9.6-110.227 20.09-156.595 46.97-73.338 175.08-68.438 212.1 12.375 21.59 47.12 13.39 91.97 13.39 141.8 0 16.42-.54 30.6 2.89 46.58-28.21 9.73-58.95 20.38-88 27.17-2.23 3.87-1.59 5.95-.74 10.54l-70.14.02c.38-3.31 1.13-6.22-.05-9.23a989 989 0 0 1-92.17-28.57"
         id="path97" />
      <path
         fill="#f9d8ba"
         d="M1200.7 1087.69c22.74.06 38.93-8.07 42.44-32.17 1.45-6.35.61-15.14 9.28-15.78 9.19-.69 9.51 10.97 10.76 17.73 3.91 21.05 17.84 28.92 37.95 30.35 11.79-.09 18.11-1.84 28.61-6.64 5.19-4.49 6.85-5.91 11.17-11.34.16 46.62-7.25 66.3-53.27 85.52l.26 19.35.93.44c-2.23 3.87-1.59 5.95-.74 10.54l-70.14.02c.38-3.31 1.13-6.22-.05-9.23.97-2.6.76-5.01.88-7.9-.18-3.88.01-8.98.05-12.97-45.71-20.67-55.92-39.91-55.4-88.66 2.59 3.59 4.84 6.84 7.76 10.18 10.86 7.83 16.22 9.21 29.51 10.56"
         id="path98" />
      <path
         fill="#f9d8ba"
         d="M1218.83 1155.61c32.56 12.27 35.23 13.26 68.81-.25l.26 19.35.93.44c-2.23 3.87-1.59 5.95-.74 10.54l-70.14.02c.38-3.31 1.13-6.22-.05-9.23.97-2.6.76-5.01.88-7.9-.18-3.88.01-8.98.05-12.97"
         id="path99" />
      <path
         fill="#e0ad90"
         d="M1218.83 1155.61c32.56 12.27 35.23 13.26 68.81-.25l.26 19.35c-.64-1.67-1.27-3.17-1.98-4.81-6.28.71-12.08 2.42-18.3 3.29-18.02 2.51-31.83.9-48.84-4.61-.18-3.88.01-8.98.05-12.97M1171.19 1077.13c10.86 7.83 16.22 9.21 29.51 10.56-4.95 1.79-4.66 4.89-12.68 6.34-12.18 2.19-15.63-4.43-16.83-16.9M1301.13 1087.82c11.79-.09 18.11-1.84 28.61-6.64-5.47 15.21-17.08 18.15-28.61 6.64"
         id="path100" />
      <path
         fill="#e17e38"
         d="M1232.93 1111.02c23.44 18.9 33.87 1.26 40.68 1.39l.71 2.37c-9.35 8.01-17.3 8.97-29.5 7.35-6.23-.83-13.67-3.73-11.89-11.11"
         id="path101" />
      <path
         fill="#bd2c1a"
         d="M1279.69 1016.34c28.17-5.54 48.96-2.91 77.12 2.24-2.66 10.4-4.68 14.04-7.82 23.47-3.47 10.46-2.6 15.35-7.58 26.62l-.5 1.17c-4.32 5.43-5.98 6.85-11.17 11.34-10.5 4.8-16.82 6.55-28.61 6.64-20.11-1.43-34.04-9.3-37.95-30.35-1.25-6.76-1.57-18.42-10.76-17.73-8.67.64-7.83 9.43-9.28 15.78-3.51 24.1-19.7 32.23-42.44 32.17-13.29-1.35-18.65-2.73-29.51-10.56-2.92-3.34-5.17-6.59-7.76-10.18-3.02-8.71-3.16-15.09-5.69-22.85-3.44-10.59-5.64-14.04-8.17-25.49 26.92-5.19 49.66-7.81 76.63-2.31 7.67-.55 46.18-1.05 53.49.04"
         id="path102" />
      <path
         fill="#f9d8ba"
         d="M1226.2 1016.3c7.67-.55 46.18-1.05 53.49.04-6.57 2.83-8.06 3.82-13.84 7.82-1.16 2.69-2.33 6.17-3.36 8.99l-18.88.01-3.24-8.86c-5.91-4.29-7.5-5.05-14.17-8M1173.64 1071.07c-12.97-20.01-15.66-49.75 16.01-49.82 12.12-.04 24.72-.42 36.06 4.55 10.69 4.69 11.64 14.57 11.35 24.9-.47 16.99-9.76 28.46-26.99 31.51-13.93 2.95-26.65-.81-36.43-11.14"
         id="path103" />
      <path
         fill="#e0ad90"
         d="M1173.64 1071.07c21.35-15.71 21.83.62 29.55 10.45.44.56 5.54.65 6.88.69-13.93 2.95-26.65-.81-36.43-11.14"
         id="path104" />
      <path
         fill="#392111"
         d="M1193.92 1030.17c21.3-1.07 29.07 17.88 10.05 28.03-17.72 1.58-28.96-21.03-10.05-28.03"
         id="path105" />
      <path
         fill="#f9d8ba"
         d="M1299.05 1082.67c-17.33-2.79-27.62-11.93-30.42-29.07-3.28-20.13 8.15-30.41 27.28-31.45 11.1-.61 29.74-3 39.4 4.16 2.83 2.09 3.86 16.67 4.41 20.66.69 11.72-3.4 19.64-10.91 28.11-10.2 7.11-17.4 8.27-29.76 7.59"
         id="path106" />
      <path
         fill="#e0ad90"
         d="M1299.05 1082.67c3.74-18.9 17.8-24.39 29.76-7.59-10.2 7.11-17.4 8.27-29.76 7.59"
         id="path107" />
      <path
         fill="#392111"
         d="M1302.81 1030.11c23.38-.82 24.4 15.66 8.21 28-20.16 2.17-27.83-18.76-8.21-28"
         id="path108" />
      <path
         fill="#f9d8ba"
         d="M1356.04 1030.71c25.7 7.55 13.58 37.04 1.27 51.7-3.39 3.51-5.66 5.01-9.56 7.86 4.12-20.53 6.06-38.71 8.29-59.56M1145.74 1031.56c.66.15 1.77.69 2.44.98 1.52 8.04 2.05 17.6 3.13 25.86 1.28 9.71 3.02 19.34 4.24 29l-1.13.11-4.01-3.31c-13.76-14.63-24.29-37.94-4.67-52.64"
         id="path109" />
      <path
         fill="#c6855a"
         d="M823.817 1440.15c27.562-7.95 50.006 9 52.855 37.03 25.953-4.12 44.786 14.1 39.263 40.11 24.405 6.07 32.092 23.03 17.877 44.49l2.272 10.17c11.319-2.56 13.945-3.01 22.805-10.91-6.185 29.92-16.078 40.7-47.51 36.72-3.175 6.22-4.771 9.39-8.802 15.13 16.536 20.12-.908 48.8-21.582 57.85-9.251 33.66-21.179 50.74-55.855 63.34l.01 13.45c-23.859 7.73-44.353 6.9-68.028-.08l.079-2.26c-.086-3.43-.255-6.85-.505-10.27-1.947-2.18-14.628-7.93-18.52-10.24-23.982-14.2-30.042-28.09-36.66-53.72-16.095-7.45-28.536-23.3-28.284-42.09.144-10.71 4.143-13.06 11.462-19.59-10.756-24.98-5.29-46.25 2.384-70.48 1.058-3.33-.847-12.58.435-17.57 5.366-20.89 22.968-36.42 40.473-47.47 13.205-31.49 48.38-36.13 76.162-21.42 6.127-6.03 11.331-9.92 19.669-12.19"
         id="path110" />
      <path
         fill="url(#i)"
         d="M823.817 1440.15c27.562-7.95 50.006 9 52.855 37.03 25.953-4.12 44.786 14.1 39.263 40.11 24.405 6.07 32.092 23.03 17.877 44.49l2.272 10.17c11.319-2.56 13.945-3.01 22.805-10.91-6.185 29.92-16.078 40.7-47.51 36.72-3.175 6.22-4.771 9.39-8.802 15.13-4.735-2.61-5.517-2.77-10.908-3.37-.592-4.61-.695-16.53-1.009-22-20.091 3.81-31.292-.48-42.391-17.8-34.249 15.3-71.791 6.09-87.276-30.34.984-.21 1.968-.42 2.952-.64 19.83-22.48 36.235-48.61 54.341-72.57 5.35-7.07 12.391-19.4 18.395-25.32-3.517-1.2-9.039-.79-12.864-.7"
         id="path111" />
      <path
         fill="#392111"
         d="M891.669 1609.52c.577-4.09.409-12.8.431-17.34 7.825 4.09 10.507 5.12 19.279 5.58-3.175 6.22-4.771 9.39-8.802 15.13-4.735-2.61-5.517-2.77-10.908-3.37M804.148 1452.34c6.127-6.03 11.331-9.92 19.669-12.19 3.825-.09 9.347-.5 12.864.7-6.004 5.92-13.045 18.25-18.395 25.32-18.106 23.96-34.511 50.09-54.341 72.57-.984.22-1.968.43-2.952.64-13.902 5.08-26.706.57-38.137-7.74l-.655 1.79c-11.819 31.86-36.836 63.53-21.408 98.54q1.573 3.525 3.372 6.96c-9.068-9.66-14.649-17.09-19.471-29.65-10.756-24.98-5.29-46.25 2.384-70.48 1.058-3.33-.847-12.58.435-17.57 5.366-20.89 22.968-36.42 40.473-47.47 13.205-31.49 48.38-36.13 76.162-21.42"
         id="path112" />
      <path
         fill="#9c6737"
         d="M757.201 1745.19c.445-3.28.73-6.33 1.027-9.62 1.929-.68 24.509 9.42 34.195 8.11 14.126-1.9 19.558-4.14 32.717-9.6l.01 13.45c-23.859 7.73-44.353 6.9-68.028-.08z"
         id="path113" />
      <path
         fill="#d67c6a"
         d="M720.486 1644.62c7.792-2.19 15.883 2.34 18.095 10.12 2.212 7.79-2.288 15.89-10.064 18.13-7.813 2.25-15.968-2.27-18.192-10.1-2.223-7.82 2.332-15.96 10.161-18.15M848.026 1644.82c7.62-2.49 15.821 1.61 18.408 9.2 2.587 7.58-1.4 15.84-8.949 18.53a14.656 14.656 0 0 1-19.282-16.71c1.047-5.17 4.8-9.39 9.823-11.02"
         id="path114" />
      <path
         fill="#392111"
         d="M737.255 1605.92c18.313 2.52 20.179 22.7 4.335 31.7-19.596-1.29-21.917-23.56-4.335-31.7M837.188 1606c18.799 1.57 21.115 22.62 5.044 31.59-19.614-1.43-21.587-22.47-5.044-31.59"
         id="path115" />
      <path
         fill="#fbfbfa"
         d="M767.836 1689.76c14.713-.55 31.994-.13 46.904-.14-2.37 2.7-4.94 5.38-7.396 8.02-15.108 10.65-28.771 5.43-39.508-7.88"
         id="path116" />
      <path
         fill="#f9d8ba"
         d="M226.469 1600.22c-.469-7.21-.594-13.73-.434-20.95.674-30.38.032-53.22 21.142-77.57a96.78 96.78 0 0 1 67.113-33.04c6.619-.42 25.273.02 31.039 2.65 12.385 5.63 31.922 12.95 43.135 19.21 20.615 11.51 40.023 34.95 40.035 59.39.478 17.99 1.823 34.65.352 52.66 34.734 5.4 15.351 57.62-8.895 69.02l-1.681.81c-6.405 25-9.461 35.58-30.933 51.62-2.094 1.56-13.336 10.72-14.425 11.96l.358 17.81c-13.324 9.14-32.174 15.97-48.46 15.01-12.398-.73-31.206-6.05-39.676-15.4l.023-1.17c-.29-4.5.003-11.26.066-15.98-32.7-23.01-36.654-28.14-47.258-64.94-19.578-9.24-35.587-43.81-20.883-63.61 2.143-2.89 6.812-1.98 9.382-7.48"
         id="path117" />
      <path
         fill="url(#j)"
         d="M226.469 1600.22c-.469-7.21-.594-13.73-.434-20.95.674-30.38.032-53.22 21.142-77.57a96.78 96.78 0 0 1 67.113-33.04c6.619-.42 25.273.02 31.039 2.65 12.385 5.63 31.922 12.95 43.135 19.21 20.615 11.51 40.023 34.95 40.035 59.39.478 17.99 1.823 34.65.352 52.66-1.399 11.01-4.429 28.98-8.977 38.89-4.206-39.99-1.171-50.54-15.56-91.78-14.771-7.35-30.507-10.44-46.49-14.38-36.951 16.61-67.134 1.76-108.111 18.55-12.094 35.42-10.668 52.96-14.273 88.71-5.208-17.6-6.013-24.73-8.971-42.34"
         id="path118" />
      <path
         fill="#e0ad90"
         d="M286.187 1737.05c7.682 5.18 17.976 11.84 26.707 14.73 15.278 5.08 31.18 1.92 44.714-6.22 5.033-3.03 10.021-7.22 15.309-9.58l.358 17.81c-13.324 9.14-32.174 15.97-48.46 15.01-12.398-.73-31.206-6.05-39.676-15.4l.023-1.17c.995-4.67.895-10.32 1.025-15.18"
         id="path119" />
      <path
         fill="#fbfbfa"
         d="m303.273 1684.98 52.347.05c-2.633 4.2-4.411 6.16-7.623 9.89-15.882 13.02-34.827 6.99-44.724-9.94"
         id="path120" />
      <path
         fill="#392111"
         d="M374.786 1602.2c1.381-.1 2.763-.17 4.147-.2 19.27-.27 17.848 16.59 4.097 26.35-2.385.11-4.425.25-6.787-.22a14.37 14.37 0 0 1-9.437-6.58c-5.073-8.41 1.001-15.17 7.98-19.35M273.768 1602.13c19.602-.9 27.554 15.03 10.378 26-17.873 1.57-27.481-19.2-10.378-26"
         id="path121" />
      <path
         fill="#e0ad90"
         d="M1614.51 1023.25c-2.98-30.906-4.92-64.253 15.37-89.245 20.25-24.957 52.96-41.37 82.72-43.841 34.48-2.864 71.89 3.595 82.39 40.15.67 2.353 7.48 8.668 8.94 11.179 6 9.797 10.44 26.216 10.91 37.59.59 13.976.13 30.917-1.27 44.717 35.31 1.99 17.09 60.36-9.45 68.7-9.97 38.17-15.02 40.41-45.96 64.37.45 6.39.84 11.63.72 18.05-18.9 11.47-38.56 18.35-60.6 13.01a76.1 76.1 0 0 1-27.31-12.64c-.03-4.75.21-9.74.35-14.51-.74-7.05-27.75-22.06-33.86-32.02-7.47-12.19-9.81-22.71-13.67-36.1-23.28-12.29-42.95-60.63-9.28-69.41"
         id="path122" />
      <path
         fill="url(#k)"
         d="M1614.51 1023.25c-2.98-30.906-4.92-64.253 15.37-89.245 20.25-24.957 52.96-41.37 82.72-43.841 34.48-2.864 71.89 3.595 82.39 40.15.67 2.353 7.48 8.668 8.94 11.179 6 9.797 10.44 26.216 10.91 37.59.59 13.976.13 30.917-1.27 44.717-1.34 9.15-2.84 15.93-5.96 24.58-1.38-12.08-2.15-24.49-3.06-36.63-8.75-13.03-18.53-22.489-21.02-38.478-17.79 12.386-53.08 21.282-74.77 27.828 5-6.481 10.43-14.964 15.11-21.849-25.94 15.454-57.96 21.469-87.74 29.809 3.96-9.433 7.09-14.478 12.74-22.959-9.48 2.956-14.2 4.398-22.33 10.096-3.34 10.693-5.01 39.843-6.37 52.933-2.83-8.99-4.23-16.64-5.66-25.88"
         id="path123" />
      <path
         fill="#c6855a"
         d="m1671.32 1160.78.7-.94c4.06-.64 21.66 12.86 28.85 14.14 25.88 4.62 37.32-4.4 57.29-17.11.45 6.39.84 11.63.72 18.05-18.9 11.47-38.56 18.35-60.6 13.01a76.1 76.1 0 0 1-27.31-12.64c-.03-4.75.21-9.74.35-14.51"
         id="path124" />
      <path
         fill="#fbfbfa"
         d="M1677.5 1109.04h72.94c-3.8 6.24-4.94 8.04-9.86 13.42-1.69 1.42-3.8 2.92-5.65 4.11a39.4 39.4 0 0 1-30.64 4.85c-13.16-3.38-20.14-11.51-26.79-22.38"
         id="path125" />
      <path
         fill="#392111"
         d="M1759.12 1020.96c19.13-1.4 22.15 19.69 8.29 30.36-1.14.12-3.88.38-4.92.26-3.21-.37-6.16-1.96-8.23-4.43-7.18-8.51-3.13-19.8 4.86-26.19M1659.16 1020.73c19.12-.17 21.33 21.15 6.71 30.98-18.92-.09-20.87-20.97-6.71-30.98"
         id="path126" />
      <path
         fill="#f9d8ba"
         d="M1628.27 398.508c23.98-49.753 90.26-72.288 139.38-47.486 17.34 8.76 31.68 20.147 52.05 13.588-4.47 13.677-8.46 21.977-18.94 32.219 10.45 22.871 17.03 50.09 13.75 75.308 16.38 3.219 20.94 16.105 17.79 31.394-3.54 17.215-13.08 30.855-28.47 39.11-1.87 6.426-3.94 14.231-6.33 20.354-7.63 19.892-21.89 30.5-39.45 42.403.56 6.762.96 11.81.87 18.61-29.58 16.162-59.27 22.648-87.97-.11l.13-17.707c-18.07-12.11-32.79-22.897-40.66-43.295-2.66-6.127-4.8-14.845-6.62-21.462-23.81-12.959-43.17-63.704-8.69-68.976-2.83-24.536 2.74-51.658 13.16-73.95"
         id="path127" />
      <path
         fill="url(#l)"
         d="M1628.27 398.508c23.98-49.753 90.26-72.288 139.38-47.486 17.34 8.76 31.68 20.147 52.05 13.588-4.47 13.677-8.46 21.977-18.94 32.219-4.87 4.456-6.16 5.65-11.92 9.069-31.35 16.627-60.41.183-92.46-2.725-19.24-1.745-36.83.605-55.73 3.8-4.34-.282-5.04-.226-9.07-1.604-3.17-3.319-2.18-1.956-3.31-6.861"
         id="path128" />
      <path
         fill="#e17e38"
         d="M1630.42 562.896c20.91 19.693 59.48 61.843 83.58 19.294 13.26 23.132 29.13 21.145 50.58 9.617 14.22-7.648 21.48-19.776 32.92-28.812-7.63 19.892-21.89 30.5-39.45 42.403.56 6.762.96 11.81.87 18.61-29.58 16.162-59.27 22.648-87.97-.11l.13-17.707c-18.07-12.11-32.79-22.897-40.66-43.295"
         id="path129" />
      <path
         fill="#e0ad90"
         d="M1671.08 606.191c36.57 23.883 50.52 23.859 86.97-.793.56 6.762.96 11.81.87 18.61-29.58 16.162-59.27 22.648-87.97-.11z"
         id="path130" />
      <path
         fill="#e17e38"
         d="M1788.84 405.898c5.76-3.419 7.05-4.613 11.92-9.069 10.45 22.871 17.03 50.09 13.75 75.308-1.73 10.008-2.58 15.719-5.89 25.298-5.19-43.773-1.35-47.878-19.78-91.537M1615.11 472.458c-2.83-24.536 2.74-51.658 13.16-73.95 1.13 4.905.14 3.542 3.31 6.861 4.03 1.378 4.73 1.322 9.07 1.604-16.26 35.941-16.16 51.611-19.21 90.148-3.53-8.225-4.9-15.834-6.33-24.663"
         id="path131" />
      <path
         fill="#392111"
         d="M1658.05 469.962c19.97-1.447 22.67 20.06 8.29 30.278-17.74 2.325-21.62-18.815-8.29-30.278M1758.83 469.878c19.72-1.317 22.5 20.208 8.35 30.27-18.08 2.496-21.77-18.75-8.35-30.27"
         id="path132" />
      <path
         fill="#e17e38"
         d="M1686.07 547.539c5.86.364 12.73 10.094 28.52 10.447 15.97.357 18.39-9.477 25.71-9.617l1.67 2.307c-13.61 14.919-50.53 17.284-55.9-3.137"
         id="path133" />
      <path
         fill="#e0ad90"
         d="M691.018 1024.21c.851-70.648 26.398-117.316 103.538-115.394 72.866 1.816 94.613 47.688 95.754 115.274 34.762 4.64 16.197 57.1-7.57 68.26l-.71.34c-8.052 38.53-12.771 65.12-46.586 89.93-36.306 23.79-53.031 22.16-88.868-.27-32.619-26.05-38.528-49.36-46.212-89.44-24.591-11.85-42.709-63.66-9.346-68.7"
         id="path134" />
      <path
         fill="#7d360f"
         d="M790.853 1091.87c45.312-23.22 54.463 19.07 67.756 20.67 9.298-5.98 25.034-69.05 30.698-82.3a567 567 0 0 1-7.277 62.45c-8.052 38.53-12.771 65.12-46.586 89.93-36.306 23.79-53.031 22.16-88.868-.27-32.619-26.05-38.528-49.36-46.212-89.44-3.066-19.08-6.913-44.51-7.234-63.97 3.953 13.51 21.429 76.49 29.6 81.93 1.183.79 2.342 1.41 3.777 1.07 11.105-2.69 20.429-42.64 63.766-20.79l1.133.58c-8.603 1.17-21.725 2.86-26.715 10.8-26.568 42.26 65.787 48.82 56.833 8.67-3.433-15.39-16.863-17.77-30.671-19.33"
         id="path135" />
      <path
         fill="#fbfbfa"
         d="M764.844 1106.12c17.753-.1 35.506-.05 53.259.16-2.64 3.54-5.433 6.65-8.326 9.98-16.509 13.6-34.446 6.55-44.933-10.14"
         id="path136" />
      <path
         fill="#392111"
         d="M737.992 1020.97c19.378 1.09 20.681 23.17 5.006 31.47-17.932-1.63-19.851-22.02-5.006-31.47M838.862 1020.89c18.423.99 20.758 22.49 5.065 31.45-18.332-1.32-20.232-22.14-5.065-31.45"
         id="path137" />
      <path
         fill="#f9d8ba"
         d="M1715.78 1481.29c62.43.32 100.48 28.76 99.24 93.2-.13 9.17-.54 18.33-1.23 27.47 17.62 3.23 21.76 16.11 18.11 33-3.19 14.79-12.8 31.35-27.97 36.28-8.35 35.6-17.32 42.56-44.96 64.24-.12.1-.1 9.62-.09 10.71l.04 7.44c-28.58 18.25-59.78 20.97-87.94.33l.16-16.79c-3.09-5.16-19.88-15.5-25.35-20.67-13.56-12.81-17.1-28.08-22.06-45.16-23-12.86-43.14-61.38-9.38-69.29-3.22-30.84-4.86-69.56 19.15-92.91 23.1-22.45 51.15-27.91 82.28-27.85"
         id="path138" />
      <path
         fill="#f9d8ba"
         d="M1715.78 1481.29c62.43.32 100.48 28.76 99.24 93.2-.13 9.17-.54 18.33-1.23 27.47l-.73.34-2.3-1.79c.47-3.1.64-4.21.71-7.44-2.45-2.47-2.75-1.78-6.96-2.6-18.73-3.54-53.84-7.52-71.59 2.1-6.38 3.46-7.82 6.26-9.71 12.8l-18.39-.03c-7.43-26.86-61.24-18.35-81.31-14.78-4.76.84-4.2-.05-6.72 2.79-1.31 6.3 1.3 12.38 5.88 16.77-1.23 4.93-1.85 12.31-2.47 17.52-3.04-8.81-4.44-16.43-5.85-25.59-3.22-30.84-4.86-69.56 19.15-92.91 23.1-22.45 51.15-27.91 82.28-27.85"
         id="path139" />
      <path
         fill="#e17e38"
         d="M1614.35 1602.05c-3.22-30.84-4.86-69.56 19.15-92.91 23.1-22.45 51.15-27.91 82.28-27.85 5.09 2.34 6.13 2 11.71 2.13l4.02.12c-.13 16.63-1.35 33.1-1.11 49.82.08 5.09 1.26 15.54.95 19.6-3.26 2.07-10.02.23-16.99 2.91-26.39.61-52.64-3.86-77.34-13.16-6.73 17.15-11.01 29.28-13.51 47.85-4.76.84-4.2-.05-6.72 2.79-1.31 6.3 1.3 12.38 5.88 16.77-1.23 4.93-1.85 12.31-2.47 17.52-3.04-8.81-4.44-16.43-5.85-25.59"
         id="path140" />
      <path
         fill="url(#m)"
         d="M1715.78 1481.29c62.43.32 100.48 28.76 99.24 93.2-.13 9.17-.54 18.33-1.23 27.47l-.73.34-2.3-1.79c.47-3.1.64-4.21.71-7.44-2.45-2.47-2.75-1.78-6.96-2.6-2.79-18.91-6.65-30.32-13.56-47.76a206.2 206.2 0 0 1-76.59 13.16c6.97-2.68 13.73-.84 16.99-2.91.31-4.06-.87-14.51-.95-19.6-.24-16.72.98-33.19 1.11-49.82l-4.02-.12c-5.58-.13-6.62.21-11.71-2.13"
         id="path141" />
      <path
         fill="#514b54"
         d="M1623.51 1590.56c20.07-3.57 73.88-12.08 81.31 14.78l18.39.03c1.89-6.54 3.33-9.34 9.71-12.8 17.75-9.62 52.86-5.64 71.59-2.1 4.21.82 4.51.13 6.96 2.6-.07 3.23-.24 4.34-.71 7.44-1.26 5.35-2.2 6.14-5.83 10.38-1.28 5.42-1.77 11.65-2.86 17.41-7.07 37.39-67.41 40.25-77.98 3.85-2.06-7.08-2.03-11.34-2.02-18.74-2.7-.39-9.55-1.35-12.07-.68-8.4 4.58-3.49 20-10.11 29.19-13.29 18.44-40.5 19.77-58.96 8.97-15.25-8.92-14.96-25.6-18.26-40.77-4.58-4.39-7.19-10.47-5.88-16.77 2.52-2.84 1.96-1.95 6.72-2.79"
         id="path142" />
      <path
         fill="#f9d8ba"
         d="M1752.47 1595.23c26.74-1.78 56.92-4.65 42.19 36.58-3.71 10.37-9.73 15.47-19.62 19.8-11.11 1.79-21.34 2.36-31.74-3.72-13.42-7.85-19.79-28.82-11.1-42.25 4.98-7.7 11.87-8.78 20.27-10.41"
         id="path143" />
      <path
         fill="#392111"
         d="M1761.26 1598.82c17.96 2.54 19.56 22.47 5.02 31.57-19.61-.89-20.76-22.7-5.02-31.57"
         id="path144" />
      <path
         fill="#f9d8ba"
         d="M1642.82 1595.17c23.94-.93 64.29-5.38 55.57 32.14-2.52 10.83-6.24 16.34-15.56 22.14-47.32 18.96-69.85-41.42-40.01-54.28"
         id="path145" />
      <path
         fill="#392111"
         d="M1661.36 1598.8c17.64 3.5 18.68 23.34 3.39 31.88-19.24-2.86-19.79-24.3-3.39-31.88"
         id="path146" />
      <path
         fill="#e0ad90"
         d="M1757.55 1735.83c.37 3.11.75 7.38 1.33 10.36l.04 7.44c-28.58 18.25-59.78 20.97-87.94.33l.16-16.79c5.38 1.66 10.66 6.2 15.64 9.13a52.97 52.97 0 0 0 50.06 2.08c6.48-3.1 14.61-8.48 20.71-12.55M1810.76 1600.51l2.3 1.79c-.11 8.79-2.79 17.15-5.38 25.5-.56-6.2-.64-11.05-2.75-16.91 3.63-4.24 4.57-5.03 5.83-10.38"
         id="path147" />
      <path
         fill="#e17e38"
         d="M1692.21 1690.66c3.5.45 8.88 5.2 14.03 6.99 12.31 4.28 17.74-1.91 27.7-6.31l2.26 1.39c-10.81 12.17-38.58 14.66-43.99-2.07"
         id="path148" />
      <path
         fill="#e9e7e7"
         d="M1670.98 1753.96c28.16 20.64 59.36 17.92 87.94-.33.13 2.95-.12 6.99 1.42 9.3 4.94 3.13 14.91 8.34 16.9 13.21 9.38 7.18 42.7 15.53 49.72 21.28 10.3 5.51 24.69 8.16 35.92 11.89 23.82 7.9 41.34 26.16 49.29 49.79 2.89 8.85 4.66 18.03 5.27 27.32l-89.34.05c-14.89-.01-34.5-.56-49.07.19-13.68 1.06-38.24.35-52.41.32-24.65-.05-51.13.48-75.66-.29-42.56-1.7-95.1-.16-138.56-.28.65-9.19 2.44-18.28 5.32-27.03 8.2-24.15 25.84-42.68 50.32-50.49 11.04-3.53 24.63-6.07 34.75-11.47 9.25-6.37 41.19-14.25 49.89-21.27 1.1-3.78 12.48-11.63 16.53-11.41.85-3.14 1.31-7.45 1.77-10.78"
         id="path149" />
      <path
         fill="#717b33"
         d="M1512.4 1886.41c.65-9.19 2.44-18.28 5.32-27.03 8.2-24.15 25.84-42.68 50.32-50.49 11.04-3.53 24.63-6.07 34.75-11.47 15.58 29.36 31.72 59.82 48.58 88.44l-.41.83c-42.56-1.7-95.1-.16-138.56-.28M1826.96 1797.42c10.3 5.51 24.69 8.16 35.92 11.89 23.82 7.9 41.34 26.16 49.29 49.79 2.89 8.85 4.66 18.03 5.27 27.32l-89.34.05c-14.89-.01-34.5-.56-49.07.19l-.24-.73c13.56-23.73 37.26-64.41 48.17-88.51"
         id="path150" />
      <path
         fill="#4e5a01"
         d="M1777.24 1776.14c9.38 7.18 42.7 15.53 49.72 21.28-10.91 24.1-34.61 64.78-48.17 88.51q-25.275.33-50.58.27c3.26-8.49 6.61-16.94 10.07-25.34 10.36-23.61 23.07-66.63 38.96-84.72M1652.68 1776.15c16.04 19.25 27.8 57.17 37.97 81.7l11.32 28.3c-14.7.37-35.74.34-50.6-.29-16.86-28.62-33-59.08-48.58-88.44 9.25-6.37 41.19-14.25 49.89-21.27"
         id="path151" />
      <path
         fill="#9c6737"
         d="M1695.31 1814.65c6.44-7.97 13.25-16.19 19.54-24.24l19.41 23.84c-2.57 6.31-4.36 8.7-8.43 14.06 1.25 2.28 2.37 3.26 2.8 3.97 4.47 7.44 5.67 20.65 9.65 28.58-3.46 8.4-6.81 16.85-10.07 25.34q25.305.06 50.58-.27l.24.73c-13.68 1.06-38.24.35-52.41.32-24.65-.05-51.13.48-75.66-.29l.41-.83c14.86.63 35.9.66 50.6.29l-11.32-28.3c6.02-13.84 2.48-17.81 12.45-29.55-.34-3.86-4.81-6.84-7.79-13.65"
         id="path152" />
      <path
         fill="#f9d8ba"
         d="M1670.98 1753.96c28.16 20.64 59.36 17.92 87.94-.33.13 2.95-.12 6.99 1.42 9.3-3.68 12.66-34.16 19.65-45.64 22.88-10.95-3.01-40.54-10.98-45.49-21.07.85-3.14 1.31-7.45 1.77-10.78"
         id="path153" />
      <path
         fill="#c4d8e0"
         d="M1670.97 1175.29a76.1 76.1 0 0 0 27.31 12.64c22.04 5.34 41.7-1.54 60.6-13.01.23 5.37.05 6.12 2.03 10.95 5.73 2.17 13.47 5.23 15.1 11.66-.99 2.48-1.87 3.19-1.11 4.96 19.03 6.42 38.13 12.65 57.3 18.66 33.2 10.64 58.29 14.54 76.08 49.63 5.27 10.41 8.54 25.4 9.05 37.08-56.08.06-116.04-1.1-171.65.13-21.11.14-42.23.13-63.35-.01-54.2-1.53-115.15-.15-169.89-.16.97-12.86 3.71-26.26 9.61-37.74 17.91-34.92 43.38-38.7 76.77-49.34 18.88-5.97 37.72-12.08 56.52-18.32-.16-1.49-1.65-4.32-2.16-6.44 2.97-3.09 11.9-9.53 16.05-10.07.78-3.47 1.22-7.09 1.74-10.62"
         id="path154" />
      <path
         fill="#c4d8e0"
         d="M1743.35 1247.13c5.01-6.89 26.67-42.32 31.55-44.64 19.03 6.42 38.13 12.65 57.3 18.66 33.2 10.64 58.29 14.54 76.08 49.63 5.27 10.41 8.54 25.4 9.05 37.08-56.08.06-116.04-1.1-171.65.13-4.12-16.21-11.74-44.57-19.82-58.35 4.13-5.32 5.77-7.58 8.44-13.88z"
         id="path155" />
      <path
         fill="#e9e7e7"
         d="M1670.97 1175.29a76.1 76.1 0 0 0 27.31 12.64c22.04 5.34 41.7-1.54 60.6-13.01.23 5.37.05 6.12 2.03 10.95 5.73 2.17 13.47 5.23 15.1 11.66-.99 2.48-1.87 3.19-1.11 4.96-4.88 2.32-26.54 37.75-31.55 44.64l-9.05-11.37-19.39-23.75-19.65 23.95-8.85 11.06c-5.42-7.43-25.96-40.73-31.07-44.6-.16-1.49-1.65-4.32-2.16-6.44 2.97-3.09 11.9-9.53 16.05-10.07.78-3.47 1.22-7.09 1.74-10.62"
         id="path156" />
      <path
         fill="#e0ad90"
         d="M1670.97 1175.29a76.1 76.1 0 0 0 27.31 12.64c22.04 5.34 41.7-1.54 60.6-13.01.23 5.37.05 6.12 2.03 10.95-7.07 10.98-33.4 17.66-45.98 21.3-7.25-2.03-14.45-4.26-21.58-6.71-7.27-2.57-20.74-7.41-24.12-14.55.78-3.47 1.22-7.09 1.74-10.62"
         id="path157" />
      <path
         fill="#87907a"
         d="m1695.26 1235.96 19.65-23.95 19.39 23.75c-2.67 6.3-4.31 8.56-8.44 13.88 8.08 13.78 15.7 42.14 19.82 58.35-21.11.14-42.23.13-63.35-.01l13.65-46.12c2.23-7.67 5.48-7.34 7.14-12.49-3.42-5.09-5.06-8.03-7.86-13.41"
         id="path158" />
      <path
         fill="#5b77a9"
         d="M285.139 1753.4c8.47 9.35 27.278 14.67 39.676 15.4 16.286.96 35.136-5.87 48.46-15.01.266 3.6.146 7.8 1.987 10.7 4.401 1.92 12.588 7.12 15.789 10.6-.546 2.8-2.039 4.29-2.388 6.33a4514 4514 0 0 0 51.994 16.91c26.157 8.32 52.484 12.65 70.955 34.53 14.35 17.01 17.484 32.77 20.495 53.94-133.972 1.49-271.356.06-405.51-.01 1.933-14.24 3.601-25.34 10.238-38.24 17.938-34.84 45.063-38.81 78.769-49.49l54.605-17.66c-.908-3.02-2.921-3.7-1.611-6.64 1.988-4.46 10.429-8.29 14.744-10.17 2.248-1.83 1.732-8.3 1.797-11.19"
         id="path159" />
      <path
         fill="#7d97f2"
         d="M285.139 1753.4c8.47 9.35 27.278 14.67 39.676 15.4 16.286.96 35.136-5.87 48.46-15.01.266 3.6.146 7.8 1.987 10.7 4.401 1.92 12.588 7.12 15.789 10.6-.546 2.8-2.039 4.29-2.388 6.33-3.893 2.92-26.379 38.37-30.607 44.85l-28.877-35.41c-8.872 11.62-19.194 23.86-28.462 35.3-8.128-11.53-21.83-34.86-30.508-44.76-.908-3.02-2.921-3.7-1.611-6.64 1.988-4.46 10.429-8.29 14.744-10.17 2.248-1.83 1.732-8.3 1.797-11.19"
         id="path160" />
      <path
         fill="#f9d8ba"
         d="M285.139 1753.4c8.47 9.35 27.278 14.67 39.676 15.4 16.286.96 35.136-5.87 48.46-15.01.266 3.6.146 7.8 1.987 10.7-5.757 11.14-33.85 18.18-45.749 21.89q-3.716-1.065-7.406-2.22c-10.842-3.32-33.418-9.51-38.765-19.57 2.248-1.83 1.732-8.3 1.797-11.19"
         id="path161" />
      <path
         fill="#7d97f2"
         d="M1670.95 623.898c28.7 22.758 58.39 16.272 87.97.11 1.81 23.945 2.7 21.029 22.27 29.848 5.43.517 80.17 24.781 88.07 28.205a79.5 79.5 0 0 1 18.73 11.479c20.09 16.599 27.08 37.793 29.43 62.899-44.86 1.199-95.05.103-140.27.106l-264.69-.071c3.97-57.841 38.83-75.024 88.45-87.528 15.06-3.798 31.88-10.847 47.26-15.184 20.54-6.91 20.76-8.2 22.78-29.864"
         id="path162" />
      <path
         fill="#f9d8ba"
         d="M1670.95 623.898c28.7 22.758 58.39 16.272 87.97.11 1.81 23.945 2.7 21.029 22.27 29.848-45.73 16.556-87.41 15.742-133.02-.094 20.54-6.91 20.76-8.2 22.78-29.864"
         id="path163" />
      <path
         fill="#48b2bc"
         d="M746.576 1182.35c35.837 22.43 52.562 24.06 88.868.27 2.931 15.79 4.845 17.15 20.102 21.91 14.608 3.89 33.675 11.17 48.637 15.73 10.354 3.15 32.022 9.5 41.133 13.42a80.6 80.6 0 0 1 18.021 10.74c21.245 16.92 27.387 37.84 30.413 63.59-134.099 1.43-270.795.04-405.112.04.999-12.64 4.121-26.8 9.967-38 17.859-34.23 42.598-38.14 75.587-48.61a4881 4881 0 0 0 52.718-17.07c15.186-4.35 17.741-6.32 19.666-22.02"
         id="path164" />
      <path
         fill="#e0ad90"
         d="M746.576 1182.35c35.837 22.43 52.562 24.06 88.868.27 2.931 15.79 4.845 17.15 20.102 21.91-6.861 7.78-16.019 20.35-22.559 28.8l-41.719 53.95c-19.175-22.13-45.821-58.93-64.358-82.91 15.186-4.35 17.741-6.32 19.666-22.02"
         id="path165" />
      <path
         fill="#48b2bc"
         d="M1218.9 1747.13c22.96 8.38 45.48 7.43 68.52.18.11 6.96-.13 22.72 2.44 28.49l1.85.97-1.66 1.22c.79 3.07 2.17 6.14 5.14 7.53 13.33 6.26 31.97 11.06 46.17 15.3 18.18 6.51 38.21 9.42 53.53 21.75 21.53 17.32 26.13 38.7 29.27 64.38l-341.95.01c1.17-14.9 3.7-28.21 10.47-41.6 15.63-30.86 41.96-34.88 71.86-44.53 7.07-1.99 15.34-4.31 22.28-6.7 8.37-2.88 27.79-6.17 29.25-16.09l-1.08-1.34 1.28-1.06c2.37-6.21 2.41-21.22 2.63-28.51"
         id="path166" />
      <path
         fill="#e0ad90"
         d="M1218.9 1747.13c22.96 8.38 45.48 7.43 68.52.18.11 6.96-.13 22.72 2.44 28.49l1.85.97-1.66 1.22c.79 3.07 2.17 6.14 5.14 7.53 13.33 6.26 31.97 11.06 46.17 15.3-55.44 65.04-120.91 61.24-176.82.01 7.07-1.99 15.34-4.31 22.28-6.7 8.37-2.88 27.79-6.17 29.25-16.09l-1.08-1.34 1.28-1.06c2.37-6.21 2.41-21.22 2.63-28.51"
         id="path167" />
      <path
         fill="#c4d8e0"
         d="M1218.99 617.207c26.83 7.438 41.13 7.325 68.14.187.09 5.1.04 10.496.61 15.538.44 7.83.49 16.763 7.4 21.766 9.94 7.191 33.48 12.154 46 16.018 25.76 7.973 50.96 12.559 67.02 36.131 11.1 16.29 13.57 30.58 15.66 49.685-39.57.671-80.55.172-120.22.174l-221.17-.004c1.12-15.088 3.86-28.93 10.95-42.392 15.74-29.903 41.56-34.372 71.3-43.526 12.92-4.043 36.28-8.816 46.56-16.268 6.71-4.865 6.6-13.877 6.88-21.474.59-5.14.67-10.638.87-15.835"
         id="path168" />
      <path
         fill="#e0ad90"
         d="M1218.99 617.207c26.83 7.438 41.13 7.325 68.14.187.09 5.1.04 10.496.61 15.538.44 7.83.49 16.763 7.4 21.766 9.94 7.191 33.48 12.154 46 16.018-22.25 27.257-55.46 48.323-91.66 46.771-36.17-1.552-61.29-21.307-84.8-46.703 12.92-4.043 36.28-8.816 46.56-16.268 6.71-4.865 6.6-13.877 6.88-21.474.59-5.14.67-10.638.87-15.835"
         id="path169" />
      <path
         fill="#c6855a"
         d="M757.122 1747.45c23.675 6.98 44.169 7.81 68.028.08.265 8.01.06 32.96 6.388 36.47 18.198 10.09 54.858 19.15 74.802 25.48 38.533 10.62 52.317 40.09 55.871 77.44l-341.944.01c.939-9.59 1.961-15.65 4.138-25.08 13.131-35.89 26.98-45.05 61.863-55.81 13.526-4.19 27.094-8.23 40.703-12.14 33.167-9.66 29.013-13.29 30.151-46.45"
         id="path170" />
      <path
         fill="#c053d1"
         d="M906.34 1809.48c38.533 10.62 52.317 40.09 55.871 77.44l-341.944.01c.939-9.59 1.961-15.65 4.138-25.08 14.365.32 31.467 2.43 46.443 3.04 65.467 2.7 127.333-3.78 187.826-30.28 12.012-5.26 37.868-16.95 47.666-25.13"
         id="path171" />
      <path
         fill="#bd2c1a"
         d="m1217.95 1185.71 70.14-.02c5.99 6.24 20.56 20.83 24.3 27.06 4.09 2.4 13.44 4.92 18.23 6.29 57.12 16.32 85.22 22.88 93.45 89.01l-341.97-.01c1.6-13.28 2.98-20.85 7.33-33.37 16.71-48.16 65.42-44.21 104.22-61.82 2.75-5.13 19.08-21.68 24.3-27.14"
         id="path172" />
      <path
         fill="#feb0aa"
         d="m1217.95 1185.71 70.14-.02c5.99 6.24 20.56 20.83 24.3 27.06-15.82 10.84-31.73 10.1-50.17 8.16l-9.19-28.85-9.06 28.82c-18.4 2.61-34.47 2.06-50.32-8.03 2.75-5.13 19.08-21.68 24.3-27.14"
         id="path173" />
      <path
         fill="#bd2c1a"
         d="m724.7 653.062 6.884 1.444 1.737-1.475c14.79 7.01 45.708 43.06 53.846 57.986l.982 1.762.578 1.064 2.416-.497.008.654c4.369 7.295-1.059 35.447 2.611 41.284l2.173 1.62-7.251-.089c-65.138-1.561-134.523.135-200.196-.254 3.559-34.656 18.664-64.444 53.009-76.514 27.353-9.613 55.966-16.772 83.203-26.985"
         id="path174" />
      <path
         fill="#c4d8e0"
         d="m791.143 713.346.008.654c4.369 7.295-1.059 35.447 2.611 41.284l2.173 1.62-7.251-.089q.246-21.485.043-42.972zM1012.94 1948.19c-.59-1.64-.42-1.53-.54-3.32 5.72-2.38 3.21-1.49 6.55-8.77l1.68.22c1.88 2.8 1.29 1.89.95 6.1 3.15.31 2.51-.09 5.18 1.18l-.42 2.78c2.31.8 4.6 1.64 6.88 2.51 3.95 1.49 9.92 3.26 13.83 1.69l-.13-1.78 1.12-.08.03.65-1.13-.17.85-.66-.49 2.34-1.24.6c-.63 4.05.05 8.81-1.64 11.03l.42 3.77c.8 2.38 1.38 2.72 1.01 4.61-6.34 18.44-21 19.46-38.02 16.07-3.89-3.46-8.026-6.27-8.285-11.85l.104-1.51c-2.211-3.02-1.6-3.77-2.154-8.09l-2.016-.06c-5.862-3.57.977-.88-1.84-6.38-.481-.93-2.873-.08-4.47-3.49l1.53-1.37 3.46 3.11c5.941-2.7 13.791-7.1 18.781-9.13"
         id="path175" />
      <path
         fill="#c4d8e0"
         d="M999.649 1973.6c19.381 1.16 27.601 1.64 45.191-7.32.8 2.38 1.38 2.72 1.01 4.61-6.34 18.44-21 19.46-38.02 16.07-3.89-3.46-8.026-6.27-8.285-11.85z"
         id="path176" />
      <path
         fill="#e9e7e7"
         d="M999.649 1973.6c19.381 1.16 27.601 1.64 45.191-7.32.8 2.38 1.38 2.72 1.01 4.61l-1.83-1.71c-15.22 7.47-27.72 9.2-44.475 5.93z"
         id="path177" />
      <path
         fill="#c4d8e0"
         d="M1012.94 1948.19c-.59-1.64-.42-1.53-.54-3.32 5.72-2.38 3.21-1.49 6.55-8.77l1.68.22c1.88 2.8 1.29 1.89.95 6.1 3.15.31 2.51-.09 5.18 1.18l-.42 2.78c-5.01.96-8.7 1.05-13.4 1.81"
         id="path178" />
      <path
         fill="#fbfbfa"
         d="M1009.65 1954.51c3.62-1.32 7.63.54 8.96 4.16a6.99 6.99 0 0 1-4.14 8.97 6.997 6.997 0 0 1-8.98-4.16 6.99 6.99 0 0 1 4.16-8.97M1031.69 1954.53a4.25 4.25 0 0 1 4.2.76 4.233 4.233 0 0 1-1.42 7.23c-2.2.72-4.56-.44-5.32-2.63-.76-2.18.37-4.56 2.54-5.36"
         id="path179" />
      <path
         fill="#c6855a"
         d="M691.446 472.644c.842 7.701 1.525 16.767 2.654 24.25l4.625 1.867c3.515 6.855 3.997 12.61-2.247 18.077l-2.688 1.179c-1.208 6.191-1.384 12.379-1.749 18.677-15.798-15.527-33.53-60.809-.595-64.05"
         id="path180" />
      <path
         fill="#c4d8e0"
         d="m694.1 496.894 4.625 1.867c3.515 6.855 3.997 12.61-2.247 18.077l-2.688 1.179c-12.479-6.249-14.479-16.802.31-21.123"
         id="path181" />
      <path
         fill="#c6855a"
         d="M890.732 472.76c32.348 1.838 16.012 47.655.43 62.936-1.279-3.946-.709-11.348-2.249-17.626l-1.875-.182c-6.91-5.912-7.885-11.668-3.035-19.418l4.57-1.495z"
         id="path182" />
      <path
         fill="#c4d8e0"
         d="M888.573 496.975c7.595 2.343 12.376 5.991 8.377 14.374-2.061 4.321-4.943 4.397-8.037 6.721l-1.875-.182c-6.91-5.912-7.885-11.668-3.035-19.418zM828.17 1958.25c5.475 3.86 3.8 25.28.498 31.57-4.814 9.17-19.902 7.91-22.255-1.41l1.422-1.47c4.344.43 3.908 1.14 8.057 4.22l5.106-1.25c2.893-2.88 1.783-1.19 2.954-5.54l-.861-.93c-4.918.85-12.551 2.82-15.058-1.49-7.949-13.67-2.408-26.71 15.093-21.73 2.075.59 3.249-.85 5.044-1.97"
         id="path183" />
      <path
         fill="#fbfbfa"
         d="M814.863 1963.63c11.039.39 11.453 8.88 5.484 16.09-3.075.27-2.856.26-5.727-.92-4.503-5.3-3.597-9.68.243-15.17"
         id="path184" />
      <path
         fill="#c4d8e0"
         d="M1161.69 1958.1c4.58.78 8.97 1.6 10.8 6.26 5.51 13.97-.89 25.02-16.08 19.27l-1.38.82-.57 6.55c0 3.06-.28 3.61-3.02 4.58l-1.77-1.09c-2.51-6.01-3.36-31.49.69-35.75 2.68.05 2.23.46 4.85 2.68 2.27-1.01 4.29-2.15 6.48-3.32"
         id="path185" />
      <path
         fill="#fbfbfa"
         d="M1159.03 1963.38c11.03 1.72 10.43 10.56 4.16 17.29-10.81-1.65-9.4-10.51-4.16-17.29"
         id="path186" />
      <path
         fill="#c4d8e0"
         d="m930.473 1948.36 3.915 1.06c2.401 3.34 1.526 4.17 1.158 9.05 3.287 5.95 8.406-3.49 15.123 1.54 8.028 6.01 5.248 17.4.436 23.91-3.406 1.47-3.29 1.57-7.198 1.71-3.131-1.47-3.919-1.76-7.239-2.74-1.819 1.78-1.727 1.79-3.982 2.92-1.186-.56-2.268-.73-2.499-1.73-1.543-6.63-1.504-30.11.286-35.72"
         id="path187" />
      <path
         fill="#fbfbfa"
         d="M939.882 1963.56c1.651.1 3.117.12 4.671.82a7.18 7.18 0 0 1 4.083 5.19c.835 4.38-1.224 7.64-3.516 11.04-11.573-1.27-10.349-9.59-5.238-17.05"
         id="path188" />
      <path
         fill="#c4d8e0"
         d="M909.407 1948.19c2.874.47 1.9.07 4.38 1.52 2.247 5.63 2.967 32.04-1.332 35.93l-1.665-.16c-1.493-1.91-.834-1.55-2.79-2.63-5.257 2.3-5.94 2.92-11.472 2.85-9.406-5.66-11.098-22.04-1.214-26.24a12.27 12.27 0 0 1 9.897.18c2.162.99 1.025 1 2.995.41.277-4.28.604-7.61 1.201-11.86"
         id="path189" />
      <path
         fill="#fbfbfa"
         d="M899.057 1963.72c11.539.55 10.625 8.94 5.978 16.5-11.671-.22-10.868-9.01-5.978-16.5"
         id="path190" />
      <path
         fill="#c4d8e0"
         d="M732.472 1948.27c2.109.37 2.242.48 4.275 1.17 2.64 5.14 2.851 31.62-.27 36.01l-1.791.23c-2.019-1.98-1.277-1.63-3.69-2.77-4.951 2.3-6.235 3.24-11.568 2.66-14.891-12.18-5.472-33.9 11.55-24.8l.779-.62c.14-3.96.379-7.93.715-11.88"
         id="path191" />
      <path
         fill="#fbfbfa"
         d="M722.932 1963.5c11.198 1.16 10.017 9.68 5.262 16.9-11.767-.83-10.624-9.47-5.262-16.9"
         id="path192" />
      <path
         fill="#c4d8e0"
         d="m1287.15 1957.78 3.49 2.35c6.91-.87 16.14.27 23.7-.93 9.8-1.56 12.75 22.63 4.71 26.41-7.54-2.36.25-14.52-5.97-21.32-3.65.34-2.44.15-5.77 2.83l-.27 15.42c-1.85 2.9-.58 1.92-4.04 2.9-7.08-3.28 1.15-13.69-5.3-21.1-3.77-.11-2.22-.69-4.95 1.39-2.95 7.01 1.54 15.18-4.12 19.71l-2.11-.37c-3.89-5.29-3.23-22.17.63-27.29M1267.57 1958.36c7.57-.54 14.14 5.17 14.67 12.73.53 7.57-5.17 14.14-12.74 14.66-7.56.53-14.11-5.17-14.64-12.73-.54-7.56 5.16-14.12 12.71-14.66"
         id="path193" />
      <path
         fill="#fbfbfa"
         d="M1264.88 1963.8c12.24-.3 11.75 8.35 7.09 16.52-1.84.1-3.35.28-5.15-.35a7.09 7.09 0 0 1-4.53-5.03c-1.03-4.17.74-7.59 2.59-11.14"
         id="path194" />
      <path
         fill="#c4d8e0"
         d="M1131 1958.13c7.34.65 15.57 3.57 15.63 12.33-5.28 5.9-14.69 1.47-19.04 5.18l.35 2.34c5.6 5.18 10.1 1.53 14.78-2.29 1.42 1.13 1.28 1.26 2.36 2.8l-.41 2.08c-16.92 18.58-38.21-14.12-13.67-22.44"
         id="path195" />
      <path
         fill="#fbfbfa"
         d="M1131.26 1962.57c4.08.99 5.78 1.65 7.39 5.48l-.96 1.79c-3.48.08-6.5.62-9.38-1.08.08-3.45.44-2.76 2.95-6.19"
         id="path196" />
      <path
         fill="#c4d8e0"
         d="M873.266 1958.07c7.16.91 15.479 4.22 14.689 12.92-3.812 4.77-12.954 1.32-18.604 3.69l.123 2.06c2.934 3.76 1.133 2.47 5.577 4.09 4.213-.44 6.485-2.76 9.987-5.34 1.782 2.75 1.38 1.29 1.299 4.53-3.253 5.28-12.286 7.48-16.708 4.78-12.967-7.91-10.114-22.51 3.637-26.73"
         id="path197" />
      <path
         fill="#fbfbfa"
         d="M872.994 1962.45c3.488.83 5.389 2.01 7.215 4.98l-.44 1.52-1.843 1.01c-4.1-.16-5.577.43-8.393-1.55.134-2.76 1.591-3.84 3.461-5.96"
         id="path198" />
      <path
         fill="#c4d8e0"
         d="M753.21 1958.17c6.965.84 15.439 4.51 14.555 12.84-5.426 5.14-14.466 1.03-18.818 4.06.628 4.02 2.159 4.63 5.578 5.82 4.274-.54 7.018-3.03 10.674-5.54 1.276 3.53 1.134 1.79.557 5.4-16.132 19.11-38.882-15.81-12.546-22.58"
         id="path199" />
      <path
         fill="#fbfbfa"
         d="M752.948 1962.45c3.286 1.23 7.065 2.36 6.739 6.39l-1.799 1.04c-4.439-.16-5.391.56-8.522-1.47.627-3.5.866-2.81 3.582-5.96"
         id="path200" />
      <path
         fill="#c4d8e0"
         d="M1094.62 1963.63c8.39-8.51 21.95-5.54 24.06 5.3-2.82 9.08-12.79 2.49-18.52 6.39.39 2.94 2.9 4.84 5.29 6.52 4.26-2.27 6.71-4.56 11.62-4.04l.9 1.21c-8.67 13.33-32.7 6.11-23.35-15.38"
         id="path201" />
      <path
         fill="#fbfbfa"
         d="M1103.9 1962.41c3.5 1.24 4.67 1.65 7.05 4.51l-.21 1.98-1.83 1.04c-4.42-.18-5.44.55-8.49-1.51.64-3.5.89-2.85 3.48-6.02"
         id="path202" />
      <path
         fill="#c4d8e0"
         d="M1190.31 1948.22c2.7.41 3.07.11 4.93 1.95 1.99 5.33 1.1 12.24.93 18.23 4.97-5.34 5.81-7.47 12.79-8.56l1.11 1.22c-.6 3.54-2.92 5.09-5.58 7.71 3.85 5.61 5.84 8.67 8.99 14.69l-3.09 1.71c-6.83-.83-5.47-5.94-10.77-11.07-4.52 2.17-1.81 7.65-6.44 11.52l-1.73-.58c-3.23-4.46-2.05-30.63-1.14-36.82M968.13 1977.8c1.521-4.7 4.354-17.05 9.934-17.61 2.345 5.83-2.185 14.12-4.599 20.05-1.28 3.44-3.768 12.04-7.057 13.57-4.423 2.05-8.845 3.86-11.328-1.42l.857-1.52c18.925-4.9-1.568-16.9.354-32.57 2.327.18 2.206.19 4.35 1.15 3.848 5.05 5.484 12.13 7.489 18.35M848.912 1958.05c12.084 2.31 12.123 15.38 8.924 25.69-.379 1.22-1.662 1.12-2.97 1.41-6.815-2.97.445-10.65-4.142-19.42-3.109-2.23-2.041-1.55-6.609-1.59-4.339 7.23 1.058 20.9-6.809 21.99-3.649-4.55-3.081-18.53-1.657-24.07.485-1.89 9.412-2.3 13.263-4.01M779.004 1958.27c4.479.49 4.437.44 8.585 2.14 2.712 3.14 2.093 1.43 2.562 5.04-2.239 2.11-.931 1.57-4.09 1.57-3.699-3.18-4.252-4.63-9.113-3.57l-.687 1.71c2.645 5.48 17.092 5.82 16.706 15.26-3.169 3.82-9.393 5-14.018 5.75-4.201-1.06-11.622-3.52-10.063-9.31 3.216-.25 9.905 2.62 13.188 3.83l2.186-1.03c-2.389-4.73-10.862-6.65-15.475-12.82-.879-6.26 5.043-7.62 10.219-8.57M1239.06 1958.16c5.78.49 9.61 1.12 13.57 5.61.33 3.24.63 1.69-1.36 4.69-5.93.46-5.87-5.25-12.65-4.48-3.9 3.68-5.01 8.94-2.31 13.7 6.12 4.44 8.46 2.09 12.54-2.97 1.77-.4 1.07-.2 3.24.5 2.74 8.61-9.49 12.6-16.66 9.63a12.41 12.41 0 0 1-6.69-6.83c-3.7-9.18 1.28-17.02 10.32-19.85M1064.59 1949.06c3.45-.25 10.44-1.49 12.03 2.23-2.38 2.81-4.65 1.62-7.92 5.22 1.49 5.96.95-.58 5.38 4.48l-.44 1.98-4.39 1.78c-1.57 3.26-.8 11.96-.69 16.07-.61 3.35.12 1.99-2.03 4.34l-2.59.08c-4.14-4.2-1.14-13.04-2.44-20.41-2.54-.84-2.44-.7-4.41-2.47l.04-2.27c1.35-.8 2.72-1.44 4.17-2.03.77-4.72.66-5.2 3.29-9M1075.21 1978.75c-.08-4.51-.63-14.25.56-18.15 3.62-2.32 10.25-1.66 14.63-1.37 3.57 2.21 2.23.78 4.22 4.4-3.74 1.52-5.13 1.45-9.2 1.52-5.78 5.16-1.42 12.52-4.56 19.21-2.62 1.45-1.19 1.13-4.5.28-1.58-2.45-1.2-2.85-1.15-5.89M795.533 1958.24c2.532.29 2.403.19 4.614 1.42 3.726 5.69 1.873 19.17 1.126 26.09-2.617-.28-2.088-.21-4.593-1.02-3.647-5.31-1.827-19.75-1.147-26.49M1178.32 1958.2c2.3.27 2.21.28 4.32 1.25 3.3 5.26 1.52 19.64 1.02 26.31-1.89-.39-4.08-.37-4.81-1.72-2.84-5.24-1.36-20.21-.53-25.84"
         id="path203" />
    </svg>
    <path
       fill="#cf6f2a"
       d="m 41.973978,36.579925 q 7,-9 21,-8 14,1 15,11 0,12 -6,18 -5,-6 -12,-8 -9,-1 -14,-3 -4,-4 -4,-10"
       id="path204" />
  </g>
</svg>
